SplineFontDB: 3.2
FontName: Monocraft
FullName: Monocraft
FamilyName: Monocraft
Weight: Medium
Copyright: Idrees Hassan\nhttps://github.com/IdreesInc/Monocraft
Version: 001.200
ItalicAngle: 0
UnderlinePosition: -120
UnderlineWidth: 0
Ascent: 960
Descent: 120
InvalidEm: 0
sfntRevision: 0x00010000
LayerCount: 2
Layer: 0 1 "Back" 1
Layer: 1 1 "Fore" 0
XUID: [1021 384 -154929595 16029303]
StyleMap: 0x0040
FSType: 8
OS2Version: 4
OS2_WeightWidthSlopeOnly: 0
OS2_UseTypoMetrics: 0
CreationTime: 1280473793
ModificationTime: 1662753944
PfmFamily: 17
TTFWeight: 500
TTFWidth: 5
LineGap: 120
VLineGap: 0
Panose: 2 0 6 9 0 0 0 0 0 0
OS2TypoAscent: 960
OS2TypoAOffset: 0
OS2TypoDescent: -120
OS2TypoDOffset: 0
OS2TypoLinegap: 120
OS2WinAscent: 960
OS2WinAOffset: 0
OS2WinDescent: 240
OS2WinDOffset: 0
HheadAscent: 960
HheadAOffset: 0
HheadDescent: -120
HheadDOffset: 0
OS2SubXSize: 600
OS2SubYSize: 720
OS2SubXOff: 0
OS2SubYOff: 120
OS2SupXSize: 600
OS2SupYSize: 720
OS2SupXOff: 0
OS2SupYOff: 480
OS2StrikeYSize: 0
OS2StrikeYPos: 240
OS2Vendor: '2ttf'
OS2CodePages: 40000001.00000000
OS2UnicodeRanges: 80000003.00014002.00000000.00000000
Lookup: 4 0 0 "liga" { "liga-subtable"  } ['liga' ('DFLT' <'dflt' > 'latn' <'dflt' > ) ]
MarkAttachClasses: 1
DEI: 91125
TtTable: prep
PUSHW_1
 511
SCANCTRL
PUSHB_1
 1
SCANTYPE
SVTCA[y-axis]
MPPEM
PUSHB_1
 8
LT
IF
PUSHB_2
 1
 1
INSTCTRL
EIF
PUSHB_2
 70
 6
CALL
IF
POP
PUSHB_1
 16
EIF
MPPEM
PUSHB_1
 20
GT
IF
POP
PUSHB_1
 128
EIF
SCVTCI
PUSHB_1
 20
CALL
EndTTInstrs
TtTable: fpgm
PUSHB_1
 0
FDEF
PUSHB_1
 0
SZP0
MPPEM
PUSHB_1
 42
LT
IF
PUSHB_1
 74
SROUND
EIF
PUSHB_1
 0
SWAP
MIAP[rnd]
RTG
PUSHB_1
 6
CALL
IF
RTDG
EIF
MPPEM
PUSHB_1
 42
LT
IF
RDTG
EIF
DUP
MDRP[rp0,rnd,grey]
PUSHB_1
 1
SZP0
MDAP[no-rnd]
RTG
ENDF
PUSHB_1
 1
FDEF
DUP
MDRP[rp0,min,white]
PUSHB_1
 12
CALL
ENDF
PUSHB_1
 2
FDEF
MPPEM
GT
IF
RCVT
SWAP
EIF
POP
ENDF
PUSHB_1
 3
FDEF
ROUND[Black]
RTG
DUP
PUSHB_1
 64
LT
IF
POP
PUSHB_1
 64
EIF
ENDF
PUSHB_1
 4
FDEF
PUSHB_1
 6
CALL
IF
POP
SWAP
POP
ROFF
IF

StartChar: .notdef
Encoding: 193 -1 0
Width: 720
VWidth: 960
GlyphClass: 1
Flags: W
LayerCount: 2
Fore
SplineSet
66 0 m 1,0,-1
 66 1278 l 1,1,-1
 576 1278 l 1,2,-1
 576 0 l 1,3,-1
 66 0 l 1,0,-1
126 66 m 1,4,-1
 510 66 l 1,5,-1
 510 1218 l 1,6,-1
 126 1218 l 1,7,-1
 126 66 l 1,4,-1
EndSplineSet
Validated: 1
EndChar

StartChar: exclam
Encoding: 1 33 2
Width: 720
VWidth: 960
GlyphClass: 2
Flags: W
LayerCount: 2
Fore
SplineSet
240 0 m 1,0,-1
 240 120 l 1,1,-1
 360 120 l 1,2,-1
 360 0 l 1,3,-1
 240 0 l 1,0,-1
240 240 m 1,4,-1
 240 360 l 1,5,-1
 240 480 l 1,6,-1
 240 600 l 1,7,-1
 240 720 l 1,8,-1
 240 840 l 1,9,-1
 360 840 l 1,10,-1
 360 720 l 1,11,-1
 360 600 l 1,12,-1
 360 480 l 1,13,-1
 360 360 l 1,14,-1
 360 240 l 1,15,-1
 240 240 l 1,4,-1
EndSplineSet
Validated: 1
EndChar

StartChar: quotedbl
Encoding: 2 34 3
Width: 720
VWidth: 960
GlyphClass: 2
Flags: W
LayerCount: 2
Fore
SplineSet
360 600 m 1,0,-1
 360 720 l 1,1,-1
 360 840 l 1,2,-1
 480 840 l 1,3,-1
 480 720 l 1,4,-1
 480 600 l 1,5,-1
 360 600 l 1,0,-1
120 600 m 1,6,-1
 120 720 l 1,7,-1
 120 840 l 1,8,-1
 240 840 l 1,9,-1
 240 720 l 1,10,-1
 240 600 l 1,11,-1
 120 600 l 1,6,-1
EndSplineSet
Validated: 1
EndChar

StartChar: numbersign
Encoding: 3 35 4
Width: 720
VWidth: 960
GlyphClass: 2
Flags: W
LayerCount: 2
Fore
SplineSet
360 0 m 1,0,-1
 360 120 l 1,1,-1
 360 240 l 1,2,-1
 240 240 l 1,3,-1
 240 120 l 1,4,-1
 240 0 l 1,5,-1
 120 0 l 1,6,-1
 120 120 l 1,7,-1
 120 240 l 1,8,-1
 0 240 l 1,9,-1
 0 360 l 1,10,-1
 120 360 l 1,11,-1
 120 480 l 1,12,-1
 0 480 l 1,13,-1
 0 600 l 1,14,-1
 120 600 l 1,15,-1
 120 720 l 1,16,-1
 120 840 l 1,17,-1
 240 840 l 1,18,-1
 240 720 l 1,19,-1
 240 600 l 1,20,-1
 360 600 l 1,21,-1
 360 720 l 1,22,-1
 360 840 l 1,23,-1
 480 840 l 1,24,-1
 480 720 l 1,25,-1
 480 600 l 1,26,-1
 600 600 l 1,27,-1
 600 480 l 1,28,-1
 480 480 l 1,29,-1
 480 360 l 1,30,-1
 600 360 l 1,31,-1
 600 240 l 1,32,-1
 480 240 l 1,33,-1
 480 120 l 1,34,-1
 480 0 l 1,35,-1
 360 0 l 1,0,-1
360 360 m 1,36,-1
 360 480 l 1,37,-1
 240 480 l 1,38,-1
 240 360 l 1,39,-1
 360 360 l 1,36,-1
EndSplineSet
Validated: 1
EndChar

StartChar: dollar
Encoding: 4 36 5
Width: 720
VWidth: 960
GlyphClass: 2
Flags: W
LayerCount: 2
Fore
SplineSet
240 0 m 1,0,-1
 240 120 l 1,1,-1
 120 120 l 1,2,-1
 0 120 l 1,3,-1
 0 240 l 1,4,-1
 120 240 l 1,5,-1
 240 240 l 1,6,-1
 360 240 l 1,7,-1
 480 240 l 1,8,-1
 480 120 l 1,9,-1
 360 120 l 1,10,-1
 360 0 l 1,11,-1
 240 0 l 1,0,-1
480 240 m 1,12,-1
 480 360 l 1,13,-1
 600 360 l 1,14,-1
 600 240 l 1,15,-1
 480 240 l 1,12,-1
480 360 m 1,16,-1
 360 360 l 1,17,-1
 240 360 l 1,18,-1
 120 360 l 1,19,-1
 120 480 l 1,20,-1
 240 480 l 1,21,-1
 360 480 l 1,22,-1
 480 480 l 1,23,-1
 480 360 l 1,16,-1
120 480 m 1,24,-1
 0 480 l 1,25,-1
 0 600 l 1,26,-1
 120 600 l 1,27,-1
 120 480 l 1,24,-1
480 720 m 1,28,-1
 600 720 l 1,29,-1
 600 600 l 1,30,-1
 480 600 l 1,31,-1
 360 600 l 1,32,-1
 240 600 l 1,33,-1
 120 600 l 1,34,-1
 120 720 l 1,35,-1
 240 720 l 1,36,-1
 240 840 l 1,37,-1
 360 840 l 1,38,-1
 360 720 l 1,39,-1
 480 720 l 1,28,-1
EndSplineSet
Validated: 5
EndChar

StartChar: percent
Encoding: 5 37 6
Width: 720
VWidth: 960
GlyphClass: 2
Flags: W
LayerCount: 2
Fore
SplineSet
480 0 m 1,0,-1
 480 120 l 1,1,-1
 480 240 l 1,2,-1
 600 240 l 1,3,-1
 600 120 l 1,4,-1
 600 0 l 1,5,-1
 480 0 l 1,0,-1
0 0 m 1,6,-1
 0 120 l 1,7,-1
 120 120 l 1,8,-1
 120 0 l 1,9,-1
 0 0 l 1,6,-1
0 600 m 1,10,-1
 0 720 l 1,11,-1
 0 840 l 1,12,-1
 120 840 l 1,13,-1
 120 720 l 1,14,-1
 120 600 l 1,15,-1
 0 600 l 1,10,-1
120 120 m 1,16,-1
 120 240 l 1,17,-1
 120 360 l 1,18,-1
 240 360 l 1,19,-1
 240 240 l 1,20,-1
 240 120 l 1,21,-1
 120 120 l 1,16,-1
240 360 m 1,22,-1
 240 480 l 1,23,-1
 360 480 l 1,24,-1
 360 360 l 1,25,-1
 240 360 l 1,22,-1
360 480 m 1,26,-1
 360 600 l 1,27,-1
 360 720 l 1,28,-1
 480 720 l 1,29,-1
 480 600 l 1,30,-1
 480 480 l 1,31,-1
 360 480 l 1,26,-1
480 720 m 1,32,-1
 480 840 l 1,33,-1
 600 840 l 1,34,-1
 600 720 l 1,35,-1
 480 720 l 1,32,-1
EndSplineSet
Validated: 5
EndChar

StartChar: ampersand
Encoding: 6 38 7
Width: 720
VWidth: 960
GlyphClass: 2
Flags: W
LayerCount: 2
Fore
SplineSet
480 0 m 1,0,-1
 480 120 l 1,1,-1
 600 120 l 1,2,-1
 600 0 l 1,3,-1
 480 0 l 1,0,-1
240 120 m 1,4,-1
 360 120 l 1,5,-1
 360 0 l 1,6,-1
 240 0 l 1,7,-1
 120 0 l 1,8,-1
 120 120 l 1,9,-1
 240 120 l 1,4,-1
480 120 m 1,10,-1
 360 120 l 1,11,-1
 360 240 l 1,12,-1
 240 240 l 1,13,-1
 240 360 l 1,14,-1
 120 360 l 1,15,-1
 120 240 l 1,16,-1
 120 120 l 1,17,-1
 0 120 l 1,18,-1
 0 240 l 1,19,-1
 0 360 l 1,20,-1
 120 360 l 1,21,-1
 120 480 l 1,22,-1
 240 480 l 1,23,-1
 240 600 l 1,24,-1
 360 600 l 1,25,-1
 360 480 l 1,26,-1
 360 360 l 1,27,-1
 480 360 l 1,28,-1
 480 240 l 1,29,-1
 480 120 l 1,10,-1
480 360 m 1,30,-1
 480 480 l 1,31,-1
 600 480 l 1,32,-1
 600 360 l 1,33,-1
 480 360 l 1,30,-1
360 600 m 1,34,-1
 360 720 l 1,35,-1
 480 720 l 1,36,-1
 480 600 l 1,37,-1
 360 600 l 1,34,-1
240 600 m 1,38,-1
 120 600 l 1,39,-1
 120 720 l 1,40,-1
 240 720 l 1,41,-1
 240 600 l 1,38,-1
360 720 m 1,42,-1
 240 720 l 1,43,-1
 240 840 l 1,44,-1
 360 840 l 1,45,-1
 360 720 l 1,42,-1
EndSplineSet
Validated: 5
EndChar

StartChar: quotesingle
Encoding: 7 39 8
Width: 720
VWidth: 960
GlyphClass: 2
Flags: W
LayerCount: 2
Fore
SplineSet
120 600 m 1,0,-1
 120 720 l 1,1,-1
 120 840 l 1,2,-1
 240 840 l 1,3,-1
 240 720 l 1,4,-1
 240 600 l 1,5,-1
 120 600 l 1,0,-1
EndSplineSet
Validated: 1
EndChar

StartChar: parenleft
Encoding: 8 40 9
Width: 720
VWidth: 960
GlyphClass: 2
Flags: W
LayerCount: 2
Fore
SplineSet
360 0 m 1,0,-1
 360 120 l 1,1,-1
 480 120 l 1,2,-1
 480 0 l 1,3,-1
 360 0 l 1,0,-1
360 120 m 1,4,-1
 240 120 l 1,5,-1
 240 240 l 1,6,-1
 360 240 l 1,7,-1
 360 120 l 1,4,-1
240 240 m 1,8,-1
 120 240 l 1,9,-1
 120 360 l 1,10,-1
 120 480 l 1,11,-1
 120 600 l 1,12,-1
 240 600 l 1,13,-1
 240 480 l 1,14,-1
 240 360 l 1,15,-1
 240 240 l 1,8,-1
240 600 m 1,16,-1
 240 720 l 1,17,-1
 360 720 l 1,18,-1
 360 600 l 1,19,-1
 240 600 l 1,16,-1
360 720 m 1,20,-1
 360 840 l 1,21,-1
 480 840 l 1,22,-1
 480 720 l 1,23,-1
 360 720 l 1,20,-1
EndSplineSet
Validated: 5
EndChar

StartChar: parenright
Encoding: 9 41 10
Width: 720
VWidth: 960
GlyphClass: 2
Flags: W
LayerCount: 2
Fore
SplineSet
120 0 m 1,0,-1
 120 120 l 1,1,-1
 240 120 l 1,2,-1
 240 0 l 1,3,-1
 120 0 l 1,0,-1
240 120 m 1,4,-1
 240 240 l 1,5,-1
 360 240 l 1,6,-1
 360 120 l 1,7,-1
 240 120 l 1,4,-1
360 240 m 1,8,-1
 360 360 l 1,9,-1
 360 480 l 1,10,-1
 360 600 l 1,11,-1
 480 600 l 1,12,-1
 480 480 l 1,13,-1
 480 360 l 1,14,-1
 480 240 l 1,15,-1
 360 240 l 1,8,-1
360 600 m 1,16,-1
 240 600 l 1,17,-1
 240 720 l 1,18,-1
 360 720 l 1,19,-1
 360 600 l 1,16,-1
240 720 m 1,20,-1
 120 720 l 1,21,-1
 120 840 l 1,22,-1
 240 840 l 1,23,-1
 240 720 l 1,20,-1
EndSplineSet
Validated: 5
EndChar

StartChar: asterisk
Encoding: 10 42 11
Width: 720
VWidth: 960
GlyphClass: 2
Flags: W
LayerCount: 2
Fore
SplineSet
360 480 m 1,0,-1
 360 600 l 1,1,-1
 480 600 l 1,2,-1
 480 480 l 1,3,-1
 360 480 l 1,0,-1
120 480 m 1,4,-1
 120 600 l 1,5,-1
 240 600 l 1,6,-1
 240 480 l 1,7,-1
 120 480 l 1,4,-1
360 600 m 1,8,-1
 240 600 l 1,9,-1
 240 720 l 1,10,-1
 360 720 l 1,11,-1
 360 600 l 1,8,-1
360 720 m 1,12,-1
 360 840 l 1,13,-1
 480 840 l 1,14,-1
 480 720 l 1,15,-1
 360 720 l 1,12,-1
240 720 m 1,16,-1
 120 720 l 1,17,-1
 120 840 l 1,18,-1
 240 840 l 1,19,-1
 240 720 l 1,16,-1
EndSplineSet
Validated: 5
EndChar

StartChar: plus
Encoding: 11 43 12
Width: 720
VWidth: 960
GlyphClass: 2
Flags: W
LayerCount: 2
Fore
SplineSet
240 120 m 1,0,-1
 240 240 l 1,1,-1
 240 360 l 1,2,-1
 120 360 l 1,3,-1
 0 360 l 1,4,-1
 0 480 l 1,5,-1
 120 480 l 1,6,-1
 240 480 l 1,7,-1
 240 600 l 1,8,-1
 240 720 l 1,9,-1
 360 720 l 1,10,-1
 360 600 l 1,11,-1
 360 480 l 1,12,-1
 480 480 l 1,13,-1
 600 480 l 1,14,-1
 600 360 l 1,15,-1
 480 360 l 1,16,-1
 360 360 l 1,17,-1
 360 240 l 1,18,-1
 360 120 l 1,19,-1
 240 120 l 1,0,-1
EndSplineSet
Validated: 1
EndChar

StartChar: comma
Encoding: 12 44 13
Width: 720
VWidth: 960
GlyphClass: 2
Flags: W
LayerCount: 2
Fore
SplineSet
120 -120 m 1,0,-1
 120 0 l 1,1,-1
 240 0 l 1,2,-1
 240 -120 l 1,3,-1
 120 -120 l 1,0,-1
240 0 m 1,4,-1
 240 120 l 1,5,-1
 360 120 l 1,6,-1
 360 0 l 1,7,-1
 240 0 l 1,4,-1
EndSplineSet
Validated: 5
EndChar

StartChar: hyphen
Encoding: 13 45 14
Width: 720
VWidth: 960
GlyphClass: 2
Flags: W
LayerCount: 2
Fore
SplineSet
480 480 m 1,0,-1
 600 480 l 1,1,-1
 600 360 l 1,2,-1
 480 360 l 1,3,-1
 360 360 l 1,4,-1
 240 360 l 1,5,-1
 120 360 l 1,6,-1
 0 360 l 1,7,-1
 0 480 l 1,8,-1
 120 480 l 1,9,-1
 240 480 l 1,10,-1
 360 480 l 1,11,-1
 480 480 l 1,0,-1
EndSplineSet
Validated: 1
EndChar

StartChar: period
Encoding: 14 46 15
Width: 720
VWidth: 960
GlyphClass: 2
Flags: W
LayerCount: 2
Fore
SplineSet
240 0 m 1,0,-1
 240 120 l 1,1,-1
 360 120 l 1,2,-1
 360 0 l 1,3,-1
 240 0 l 1,0,-1
EndSplineSet
Validated: 1
EndChar

StartChar: slash
Encoding: 15 47 16
Width: 720
VWidth: 960
GlyphClass: 2
Flags: W
LayerCount: 2
Fore
SplineSet
0 0 m 1,0,-1
 0 120 l 1,1,-1
 120 120 l 1,2,-1
 120 0 l 1,3,-1
 0 0 l 1,0,-1
120 120 m 1,4,-1
 120 240 l 1,5,-1
 120 360 l 1,6,-1
 240 360 l 1,7,-1
 240 240 l 1,8,-1
 240 120 l 1,9,-1
 120 120 l 1,4,-1
240 360 m 1,10,-1
 240 480 l 1,11,-1
 360 480 l 1,12,-1
 360 360 l 1,13,-1
 240 360 l 1,10,-1
360 480 m 1,14,-1
 360 600 l 1,15,-1
 360 720 l 1,16,-1
 480 720 l 1,17,-1
 480 600 l 1,18,-1
 480 480 l 1,19,-1
 360 480 l 1,14,-1
480 720 m 1,20,-1
 480 840 l 1,21,-1
 600 840 l 1,22,-1
 600 720 l 1,23,-1
 480 720 l 1,20,-1
EndSplineSet
Validated: 5
EndChar

StartChar: zero
Encoding: 16 48 17
Width: 720
VWidth: 960
GlyphClass: 2
Flags: W
LayerCount: 2
Fore
SplineSet
360 120 m 1,0,-1
 480 120 l 1,1,-1
 480 0 l 1,2,-1
 360 0 l 1,3,-1
 240 0 l 1,4,-1
 120 0 l 1,5,-1
 120 120 l 1,6,-1
 240 120 l 1,7,-1
 360 120 l 1,0,-1
480 120 m 1,8,-1
 480 240 l 1,9,-1
 480 360 l 1,10,-1
 480 480 l 1,11,-1
 360 480 l 1,12,-1
 360 360 l 1,13,-1
 240 360 l 1,14,-1
 240 240 l 1,15,-1
 120 240 l 1,16,-1
 120 120 l 1,17,-1
 0 120 l 1,18,-1
 0 240 l 1,19,-1
 0 360 l 1,20,-1
 0 480 l 1,21,-1
 0 600 l 1,22,-1
 0 720 l 1,23,-1
 120 720 l 1,24,-1
 120 600 l 1,25,-1
 120 480 l 1,26,-1
 120 360 l 1,27,-1
 240 360 l 1,28,-1
 240 480 l 1,29,-1
 360 480 l 1,30,-1
 360 600 l 1,31,-1
 480 600 l 1,32,-1
 480 720 l 1,33,-1
 600 720 l 1,34,-1
 600 600 l 1,35,-1
 600 480 l 1,36,-1
 600 360 l 1,37,-1
 600 240 l 1,38,-1
 600 120 l 1,39,-1
 480 120 l 1,8,-1
480 720 m 1,40,-1
 360 720 l 1,41,-1
 240 720 l 1,42,-1
 120 720 l 1,43,-1
 120 840 l 1,44,-1
 240 840 l 1,45,-1
 360 840 l 1,46,-1
 480 840 l 1,47,-1
 480 720 l 1,40,-1
EndSplineSet
Validated: 5
EndChar

StartChar: one
Encoding: 17 49 18
Width: 720
VWidth: 960
GlyphClass: 2
Flags: W
LayerCount: 2
Fore
SplineSet
480 120 m 1,0,-1
 600 120 l 1,1,-1
 600 0 l 1,2,-1
 480 0 l 1,3,-1
 360 0 l 1,4,-1
 240 0 l 1,5,-1
 120 0 l 1,6,-1
 0 0 l 1,7,-1
 0 120 l 1,8,-1
 120 120 l 1,9,-1
 240 120 l 1,10,-1
 240 240 l 1,11,-1
 240 360 l 1,12,-1
 240 480 l 1,13,-1
 240 600 l 1,14,-1
 120 600 l 1,15,-1
 120 720 l 1,16,-1
 240 720 l 1,17,-1
 240 840 l 1,18,-1
 360 840 l 1,19,-1
 360 720 l 1,20,-1
 360 600 l 1,21,-1
 360 480 l 1,22,-1
 360 360 l 1,23,-1
 360 240 l 1,24,-1
 360 120 l 1,25,-1
 480 120 l 1,0,-1
EndSplineSet
Validated: 1
EndChar

StartChar: two
Encoding: 18 50 19
Width: 720
VWidth: 960
GlyphClass: 2
Flags: W
LayerCount: 2
Fore
SplineSet
0 600 m 1,0,-1
 0 720 l 1,1,-1
 120 720 l 1,2,-1
 120 600 l 1,3,-1
 0 600 l 1,0,-1
480 0 m 1,4,-1
 360 0 l 1,5,-1
 240 0 l 1,6,-1
 120 0 l 1,7,-1
 0 0 l 1,8,-1
 0 120 l 1,9,-1
 0 240 l 1,10,-1
 120 240 l 1,11,-1
 120 120 l 1,12,-1
 240 120 l 1,13,-1
 360 120 l 1,14,-1
 480 120 l 1,15,-1
 480 240 l 1,16,-1
 600 240 l 1,17,-1
 600 120 l 1,18,-1
 600 0 l 1,19,-1
 480 0 l 1,4,-1
120 240 m 1,20,-1
 120 360 l 1,21,-1
 240 360 l 1,22,-1
 240 240 l 1,23,-1
 120 240 l 1,20,-1
360 480 m 1,24,-1
 480 480 l 1,25,-1
 480 360 l 1,26,-1
 360 360 l 1,27,-1
 240 360 l 1,28,-1
 240 480 l 1,29,-1
 360 480 l 1,24,-1
480 480 m 1,30,-1
 480 600 l 1,31,-1
 480 720 l 1,32,-1
 600 720 l 1,33,-1
 600 600 l 1,34,-1
 600 480 l 1,35,-1
 480 480 l 1,30,-1
480 720 m 1,36,-1
 360 720 l 1,37,-1
 240 720 l 1,38,-1
 120 720 l 1,39,-1
 120 840 l 1,40,-1
 240 840 l 1,41,-1
 360 840 l 1,42,-1
 480 840 l 1,43,-1
 480 720 l 1,36,-1
EndSplineSet
Validated: 5
EndChar

StartChar: three
Encoding: 19 51 20
Width: 720
VWidth: 960
GlyphClass: 2
Flags: W
LayerCount: 2
Fore
SplineSet
0 600 m 1,0,-1
 0 720 l 1,1,-1
 120 720 l 1,2,-1
 120 600 l 1,3,-1
 0 600 l 1,0,-1
360 120 m 1,4,-1
 480 120 l 1,5,-1
 480 0 l 1,6,-1
 360 0 l 1,7,-1
 240 0 l 1,8,-1
 120 0 l 1,9,-1
 120 120 l 1,10,-1
 240 120 l 1,11,-1
 360 120 l 1,4,-1
480 120 m 1,12,-1
 480 240 l 1,13,-1
 480 360 l 1,14,-1
 600 360 l 1,15,-1
 600 240 l 1,16,-1
 600 120 l 1,17,-1
 480 120 l 1,12,-1
120 120 m 1,18,-1
 0 120 l 1,19,-1
 0 240 l 1,20,-1
 120 240 l 1,21,-1
 120 120 l 1,18,-1
480 360 m 1,22,-1
 360 360 l 1,23,-1
 240 360 l 1,24,-1
 240 480 l 1,25,-1
 360 480 l 1,26,-1
 480 480 l 1,27,-1
 480 360 l 1,22,-1
480 480 m 1,28,-1
 480 600 l 1,29,-1
 480 720 l 1,30,-1
 600 720 l 1,31,-1
 600 600 l 1,32,-1
 600 480 l 1,33,-1
 480 480 l 1,28,-1
480 720 m 1,34,-1
 360 720 l 1,35,-1
 240 720 l 1,36,-1
 120 720 l 1,37,-1
 120 840 l 1,38,-1
 240 840 l 1,39,-1
 360 840 l 1,40,-1
 480 840 l 1,41,-1
 480 720 l 1,34,-1
EndSplineSet
Validated: 5
EndChar

StartChar: four
Encoding: 20 52 21
Width: 720
VWidth: 960
GlyphClass: 2
Flags: W
LayerCount: 2
Fore
SplineSet
480 0 m 1,0,-1
 480 120 l 1,1,-1
 480 240 l 1,2,-1
 360 240 l 1,3,-1
 240 240 l 1,4,-1
 120 240 l 1,5,-1
 0 240 l 1,6,-1
 0 360 l 1,7,-1
 0 480 l 1,8,-1
 120 480 l 1,9,-1
 120 600 l 1,10,-1
 240 600 l 1,11,-1
 240 720 l 1,12,-1
 360 720 l 1,13,-1
 360 840 l 1,14,-1
 480 840 l 1,15,-1
 600 840 l 1,16,-1
 600 720 l 1,17,-1
 600 600 l 1,18,-1
 600 480 l 1,19,-1
 600 360 l 1,20,-1
 600 240 l 1,21,-1
 600 120 l 1,22,-1
 600 0 l 1,23,-1
 480 0 l 1,0,-1
360 360 m 1,24,-1
 480 360 l 1,25,-1
 480 480 l 1,26,-1
 480 600 l 1,27,-1
 480 720 l 1,28,-1
 360 720 l 1,29,-1
 360 600 l 1,30,-1
 240 600 l 1,31,-1
 240 480 l 1,32,-1
 120 480 l 1,33,-1
 120 360 l 1,34,-1
 240 360 l 1,35,-1
 360 360 l 1,24,-1
EndSplineSet
Validated: 5
EndChar

StartChar: five
Encoding: 21 53 22
Width: 720
VWidth: 960
GlyphClass: 2
Flags: W
LayerCount: 2
Fore
SplineSet
360 120 m 1,0,-1
 480 120 l 1,1,-1
 480 0 l 1,2,-1
 360 0 l 1,3,-1
 240 0 l 1,4,-1
 120 0 l 1,5,-1
 120 120 l 1,6,-1
 240 120 l 1,7,-1
 360 120 l 1,0,-1
480 120 m 1,8,-1
 480 240 l 1,9,-1
 480 360 l 1,10,-1
 480 480 l 1,11,-1
 600 480 l 1,12,-1
 600 360 l 1,13,-1
 600 240 l 1,14,-1
 600 120 l 1,15,-1
 480 120 l 1,8,-1
120 120 m 1,16,-1
 0 120 l 1,17,-1
 0 240 l 1,18,-1
 120 240 l 1,19,-1
 120 120 l 1,16,-1
480 480 m 1,20,-1
 360 480 l 1,21,-1
 240 480 l 1,22,-1
 120 480 l 1,23,-1
 0 480 l 1,24,-1
 0 600 l 1,25,-1
 0 720 l 1,26,-1
 0 840 l 1,27,-1
 120 840 l 1,28,-1
 240 840 l 1,29,-1
 360 840 l 1,30,-1
 480 840 l 1,31,-1
 600 840 l 1,32,-1
 600 720 l 1,33,-1
 480 720 l 1,34,-1
 360 720 l 1,35,-1
 240 720 l 1,36,-1
 120 720 l 1,37,-1
 120 600 l 1,38,-1
 240 600 l 1,39,-1
 360 600 l 1,40,-1
 480 600 l 1,41,-1
 480 480 l 1,20,-1
EndSplineSet
Validated: 5
EndChar

StartChar: six
Encoding: 22 54 23
Width: 720
VWidth: 960
GlyphClass: 2
Flags: W
LayerCount: 2
Fore
SplineSet
360 120 m 1,0,-1
 480 120 l 1,1,-1
 480 0 l 1,2,-1
 360 0 l 1,3,-1
 240 0 l 1,4,-1
 120 0 l 1,5,-1
 120 120 l 1,6,-1
 240 120 l 1,7,-1
 360 120 l 1,0,-1
480 120 m 1,8,-1
 480 240 l 1,9,-1
 480 360 l 1,10,-1
 600 360 l 1,11,-1
 600 240 l 1,12,-1
 600 120 l 1,13,-1
 480 120 l 1,8,-1
120 120 m 1,14,-1
 0 120 l 1,15,-1
 0 240 l 1,16,-1
 0 360 l 1,17,-1
 0 480 l 1,18,-1
 0 600 l 1,19,-1
 120 600 l 1,20,-1
 120 480 l 1,21,-1
 240 480 l 1,22,-1
 360 480 l 1,23,-1
 480 480 l 1,24,-1
 480 360 l 1,25,-1
 360 360 l 1,26,-1
 240 360 l 1,27,-1
 120 360 l 1,28,-1
 120 240 l 1,29,-1
 120 120 l 1,14,-1
120 600 m 1,30,-1
 120 720 l 1,31,-1
 240 720 l 1,32,-1
 240 600 l 1,33,-1
 120 600 l 1,30,-1
360 840 m 1,34,-1
 480 840 l 1,35,-1
 480 720 l 1,36,-1
 360 720 l 1,37,-1
 240 720 l 1,38,-1
 240 840 l 1,39,-1
 360 840 l 1,34,-1
EndSplineSet
Validated: 5
EndChar

StartChar: seven
Encoding: 23 55 24
Width: 720
VWidth: 960
GlyphClass: 2
Flags: W
LayerCount: 2
Fore
SplineSet
240 0 m 1,0,-1
 240 120 l 1,1,-1
 240 240 l 1,2,-1
 240 360 l 1,3,-1
 360 360 l 1,4,-1
 360 240 l 1,5,-1
 360 120 l 1,6,-1
 360 0 l 1,7,-1
 240 0 l 1,0,-1
0 600 m 1,8,-1
 0 720 l 1,9,-1
 0 840 l 1,10,-1
 120 840 l 1,11,-1
 240 840 l 1,12,-1
 360 840 l 1,13,-1
 480 840 l 1,14,-1
 600 840 l 1,15,-1
 600 720 l 1,16,-1
 600 600 l 1,17,-1
 600 480 l 1,18,-1
 480 480 l 1,19,-1
 480 360 l 1,20,-1
 360 360 l 1,21,-1
 360 480 l 1,22,-1
 480 480 l 1,23,-1
 480 600 l 1,24,-1
 480 720 l 1,25,-1
 360 720 l 1,26,-1
 240 720 l 1,27,-1
 120 720 l 1,28,-1
 120 600 l 1,29,-1
 0 600 l 1,8,-1
EndSplineSet
Validated: 5
EndChar

StartChar: eight
Encoding: 24 56 25
Width: 720
VWidth: 960
GlyphClass: 2
Flags: W
LayerCount: 2
Fore
SplineSet
360 120 m 1,0,-1
 480 120 l 1,1,-1
 480 0 l 1,2,-1
 360 0 l 1,3,-1
 240 0 l 1,4,-1
 120 0 l 1,5,-1
 120 120 l 1,6,-1
 240 120 l 1,7,-1
 360 120 l 1,0,-1
480 120 m 1,8,-1
 480 240 l 1,9,-1
 480 360 l 1,10,-1
 600 360 l 1,11,-1
 600 240 l 1,12,-1
 600 120 l 1,13,-1
 480 120 l 1,8,-1
120 120 m 1,14,-1
 0 120 l 1,15,-1
 0 240 l 1,16,-1
 0 360 l 1,17,-1
 120 360 l 1,18,-1
 120 240 l 1,19,-1
 120 120 l 1,14,-1
480 360 m 1,20,-1
 360 360 l 1,21,-1
 240 360 l 1,22,-1
 120 360 l 1,23,-1
 120 480 l 1,24,-1
 240 480 l 1,25,-1
 360 480 l 1,26,-1
 480 480 l 1,27,-1
 480 360 l 1,20,-1
480 480 m 1,28,-1
 480 600 l 1,29,-1
 480 720 l 1,30,-1
 600 720 l 1,31,-1
 600 600 l 1,32,-1
 600 480 l 1,33,-1
 480 480 l 1,28,-1
120 480 m 1,34,-1
 0 480 l 1,35,-1
 0 600 l 1,36,-1
 0 720 l 1,37,-1
 120 720 l 1,38,-1
 120 600 l 1,39,-1
 120 480 l 1,34,-1
480 720 m 1,40,-1
 360 720 l 1,41,-1
 240 720 l 1,42,-1
 120 720 l 1,43,-1
 120 840 l 1,44,-1
 240 840 l 1,45,-1
 360 840 l 1,46,-1
 480 840 l 1,47,-1
 480 720 l 1,40,-1
EndSplineSet
Validated: 5
EndChar

StartChar: nine
Encoding: 25 57 26
Width: 720
VWidth: 960
GlyphClass: 2
Flags: W
LayerCount: 2
Fore
SplineSet
240 120 m 1,0,-1
 360 120 l 1,1,-1
 360 0 l 1,2,-1
 240 0 l 1,3,-1
 120 0 l 1,4,-1
 120 120 l 1,5,-1
 240 120 l 1,0,-1
360 120 m 1,6,-1
 360 240 l 1,7,-1
 480 240 l 1,8,-1
 480 120 l 1,9,-1
 360 120 l 1,6,-1
480 240 m 1,10,-1
 480 360 l 1,11,-1
 360 360 l 1,12,-1
 240 360 l 1,13,-1
 120 360 l 1,14,-1
 120 480 l 1,15,-1
 240 480 l 1,16,-1
 360 480 l 1,17,-1
 480 480 l 1,18,-1
 480 600 l 1,19,-1
 480 720 l 1,20,-1
 600 720 l 1,21,-1
 600 600 l 1,22,-1
 600 480 l 1,23,-1
 600 360 l 1,24,-1
 600 240 l 1,25,-1
 480 240 l 1,10,-1
120 480 m 1,26,-1
 0 480 l 1,27,-1
 0 600 l 1,28,-1
 0 720 l 1,29,-1
 120 720 l 1,30,-1
 120 600 l 1,31,-1
 120 480 l 1,26,-1
480 720 m 1,32,-1
 360 720 l 1,33,-1
 240 720 l 1,34,-1
 120 720 l 1,35,-1
 120 840 l 1,36,-1
 240 840 l 1,37,-1
 360 840 l 1,38,-1
 480 840 l 1,39,-1
 480 720 l 1,32,-1
EndSplineSet
Validated: 5
EndChar

StartChar: colon
Encoding: 26 58 27
Width: 720
VWidth: 960
GlyphClass: 2
Flags: W
LayerCount: 2
Fore
SplineSet
240 0 m 1,0,-1
 240 120 l 1,1,-1
 360 120 l 1,2,-1
 360 0 l 1,3,-1
 240 0 l 1,0,-1
240 480 m 1,4,-1
 240 600 l 1,5,-1
 360 600 l 1,6,-1
 360 480 l 1,7,-1
 240 480 l 1,4,-1
EndSplineSet
Validated: 1
EndChar

StartChar: semicolon
Encoding: 27 59 28
Width: 720
VWidth: 960
GlyphClass: 2
Flags: W
LayerCount: 2
Fore
SplineSet
0 -120 m 1,0,-1
 0 0 l 1,1,-1
 120 0 l 1,2,-1
 120 -120 l 1,3,-1
 0 -120 l 1,0,-1
120 480 m 1,4,-1
 120 600 l 1,5,-1
 240 600 l 1,6,-1
 240 480 l 1,7,-1
 120 480 l 1,4,-1
120 0 m 1,8,-1
 120 120 l 1,9,-1
 240 120 l 1,10,-1
 240 0 l 1,11,-1
 120 0 l 1,8,-1
EndSplineSet
Validated: 5
EndChar

StartChar: less
Encoding: 28 60 29
Width: 720
VWidth: 960
GlyphClass: 2
Flags: W
LayerCount: 2
Fore
SplineSet
360 0 m 1,0,-1
 360 120 l 1,1,-1
 480 120 l 1,2,-1
 480 0 l 1,3,-1
 360 0 l 1,0,-1
360 120 m 1,4,-1
 240 120 l 1,5,-1
 240 240 l 1,6,-1
 360 240 l 1,7,-1
 360 120 l 1,4,-1
240 240 m 1,8,-1
 120 240 l 1,9,-1
 120 360 l 1,10,-1
 240 360 l 1,11,-1
 240 240 l 1,8,-1
120 360 m 1,12,-1
 0 360 l 1,13,-1
 0 480 l 1,14,-1
 120 480 l 1,15,-1
 120 360 l 1,12,-1
120 480 m 1,16,-1
 120 600 l 1,17,-1
 240 600 l 1,18,-1
 240 480 l 1,19,-1
 120 480 l 1,16,-1
240 600 m 1,20,-1
 240 720 l 1,21,-1
 360 720 l 1,22,-1
 360 600 l 1,23,-1
 240 600 l 1,20,-1
360 720 m 1,24,-1
 360 840 l 1,25,-1
 480 840 l 1,26,-1
 480 720 l 1,27,-1
 360 720 l 1,24,-1
EndSplineSet
Validated: 5
EndChar

StartChar: equal
Encoding: 29 61 30
Width: 720
VWidth: 960
GlyphClass: 2
Flags: W
LayerCount: 2
Fore
SplineSet
480 240 m 1,0,-1
 600 240 l 1,1,-1
 600 120 l 1,2,-1
 480 120 l 1,3,-1
 360 120 l 1,4,-1
 240 120 l 1,5,-1
 120 120 l 1,6,-1
 0 120 l 1,7,-1
 0 240 l 1,8,-1
 120 240 l 1,9,-1
 240 240 l 1,10,-1
 360 240 l 1,11,-1
 480 240 l 1,0,-1
480 600 m 1,12,-1
 600 600 l 1,13,-1
 600 480 l 1,14,-1
 480 480 l 1,15,-1
 360 480 l 1,16,-1
 240 480 l 1,17,-1
 120 480 l 1,18,-1
 0 480 l 1,19,-1
 0 600 l 1,20,-1
 120 600 l 1,21,-1
 240 600 l 1,22,-1
 360 600 l 1,23,-1
 480 600 l 1,12,-1
EndSplineSet
Validated: 1
EndChar

StartChar: greater
Encoding: 30 62 31
Width: 720
VWidth: 960
GlyphClass: 2
Flags: W
LayerCount: 2
Fore
SplineSet
120 0 m 1,0,-1
 120 120 l 1,1,-1
 240 120 l 1,2,-1
 240 0 l 1,3,-1
 120 0 l 1,0,-1
240 120 m 1,4,-1
 240 240 l 1,5,-1
 360 240 l 1,6,-1
 360 120 l 1,7,-1
 240 120 l 1,4,-1
360 240 m 1,8,-1
 360 360 l 1,9,-1
 480 360 l 1,10,-1
 480 240 l 1,11,-1
 360 240 l 1,8,-1
480 360 m 1,12,-1
 480 480 l 1,13,-1
 600 480 l 1,14,-1
 600 360 l 1,15,-1
 480 360 l 1,12,-1
480 480 m 1,16,-1
 360 480 l 1,17,-1
 360 600 l 1,18,-1
 480 600 l 1,19,-1
 480 480 l 1,16,-1
360 600 m 1,20,-1
 240 600 l 1,21,-1
 240 720 l 1,22,-1
 360 720 l 1,23,-1
 360 600 l 1,20,-1
240 720 m 1,24,-1
 120 720 l 1,25,-1
 120 840 l 1,26,-1
 240 840 l 1,27,-1
 240 720 l 1,24,-1
EndSplineSet
Validated: 5
EndChar

StartChar: question
Encoding: 31 63 32
Width: 720
VWidth: 960
GlyphClass: 2
Flags: W
LayerCount: 2
Fore
SplineSet
240 0 m 1,0,-1
 240 120 l 1,1,-1
 360 120 l 1,2,-1
 360 0 l 1,3,-1
 240 0 l 1,0,-1
240 240 m 1,4,-1
 240 360 l 1,5,-1
 360 360 l 1,6,-1
 360 240 l 1,7,-1
 240 240 l 1,4,-1
0 600 m 1,8,-1
 0 720 l 1,9,-1
 120 720 l 1,10,-1
 120 600 l 1,11,-1
 0 600 l 1,8,-1
360 360 m 1,12,-1
 360 480 l 1,13,-1
 480 480 l 1,14,-1
 480 360 l 1,15,-1
 360 360 l 1,12,-1
480 480 m 1,16,-1
 480 600 l 1,17,-1
 480 720 l 1,18,-1
 600 720 l 1,19,-1
 600 600 l 1,20,-1
 600 480 l 1,21,-1
 480 480 l 1,16,-1
480 720 m 1,22,-1
 360 720 l 1,23,-1
 240 720 l 1,24,-1
 120 720 l 1,25,-1
 120 840 l 1,26,-1
 240 840 l 1,27,-1
 360 840 l 1,28,-1
 480 840 l 1,29,-1
 480 720 l 1,22,-1
EndSplineSet
Validated: 5
EndChar

StartChar: at
Encoding: 32 64 33
Width: 720
VWidth: 960
GlyphClass: 2
Flags: W
LayerCount: 2
Fore
SplineSet
480 0 m 1,0,-1
 600 0 l 1,1,-1
 600 -120 l 1,2,-1
 480 -120 l 1,3,-1
 360 -120 l 1,4,-1
 240 -120 l 1,5,-1
 120 -120 l 1,6,-1
 120 0 l 1,7,-1
 240 0 l 1,8,-1
 360 0 l 1,9,-1
 480 0 l 1,0,-1
120 0 m 1,10,-1
 0 0 l 1,11,-1
 0 120 l 1,12,-1
 0 240 l 1,13,-1
 0 360 l 1,14,-1
 0 480 l 1,15,-1
 0 600 l 1,16,-1
 120 600 l 1,17,-1
 120 480 l 1,18,-1
 120 360 l 1,19,-1
 120 240 l 1,20,-1
 120 120 l 1,21,-1
 120 0 l 1,10,-1
480 120 m 1,22,-1
 360 120 l 1,23,-1
 240 120 l 1,24,-1
 240 240 l 1,25,-1
 240 360 l 1,26,-1
 240 480 l 1,27,-1
 360 480 l 1,28,-1
 360 360 l 1,29,-1
 360 240 l 1,30,-1
 480 240 l 1,31,-1
 480 360 l 1,32,-1
 480 480 l 1,33,-1
 480 600 l 1,34,-1
 600 600 l 1,35,-1
 600 480 l 1,36,-1
 600 360 l 1,37,-1
 600 240 l 1,38,-1
 600 120 l 1,39,-1
 480 120 l 1,22,-1
480 600 m 1,40,-1
 360 600 l 1,41,-1
 240 600 l 1,42,-1
 120 600 l 1,43,-1
 120 720 l 1,44,-1
 240 720 l 1,45,-1
 360 720 l 1,46,-1
 480 720 l 1,47,-1
 480 600 l 1,40,-1
EndSplineSet
Validated: 5
EndChar

StartChar: A
Encoding: 33 65 34
Width: 720
VWidth: 960
GlyphClass: 2
Flags: W
LayerCount: 2
Fore
SplineSet
480 0 m 1,0,-1
 480 120 l 1,1,-1
 480 240 l 1,2,-1
 480 360 l 1,3,-1
 480 480 l 1,4,-1
 360 480 l 1,5,-1
 240 480 l 1,6,-1
 120 480 l 1,7,-1
 120 360 l 1,8,-1
 120 240 l 1,9,-1
 120 120 l 1,10,-1
 120 0 l 1,11,-1
 0 0 l 1,12,-1
 0 120 l 1,13,-1
 0 240 l 1,14,-1
 0 360 l 1,15,-1
 0 480 l 1,16,-1
 0 600 l 1,17,-1
 0 720 l 1,18,-1
 120 720 l 1,19,-1
 120 600 l 1,20,-1
 240 600 l 1,21,-1
 360 600 l 1,22,-1
 480 600 l 1,23,-1
 480 720 l 1,24,-1
 600 720 l 1,25,-1
 600 600 l 1,26,-1
 600 480 l 1,27,-1
 600 360 l 1,28,-1
 600 240 l 1,29,-1
 600 120 l 1,30,-1
 600 0 l 1,31,-1
 480 0 l 1,0,-1
480 720 m 1,32,-1
 360 720 l 1,33,-1
 240 720 l 1,34,-1
 120 720 l 1,35,-1
 120 840 l 1,36,-1
 240 840 l 1,37,-1
 360 840 l 1,38,-1
 480 840 l 1,39,-1
 480 720 l 1,32,-1
EndSplineSet
Validated: 5
EndChar

StartChar: B
Encoding: 34 66 35
Width: 720
VWidth: 960
GlyphClass: 2
Flags: W
LayerCount: 2
Fore
SplineSet
360 120 m 1,0,-1
 480 120 l 1,1,-1
 480 240 l 1,2,-1
 480 360 l 1,3,-1
 480 480 l 1,4,-1
 360 480 l 1,5,-1
 240 480 l 1,6,-1
 120 480 l 1,7,-1
 120 360 l 1,8,-1
 120 240 l 1,9,-1
 120 120 l 1,10,-1
 240 120 l 1,11,-1
 360 120 l 1,0,-1
360 0 m 1,12,-1
 240 0 l 1,13,-1
 120 0 l 1,14,-1
 0 0 l 1,15,-1
 0 120 l 1,16,-1
 0 240 l 1,17,-1
 0 360 l 1,18,-1
 0 480 l 1,19,-1
 0 600 l 1,20,-1
 0 720 l 1,21,-1
 0 840 l 1,22,-1
 120 840 l 1,23,-1
 240 840 l 1,24,-1
 360 840 l 1,25,-1
 480 840 l 1,26,-1
 480 720 l 1,27,-1
 600 720 l 1,28,-1
 600 600 l 1,29,-1
 480 600 l 1,30,-1
 480 720 l 1,31,-1
 360 720 l 1,32,-1
 240 720 l 1,33,-1
 120 720 l 1,34,-1
 120 600 l 1,35,-1
 240 600 l 1,36,-1
 360 600 l 1,37,-1
 480 600 l 1,38,-1
 480 480 l 1,39,-1
 600 480 l 1,40,-1
 600 360 l 1,41,-1
 600 240 l 1,42,-1
 600 120 l 1,43,-1
 480 120 l 1,44,-1
 480 0 l 1,45,-1
 360 0 l 1,12,-1
EndSplineSet
Validated: 5
EndChar

StartChar: C
Encoding: 35 67 36
Width: 720
VWidth: 960
GlyphClass: 2
Flags: W
LayerCount: 2
Fore
SplineSet
480 600 m 1,0,-1
 480 720 l 1,1,-1
 600 720 l 1,2,-1
 600 600 l 1,3,-1
 480 600 l 1,0,-1
360 120 m 1,4,-1
 480 120 l 1,5,-1
 480 0 l 1,6,-1
 360 0 l 1,7,-1
 240 0 l 1,8,-1
 120 0 l 1,9,-1
 120 120 l 1,10,-1
 240 120 l 1,11,-1
 360 120 l 1,4,-1
480 120 m 1,12,-1
 480 240 l 1,13,-1
 600 240 l 1,14,-1
 600 120 l 1,15,-1
 480 120 l 1,12,-1
120 120 m 1,16,-1
 0 120 l 1,17,-1
 0 240 l 1,18,-1
 0 360 l 1,19,-1
 0 480 l 1,20,-1
 0 600 l 1,21,-1
 0 720 l 1,22,-1
 120 720 l 1,23,-1
 120 600 l 1,24,-1
 120 480 l 1,25,-1
 120 360 l 1,26,-1
 120 240 l 1,27,-1
 120 120 l 1,16,-1
480 720 m 1,28,-1
 360 720 l 1,29,-1
 240 720 l 1,30,-1
 120 720 l 1,31,-1
 120 840 l 1,32,-1
 240 840 l 1,33,-1
 360 840 l 1,34,-1
 480 840 l 1,35,-1
 480 720 l 1,28,-1
EndSplineSet
Validated: 5
EndChar

StartChar: D
Encoding: 36 68 37
Width: 720
VWidth: 960
GlyphClass: 2
Flags: W
LayerCount: 2
Fore
SplineSet
360 120 m 1,0,-1
 480 120 l 1,1,-1
 480 240 l 1,2,-1
 480 360 l 1,3,-1
 480 480 l 1,4,-1
 480 600 l 1,5,-1
 480 720 l 1,6,-1
 360 720 l 1,7,-1
 240 720 l 1,8,-1
 120 720 l 1,9,-1
 120 600 l 1,10,-1
 120 480 l 1,11,-1
 120 360 l 1,12,-1
 120 240 l 1,13,-1
 120 120 l 1,14,-1
 240 120 l 1,15,-1
 360 120 l 1,0,-1
360 0 m 1,16,-1
 240 0 l 1,17,-1
 120 0 l 1,18,-1
 0 0 l 1,19,-1
 0 120 l 1,20,-1
 0 240 l 1,21,-1
 0 360 l 1,22,-1
 0 480 l 1,23,-1
 0 600 l 1,24,-1
 0 720 l 1,25,-1
 0 840 l 1,26,-1
 120 840 l 1,27,-1
 240 840 l 1,28,-1
 360 840 l 1,29,-1
 480 840 l 1,30,-1
 480 720 l 1,31,-1
 600 720 l 1,32,-1
 600 600 l 1,33,-1
 600 480 l 1,34,-1
 600 360 l 1,35,-1
 600 240 l 1,36,-1
 600 120 l 1,37,-1
 480 120 l 1,38,-1
 480 0 l 1,39,-1
 360 0 l 1,16,-1
EndSplineSet
Validated: 5
EndChar

StartChar: E
Encoding: 37 69 38
Width: 720
VWidth: 960
GlyphClass: 2
Flags: W
LayerCount: 2
Fore
SplineSet
480 120 m 1,0,-1
 600 120 l 1,1,-1
 600 0 l 1,2,-1
 480 0 l 1,3,-1
 360 0 l 1,4,-1
 240 0 l 1,5,-1
 120 0 l 1,6,-1
 0 0 l 1,7,-1
 0 120 l 1,8,-1
 0 240 l 1,9,-1
 0 360 l 1,10,-1
 0 480 l 1,11,-1
 0 600 l 1,12,-1
 0 720 l 1,13,-1
 0 840 l 1,14,-1
 120 840 l 1,15,-1
 240 840 l 1,16,-1
 360 840 l 1,17,-1
 480 840 l 1,18,-1
 600 840 l 1,19,-1
 600 720 l 1,20,-1
 480 720 l 1,21,-1
 360 720 l 1,22,-1
 240 720 l 1,23,-1
 120 720 l 1,24,-1
 120 600 l 1,25,-1
 240 600 l 1,26,-1
 360 600 l 1,27,-1
 360 480 l 1,28,-1
 240 480 l 1,29,-1
 120 480 l 1,30,-1
 120 360 l 1,31,-1
 120 240 l 1,32,-1
 120 120 l 1,33,-1
 240 120 l 1,34,-1
 360 120 l 1,35,-1
 480 120 l 1,0,-1
EndSplineSet
Validated: 1
EndChar

StartChar: F
Encoding: 38 70 39
Width: 720
VWidth: 960
GlyphClass: 2
Flags: W
LayerCount: 2
Fore
SplineSet
0 0 m 1,0,-1
 0 120 l 1,1,-1
 0 240 l 1,2,-1
 0 360 l 1,3,-1
 0 480 l 1,4,-1
 0 600 l 1,5,-1
 0 720 l 1,6,-1
 0 840 l 1,7,-1
 120 840 l 1,8,-1
 240 840 l 1,9,-1
 360 840 l 1,10,-1
 480 840 l 1,11,-1
 600 840 l 1,12,-1
 600 720 l 1,13,-1
 480 720 l 1,14,-1
 360 720 l 1,15,-1
 240 720 l 1,16,-1
 120 720 l 1,17,-1
 120 600 l 1,18,-1
 240 600 l 1,19,-1
 360 600 l 1,20,-1
 360 480 l 1,21,-1
 240 480 l 1,22,-1
 120 480 l 1,23,-1
 120 360 l 1,24,-1
 120 240 l 1,25,-1
 120 120 l 1,26,-1
 120 0 l 1,27,-1
 0 0 l 1,0,-1
EndSplineSet
Validated: 1
EndChar

StartChar: G
Encoding: 39 71 40
Width: 720
VWidth: 960
GlyphClass: 2
Flags: W
LayerCount: 2
Fore
SplineSet
360 120 m 1,0,-1
 480 120 l 1,1,-1
 480 0 l 1,2,-1
 360 0 l 1,3,-1
 240 0 l 1,4,-1
 120 0 l 1,5,-1
 120 120 l 1,6,-1
 240 120 l 1,7,-1
 360 120 l 1,0,-1
480 120 m 1,8,-1
 480 240 l 1,9,-1
 480 360 l 1,10,-1
 480 480 l 1,11,-1
 360 480 l 1,12,-1
 360 600 l 1,13,-1
 480 600 l 1,14,-1
 600 600 l 1,15,-1
 600 480 l 1,16,-1
 600 360 l 1,17,-1
 600 240 l 1,18,-1
 600 120 l 1,19,-1
 480 120 l 1,8,-1
120 120 m 1,20,-1
 0 120 l 1,21,-1
 0 240 l 1,22,-1
 0 360 l 1,23,-1
 0 480 l 1,24,-1
 0 600 l 1,25,-1
 0 720 l 1,26,-1
 120 720 l 1,27,-1
 120 600 l 1,28,-1
 120 480 l 1,29,-1
 120 360 l 1,30,-1
 120 240 l 1,31,-1
 120 120 l 1,20,-1
480 840 m 1,32,-1
 600 840 l 1,33,-1
 600 720 l 1,34,-1
 480 720 l 1,35,-1
 360 720 l 1,36,-1
 240 720 l 1,37,-1
 120 720 l 1,38,-1
 120 840 l 1,39,-1
 240 840 l 1,40,-1
 360 840 l 1,41,-1
 480 840 l 1,32,-1
EndSplineSet
Validated: 5
EndChar

StartChar: H
Encoding: 40 72 41
Width: 720
VWidth: 960
GlyphClass: 2
Flags: W
LayerCount: 2
Fore
SplineSet
480 0 m 1,0,-1
 480 120 l 1,1,-1
 480 240 l 1,2,-1
 480 360 l 1,3,-1
 480 480 l 1,4,-1
 360 480 l 1,5,-1
 240 480 l 1,6,-1
 120 480 l 1,7,-1
 120 360 l 1,8,-1
 120 240 l 1,9,-1
 120 120 l 1,10,-1
 120 0 l 1,11,-1
 0 0 l 1,12,-1
 0 120 l 1,13,-1
 0 240 l 1,14,-1
 0 360 l 1,15,-1
 0 480 l 1,16,-1
 0 600 l 1,17,-1
 0 720 l 1,18,-1
 0 840 l 1,19,-1
 120 840 l 1,20,-1
 120 720 l 1,21,-1
 120 600 l 1,22,-1
 240 600 l 1,23,-1
 360 600 l 1,24,-1
 480 600 l 1,25,-1
 480 720 l 1,26,-1
 480 840 l 1,27,-1
 600 840 l 1,28,-1
 600 720 l 1,29,-1
 600 600 l 1,30,-1
 600 480 l 1,31,-1
 600 360 l 1,32,-1
 600 240 l 1,33,-1
 600 120 l 1,34,-1
 600 0 l 1,35,-1
 480 0 l 1,0,-1
EndSplineSet
Validated: 1
EndChar

StartChar: I
Encoding: 41 73 42
Width: 720
VWidth: 960
GlyphClass: 2
Flags: W
LayerCount: 2
Fore
SplineSet
360 0 m 1,0,-1
 240 0 l 1,1,-1
 120 0 l 1,2,-1
 120 120 l 1,3,-1
 240 120 l 1,4,-1
 240 240 l 1,5,-1
 240 360 l 1,6,-1
 240 480 l 1,7,-1
 240 600 l 1,8,-1
 240 720 l 1,9,-1
 120 720 l 1,10,-1
 120 840 l 1,11,-1
 240 840 l 1,12,-1
 360 840 l 1,13,-1
 480 840 l 1,14,-1
 480 720 l 1,15,-1
 360 720 l 1,16,-1
 360 600 l 1,17,-1
 360 480 l 1,18,-1
 360 360 l 1,19,-1
 360 240 l 1,20,-1
 360 120 l 1,21,-1
 480 120 l 1,22,-1
 480 0 l 1,23,-1
 360 0 l 1,0,-1
EndSplineSet
Validated: 1
EndChar

StartChar: J
Encoding: 42 74 43
Width: 720
VWidth: 960
GlyphClass: 2
Flags: W
LayerCount: 2
Fore
SplineSet
360 120 m 1,0,-1
 480 120 l 1,1,-1
 480 0 l 1,2,-1
 360 0 l 1,3,-1
 240 0 l 1,4,-1
 120 0 l 1,5,-1
 120 120 l 1,6,-1
 240 120 l 1,7,-1
 360 120 l 1,0,-1
480 120 m 1,8,-1
 480 240 l 1,9,-1
 480 360 l 1,10,-1
 480 480 l 1,11,-1
 480 600 l 1,12,-1
 480 720 l 1,13,-1
 480 840 l 1,14,-1
 600 840 l 1,15,-1
 600 720 l 1,16,-1
 600 600 l 1,17,-1
 600 480 l 1,18,-1
 600 360 l 1,19,-1
 600 240 l 1,20,-1
 600 120 l 1,21,-1
 480 120 l 1,8,-1
120 120 m 1,22,-1
 0 120 l 1,23,-1
 0 240 l 1,24,-1
 120 240 l 1,25,-1
 120 120 l 1,22,-1
EndSplineSet
Validated: 5
EndChar

StartChar: K
Encoding: 43 75 44
Width: 720
VWidth: 960
GlyphClass: 2
Flags: W
LayerCount: 2
Fore
SplineSet
480 0 m 1,0,-1
 480 120 l 1,1,-1
 480 240 l 1,2,-1
 480 360 l 1,3,-1
 600 360 l 1,4,-1
 600 240 l 1,5,-1
 600 120 l 1,6,-1
 600 0 l 1,7,-1
 480 0 l 1,0,-1
0 0 m 1,8,-1
 0 120 l 1,9,-1
 0 240 l 1,10,-1
 0 360 l 1,11,-1
 0 480 l 1,12,-1
 0 600 l 1,13,-1
 0 720 l 1,14,-1
 0 840 l 1,15,-1
 120 840 l 1,16,-1
 120 720 l 1,17,-1
 120 600 l 1,18,-1
 240 600 l 1,19,-1
 360 600 l 1,20,-1
 360 480 l 1,21,-1
 480 480 l 1,22,-1
 480 360 l 1,23,-1
 360 360 l 1,24,-1
 360 480 l 1,25,-1
 240 480 l 1,26,-1
 120 480 l 1,27,-1
 120 360 l 1,28,-1
 120 240 l 1,29,-1
 120 120 l 1,30,-1
 120 0 l 1,31,-1
 0 0 l 1,8,-1
360 600 m 1,32,-1
 360 720 l 1,33,-1
 480 720 l 1,34,-1
 480 600 l 1,35,-1
 360 600 l 1,32,-1
480 720 m 1,36,-1
 480 840 l 1,37,-1
 600 840 l 1,38,-1
 600 720 l 1,39,-1
 480 720 l 1,36,-1
EndSplineSet
Validated: 5
EndChar

StartChar: L
Encoding: 44 76 45
Width: 720
VWidth: 960
GlyphClass: 2
Flags: W
LayerCount: 2
Fore
SplineSet
480 120 m 1,0,-1
 600 120 l 1,1,-1
 600 0 l 1,2,-1
 480 0 l 1,3,-1
 360 0 l 1,4,-1
 240 0 l 1,5,-1
 120 0 l 1,6,-1
 0 0 l 1,7,-1
 0 120 l 1,8,-1
 0 240 l 1,9,-1
 0 360 l 1,10,-1
 0 480 l 1,11,-1
 0 600 l 1,12,-1
 0 720 l 1,13,-1
 0 840 l 1,14,-1
 120 840 l 1,15,-1
 120 720 l 1,16,-1
 120 600 l 1,17,-1
 120 480 l 1,18,-1
 120 360 l 1,19,-1
 120 240 l 1,20,-1
 120 120 l 1,21,-1
 240 120 l 1,22,-1
 360 120 l 1,23,-1
 480 120 l 1,0,-1
EndSplineSet
Validated: 1
EndChar

StartChar: M
Encoding: 45 77 46
Width: 720
VWidth: 960
GlyphClass: 2
Flags: W
LayerCount: 2
Fore
SplineSet
480 0 m 1,0,-1
 480 120 l 1,1,-1
 480 240 l 1,2,-1
 480 360 l 1,3,-1
 480 480 l 1,4,-1
 480 600 l 1,5,-1
 360 600 l 1,6,-1
 360 480 l 1,7,-1
 240 480 l 1,8,-1
 240 600 l 1,9,-1
 360 600 l 1,10,-1
 360 720 l 1,11,-1
 480 720 l 1,12,-1
 480 840 l 1,13,-1
 600 840 l 1,14,-1
 600 720 l 1,15,-1
 600 600 l 1,16,-1
 600 480 l 1,17,-1
 600 360 l 1,18,-1
 600 240 l 1,19,-1
 600 120 l 1,20,-1
 600 0 l 1,21,-1
 480 0 l 1,0,-1
0 0 m 1,22,-1
 0 120 l 1,23,-1
 0 240 l 1,24,-1
 0 360 l 1,25,-1
 0 480 l 1,26,-1
 0 600 l 1,27,-1
 0 720 l 1,28,-1
 0 840 l 1,29,-1
 120 840 l 1,30,-1
 120 720 l 1,31,-1
 240 720 l 1,32,-1
 240 600 l 1,33,-1
 120 600 l 1,34,-1
 120 480 l 1,35,-1
 120 360 l 1,36,-1
 120 240 l 1,37,-1
 120 120 l 1,38,-1
 120 0 l 1,39,-1
 0 0 l 1,22,-1
EndSplineSet
Validated: 5
EndChar

StartChar: N
Encoding: 46 78 47
Width: 720
VWidth: 960
GlyphClass: 2
Flags: W
LayerCount: 2
Fore
SplineSet
480 0 m 1,0,-1
 480 120 l 1,1,-1
 480 240 l 1,2,-1
 480 360 l 1,3,-1
 360 360 l 1,4,-1
 360 480 l 1,5,-1
 480 480 l 1,6,-1
 480 600 l 1,7,-1
 480 720 l 1,8,-1
 480 840 l 1,9,-1
 600 840 l 1,10,-1
 600 720 l 1,11,-1
 600 600 l 1,12,-1
 600 480 l 1,13,-1
 600 360 l 1,14,-1
 600 240 l 1,15,-1
 600 120 l 1,16,-1
 600 0 l 1,17,-1
 480 0 l 1,0,-1
0 0 m 1,18,-1
 0 120 l 1,19,-1
 0 240 l 1,20,-1
 0 360 l 1,21,-1
 0 480 l 1,22,-1
 0 600 l 1,23,-1
 0 720 l 1,24,-1
 0 840 l 1,25,-1
 120 840 l 1,26,-1
 120 720 l 1,27,-1
 240 720 l 1,28,-1
 240 600 l 1,29,-1
 360 600 l 1,30,-1
 360 480 l 1,31,-1
 240 480 l 1,32,-1
 240 600 l 1,33,-1
 120 600 l 1,34,-1
 120 480 l 1,35,-1
 120 360 l 1,36,-1
 120 240 l 1,37,-1
 120 120 l 1,38,-1
 120 0 l 1,39,-1
 0 0 l 1,18,-1
EndSplineSet
Validated: 5
EndChar

StartChar: O
Encoding: 47 79 48
Width: 720
VWidth: 960
GlyphClass: 2
Flags: W
LayerCount: 2
Fore
SplineSet
360 120 m 1,0,-1
 480 120 l 1,1,-1
 480 0 l 1,2,-1
 360 0 l 1,3,-1
 240 0 l 1,4,-1
 120 0 l 1,5,-1
 120 120 l 1,6,-1
 240 120 l 1,7,-1
 360 120 l 1,0,-1
480 120 m 1,8,-1
 480 240 l 1,9,-1
 480 360 l 1,10,-1
 480 480 l 1,11,-1
 480 600 l 1,12,-1
 480 720 l 1,13,-1
 600 720 l 1,14,-1
 600 600 l 1,15,-1
 600 480 l 1,16,-1
 600 360 l 1,17,-1
 600 240 l 1,18,-1
 600 120 l 1,19,-1
 480 120 l 1,8,-1
120 120 m 1,20,-1
 0 120 l 1,21,-1
 0 240 l 1,22,-1
 0 360 l 1,23,-1
 0 480 l 1,24,-1
 0 600 l 1,25,-1
 0 720 l 1,26,-1
 120 720 l 1,27,-1
 120 600 l 1,28,-1
 120 480 l 1,29,-1
 120 360 l 1,30,-1
 120 240 l 1,31,-1
 120 120 l 1,20,-1
480 720 m 1,32,-1
 360 720 l 1,33,-1
 240 720 l 1,34,-1
 120 720 l 1,35,-1
 120 840 l 1,36,-1
 240 840 l 1,37,-1
 360 840 l 1,38,-1
 480 840 l 1,39,-1
 480 720 l 1,32,-1
EndSplineSet
Validated: 5
EndChar

StartChar: P
Encoding: 48 80 49
Width: 720
VWidth: 960
GlyphClass: 2
Flags: W
LayerCount: 2
Fore
SplineSet
0 0 m 1,0,-1
 0 120 l 1,1,-1
 0 240 l 1,2,-1
 0 360 l 1,3,-1
 0 480 l 1,4,-1
 0 600 l 1,5,-1
 0 720 l 1,6,-1
 0 840 l 1,7,-1
 120 840 l 1,8,-1
 240 840 l 1,9,-1
 360 840 l 1,10,-1
 480 840 l 1,11,-1
 480 720 l 1,12,-1
 600 720 l 1,13,-1
 600 600 l 1,14,-1
 480 600 l 1,15,-1
 480 720 l 1,16,-1
 360 720 l 1,17,-1
 240 720 l 1,18,-1
 120 720 l 1,19,-1
 120 600 l 1,20,-1
 240 600 l 1,21,-1
 360 600 l 1,22,-1
 480 600 l 1,23,-1
 480 480 l 1,24,-1
 360 480 l 1,25,-1
 240 480 l 1,26,-1
 120 480 l 1,27,-1
 120 360 l 1,28,-1
 120 240 l 1,29,-1
 120 120 l 1,30,-1
 120 0 l 1,31,-1
 0 0 l 1,0,-1
EndSplineSet
Validated: 5
EndChar

StartChar: Q
Encoding: 49 81 50
Width: 720
VWidth: 960
GlyphClass: 2
Flags: W
LayerCount: 2
Fore
SplineSet
480 0 m 1,0,-1
 480 120 l 1,1,-1
 600 120 l 1,2,-1
 600 0 l 1,3,-1
 480 0 l 1,0,-1
240 120 m 1,4,-1
 360 120 l 1,5,-1
 360 0 l 1,6,-1
 240 0 l 1,7,-1
 120 0 l 1,8,-1
 120 120 l 1,9,-1
 240 120 l 1,4,-1
480 120 m 1,10,-1
 360 120 l 1,11,-1
 360 240 l 1,12,-1
 480 240 l 1,13,-1
 480 120 l 1,10,-1
120 120 m 1,14,-1
 0 120 l 1,15,-1
 0 240 l 1,16,-1
 0 360 l 1,17,-1
 0 480 l 1,18,-1
 0 600 l 1,19,-1
 0 720 l 1,20,-1
 120 720 l 1,21,-1
 120 600 l 1,22,-1
 120 480 l 1,23,-1
 120 360 l 1,24,-1
 120 240 l 1,25,-1
 120 120 l 1,14,-1
480 240 m 1,26,-1
 480 360 l 1,27,-1
 480 480 l 1,28,-1
 480 600 l 1,29,-1
 480 720 l 1,30,-1
 600 720 l 1,31,-1
 600 600 l 1,32,-1
 600 480 l 1,33,-1
 600 360 l 1,34,-1
 600 240 l 1,35,-1
 480 240 l 1,26,-1
480 720 m 1,36,-1
 360 720 l 1,37,-1
 240 720 l 1,38,-1
 120 720 l 1,39,-1
 120 840 l 1,40,-1
 240 840 l 1,41,-1
 360 840 l 1,42,-1
 480 840 l 1,43,-1
 480 720 l 1,36,-1
EndSplineSet
Validated: 5
EndChar

StartChar: R
Encoding: 50 82 51
Width: 720
VWidth: 960
GlyphClass: 2
Flags: W
LayerCount: 2
Fore
SplineSet
480 0 m 1,0,-1
 480 120 l 1,1,-1
 480 240 l 1,2,-1
 480 360 l 1,3,-1
 480 480 l 1,4,-1
 600 480 l 1,5,-1
 600 360 l 1,6,-1
 600 240 l 1,7,-1
 600 120 l 1,8,-1
 600 0 l 1,9,-1
 480 0 l 1,0,-1
0 0 m 1,10,-1
 0 120 l 1,11,-1
 0 240 l 1,12,-1
 0 360 l 1,13,-1
 0 480 l 1,14,-1
 0 600 l 1,15,-1
 0 720 l 1,16,-1
 0 840 l 1,17,-1
 120 840 l 1,18,-1
 240 840 l 1,19,-1
 360 840 l 1,20,-1
 480 840 l 1,21,-1
 480 720 l 1,22,-1
 600 720 l 1,23,-1
 600 600 l 1,24,-1
 480 600 l 1,25,-1
 480 720 l 1,26,-1
 360 720 l 1,27,-1
 240 720 l 1,28,-1
 120 720 l 1,29,-1
 120 600 l 1,30,-1
 240 600 l 1,31,-1
 360 600 l 1,32,-1
 480 600 l 1,33,-1
 480 480 l 1,34,-1
 360 480 l 1,35,-1
 240 480 l 1,36,-1
 120 480 l 1,37,-1
 120 360 l 1,38,-1
 120 240 l 1,39,-1
 120 120 l 1,40,-1
 120 0 l 1,41,-1
 0 0 l 1,10,-1
EndSplineSet
Validated: 5
EndChar

StartChar: S
Encoding: 51 83 52
Width: 720
VWidth: 960
GlyphClass: 2
Flags: W
LayerCount: 2
Fore
SplineSet
360 120 m 1,0,-1
 480 120 l 1,1,-1
 480 0 l 1,2,-1
 360 0 l 1,3,-1
 240 0 l 1,4,-1
 120 0 l 1,5,-1
 120 120 l 1,6,-1
 240 120 l 1,7,-1
 360 120 l 1,0,-1
480 120 m 1,8,-1
 480 240 l 1,9,-1
 480 360 l 1,10,-1
 480 480 l 1,11,-1
 600 480 l 1,12,-1
 600 360 l 1,13,-1
 600 240 l 1,14,-1
 600 120 l 1,15,-1
 480 120 l 1,8,-1
120 120 m 1,16,-1
 0 120 l 1,17,-1
 0 240 l 1,18,-1
 120 240 l 1,19,-1
 120 120 l 1,16,-1
480 480 m 1,20,-1
 360 480 l 1,21,-1
 240 480 l 1,22,-1
 120 480 l 1,23,-1
 120 600 l 1,24,-1
 240 600 l 1,25,-1
 360 600 l 1,26,-1
 480 600 l 1,27,-1
 480 480 l 1,20,-1
120 600 m 1,28,-1
 0 600 l 1,29,-1
 0 720 l 1,30,-1
 120 720 l 1,31,-1
 120 600 l 1,28,-1
480 840 m 1,32,-1
 600 840 l 1,33,-1
 600 720 l 1,34,-1
 480 720 l 1,35,-1
 360 720 l 1,36,-1
 240 720 l 1,37,-1
 120 720 l 1,38,-1
 120 840 l 1,39,-1
 240 840 l 1,40,-1
 360 840 l 1,41,-1
 480 840 l 1,32,-1
EndSplineSet
Validated: 5
EndChar

StartChar: T
Encoding: 52 84 53
Width: 720
VWidth: 960
GlyphClass: 2
Flags: W
LayerCount: 2
Fore
SplineSet
240 0 m 1,0,-1
 240 120 l 1,1,-1
 240 240 l 1,2,-1
 240 360 l 1,3,-1
 240 480 l 1,4,-1
 240 600 l 1,5,-1
 240 720 l 1,6,-1
 120 720 l 1,7,-1
 0 720 l 1,8,-1
 0 840 l 1,9,-1
 120 840 l 1,10,-1
 240 840 l 1,11,-1
 360 840 l 1,12,-1
 480 840 l 1,13,-1
 600 840 l 1,14,-1
 600 720 l 1,15,-1
 480 720 l 1,16,-1
 360 720 l 1,17,-1
 360 600 l 1,18,-1
 360 480 l 1,19,-1
 360 360 l 1,20,-1
 360 240 l 1,21,-1
 360 120 l 1,22,-1
 360 0 l 1,23,-1
 240 0 l 1,0,-1
EndSplineSet
Validated: 1
EndChar

StartChar: U
Encoding: 53 85 54
Width: 720
VWidth: 960
GlyphClass: 2
Flags: W
LayerCount: 2
Fore
SplineSet
360 120 m 1,0,-1
 480 120 l 1,1,-1
 480 0 l 1,2,-1
 360 0 l 1,3,-1
 240 0 l 1,4,-1
 120 0 l 1,5,-1
 120 120 l 1,6,-1
 240 120 l 1,7,-1
 360 120 l 1,0,-1
480 120 m 1,8,-1
 480 240 l 1,9,-1
 480 360 l 1,10,-1
 480 480 l 1,11,-1
 480 600 l 1,12,-1
 480 720 l 1,13,-1
 480 840 l 1,14,-1
 600 840 l 1,15,-1
 600 720 l 1,16,-1
 600 600 l 1,17,-1
 600 480 l 1,18,-1
 600 360 l 1,19,-1
 600 240 l 1,20,-1
 600 120 l 1,21,-1
 480 120 l 1,8,-1
120 120 m 1,22,-1
 0 120 l 1,23,-1
 0 240 l 1,24,-1
 0 360 l 1,25,-1
 0 480 l 1,26,-1
 0 600 l 1,27,-1
 0 720 l 1,28,-1
 0 840 l 1,29,-1
 120 840 l 1,30,-1
 120 720 l 1,31,-1
 120 600 l 1,32,-1
 120 480 l 1,33,-1
 120 360 l 1,34,-1
 120 240 l 1,35,-1
 120 120 l 1,22,-1
EndSplineSet
Validated: 5
EndChar

StartChar: V
Encoding: 54 86 55
Width: 720
VWidth: 960
GlyphClass: 2
Flags: W
LayerCount: 2
Fore
SplineSet
240 0 m 1,0,-1
 240 120 l 1,1,-1
 360 120 l 1,2,-1
 360 0 l 1,3,-1
 240 0 l 1,0,-1
360 120 m 1,4,-1
 360 240 l 1,5,-1
 360 360 l 1,6,-1
 480 360 l 1,7,-1
 480 240 l 1,8,-1
 480 120 l 1,9,-1
 360 120 l 1,4,-1
240 120 m 1,10,-1
 120 120 l 1,11,-1
 120 240 l 1,12,-1
 120 360 l 1,13,-1
 240 360 l 1,14,-1
 240 240 l 1,15,-1
 240 120 l 1,10,-1
480 360 m 1,16,-1
 480 480 l 1,17,-1
 480 600 l 1,18,-1
 480 720 l 1,19,-1
 480 840 l 1,20,-1
 600 840 l 1,21,-1
 600 720 l 1,22,-1
 600 600 l 1,23,-1
 600 480 l 1,24,-1
 600 360 l 1,25,-1
 480 360 l 1,16,-1
120 360 m 1,26,-1
 0 360 l 1,27,-1
 0 480 l 1,28,-1
 0 600 l 1,29,-1
 0 720 l 1,30,-1
 0 840 l 1,31,-1
 120 840 l 1,32,-1
 120 720 l 1,33,-1
 120 600 l 1,34,-1
 120 480 l 1,35,-1
 120 360 l 1,26,-1
EndSplineSet
Validated: 5
EndChar

StartChar: W
Encoding: 55 87 56
Width: 720
VWidth: 960
GlyphClass: 2
Flags: W
LayerCount: 2
Fore
SplineSet
480 0 m 1,0,-1
 480 120 l 1,1,-1
 360 120 l 1,2,-1
 360 240 l 1,3,-1
 480 240 l 1,4,-1
 480 360 l 1,5,-1
 480 480 l 1,6,-1
 480 600 l 1,7,-1
 480 720 l 1,8,-1
 480 840 l 1,9,-1
 600 840 l 1,10,-1
 600 720 l 1,11,-1
 600 600 l 1,12,-1
 600 480 l 1,13,-1
 600 360 l 1,14,-1
 600 240 l 1,15,-1
 600 120 l 1,16,-1
 600 0 l 1,17,-1
 480 0 l 1,0,-1
0 0 m 1,18,-1
 0 120 l 1,19,-1
 0 240 l 1,20,-1
 0 360 l 1,21,-1
 0 480 l 1,22,-1
 0 600 l 1,23,-1
 0 720 l 1,24,-1
 0 840 l 1,25,-1
 120 840 l 1,26,-1
 120 720 l 1,27,-1
 120 600 l 1,28,-1
 120 480 l 1,29,-1
 120 360 l 1,30,-1
 120 240 l 1,31,-1
 240 240 l 1,32,-1
 240 120 l 1,33,-1
 120 120 l 1,34,-1
 120 0 l 1,35,-1
 0 0 l 1,18,-1
360 240 m 1,36,-1
 240 240 l 1,37,-1
 240 360 l 1,38,-1
 360 360 l 1,39,-1
 360 240 l 1,36,-1
EndSplineSet
Validated: 5
EndChar

StartChar: X
Encoding: 56 88 57
Width: 720
VWidth: 960
GlyphClass: 2
Flags: W
LayerCount: 2
Fore
SplineSet
480 0 m 1,0,-1
 480 120 l 1,1,-1
 480 240 l 1,2,-1
 480 360 l 1,3,-1
 600 360 l 1,4,-1
 600 240 l 1,5,-1
 600 120 l 1,6,-1
 600 0 l 1,7,-1
 480 0 l 1,0,-1
0 0 m 1,8,-1
 0 120 l 1,9,-1
 0 240 l 1,10,-1
 0 360 l 1,11,-1
 120 360 l 1,12,-1
 120 240 l 1,13,-1
 120 120 l 1,14,-1
 120 0 l 1,15,-1
 0 0 l 1,8,-1
480 360 m 1,16,-1
 360 360 l 1,17,-1
 360 480 l 1,18,-1
 480 480 l 1,19,-1
 480 360 l 1,16,-1
120 360 m 1,20,-1
 120 480 l 1,21,-1
 240 480 l 1,22,-1
 240 360 l 1,23,-1
 120 360 l 1,20,-1
360 480 m 1,24,-1
 240 480 l 1,25,-1
 240 600 l 1,26,-1
 360 600 l 1,27,-1
 360 480 l 1,24,-1
360 600 m 1,28,-1
 360 720 l 1,29,-1
 480 720 l 1,30,-1
 480 600 l 1,31,-1
 360 600 l 1,28,-1
240 600 m 1,32,-1
 120 600 l 1,33,-1
 120 720 l 1,34,-1
 240 720 l 1,35,-1
 240 600 l 1,32,-1
480 720 m 1,36,-1
 480 840 l 1,37,-1
 600 840 l 1,38,-1
 600 720 l 1,39,-1
 480 720 l 1,36,-1
120 720 m 1,40,-1
 0 720 l 1,41,-1
 0 840 l 1,42,-1
 120 840 l 1,43,-1
 120 720 l 1,40,-1
EndSplineSet
Validated: 5
EndChar

StartChar: Y
Encoding: 57 89 58
Width: 720
VWidth: 960
GlyphClass: 2
Flags: W
LayerCount: 2
Fore
SplineSet
240 0 m 1,0,-1
 240 120 l 1,1,-1
 240 240 l 1,2,-1
 240 360 l 1,3,-1
 240 480 l 1,4,-1
 240 600 l 1,5,-1
 360 600 l 1,6,-1
 360 480 l 1,7,-1
 360 360 l 1,8,-1
 360 240 l 1,9,-1
 360 120 l 1,10,-1
 360 0 l 1,11,-1
 240 0 l 1,0,-1
360 600 m 1,12,-1
 360 720 l 1,13,-1
 480 720 l 1,14,-1
 480 600 l 1,15,-1
 360 600 l 1,12,-1
240 600 m 1,16,-1
 120 600 l 1,17,-1
 120 720 l 1,18,-1
 240 720 l 1,19,-1
 240 600 l 1,16,-1
480 720 m 1,20,-1
 480 840 l 1,21,-1
 600 840 l 1,22,-1
 600 720 l 1,23,-1
 480 720 l 1,20,-1
120 720 m 1,24,-1
 0 720 l 1,25,-1
 0 840 l 1,26,-1
 120 840 l 1,27,-1
 120 720 l 1,24,-1
EndSplineSet
Validated: 5
EndChar

StartChar: Z
Encoding: 58 90 59
Width: 720
VWidth: 960
GlyphClass: 2
Flags: W
LayerCount: 2
Fore
SplineSet
480 120 m 1,0,-1
 600 120 l 1,1,-1
 600 0 l 1,2,-1
 480 0 l 1,3,-1
 360 0 l 1,4,-1
 240 0 l 1,5,-1
 120 0 l 1,6,-1
 0 0 l 1,7,-1
 0 120 l 1,8,-1
 0 240 l 1,9,-1
 120 240 l 1,10,-1
 120 120 l 1,11,-1
 240 120 l 1,12,-1
 360 120 l 1,13,-1
 480 120 l 1,0,-1
120 240 m 1,14,-1
 120 360 l 1,15,-1
 240 360 l 1,16,-1
 240 240 l 1,17,-1
 120 240 l 1,14,-1
240 360 m 1,18,-1
 240 480 l 1,19,-1
 360 480 l 1,20,-1
 360 360 l 1,21,-1
 240 360 l 1,18,-1
360 480 m 1,22,-1
 360 600 l 1,23,-1
 480 600 l 1,24,-1
 480 480 l 1,25,-1
 360 480 l 1,22,-1
480 600 m 1,26,-1
 480 720 l 1,27,-1
 360 720 l 1,28,-1
 240 720 l 1,29,-1
 120 720 l 1,30,-1
 0 720 l 1,31,-1
 0 840 l 1,32,-1
 120 840 l 1,33,-1
 240 840 l 1,34,-1
 360 840 l 1,35,-1
 480 840 l 1,36,-1
 600 840 l 1,37,-1
 600 720 l 1,38,-1
 600 600 l 1,39,-1
 480 600 l 1,26,-1
EndSplineSet
Validated: 5
EndChar

StartChar: bracketleft
Encoding: 59 91 60
Width: 720
VWidth: 960
GlyphClass: 2
Flags: W
LayerCount: 2
Fore
SplineSet
360 120 m 1,0,-1
 480 120 l 1,1,-1
 480 0 l 1,2,-1
 360 0 l 1,3,-1
 240 0 l 1,4,-1
 120 0 l 1,5,-1
 120 120 l 1,6,-1
 120 240 l 1,7,-1
 120 360 l 1,8,-1
 120 480 l 1,9,-1
 120 600 l 1,10,-1
 120 720 l 1,11,-1
 120 840 l 1,12,-1
 240 840 l 1,13,-1
 360 840 l 1,14,-1
 480 840 l 1,15,-1
 480 720 l 1,16,-1
 360 720 l 1,17,-1
 240 720 l 1,18,-1
 240 600 l 1,19,-1
 240 480 l 1,20,-1
 240 360 l 1,21,-1
 240 240 l 1,22,-1
 240 120 l 1,23,-1
 360 120 l 1,0,-1
EndSplineSet
Validated: 1
EndChar

StartChar: backslash
Encoding: 60 92 61
Width: 720
VWidth: 960
GlyphClass: 2
Flags: W
LayerCount: 2
Fore
SplineSet
480 0 m 1,0,-1
 480 120 l 1,1,-1
 600 120 l 1,2,-1
 600 0 l 1,3,-1
 480 0 l 1,0,-1
480 120 m 1,4,-1
 360 120 l 1,5,-1
 360 240 l 1,6,-1
 360 360 l 1,7,-1
 480 360 l 1,8,-1
 480 240 l 1,9,-1
 480 120 l 1,4,-1
360 360 m 1,10,-1
 240 360 l 1,11,-1
 240 480 l 1,12,-1
 360 480 l 1,13,-1
 360 360 l 1,10,-1
240 480 m 1,14,-1
 120 480 l 1,15,-1
 120 600 l 1,16,-1
 120 720 l 1,17,-1
 240 720 l 1,18,-1
 240 600 l 1,19,-1
 240 480 l 1,14,-1
120 720 m 1,20,-1
 0 720 l 1,21,-1
 0 840 l 1,22,-1
 120 840 l 1,23,-1
 120 720 l 1,20,-1
EndSplineSet
Validated: 5
EndChar

StartChar: bracketright
Encoding: 61 93 62
Width: 720
VWidth: 960
GlyphClass: 2
Flags: W
LayerCount: 2
Fore
SplineSet
360 0 m 1,0,-1
 240 0 l 1,1,-1
 120 0 l 1,2,-1
 120 120 l 1,3,-1
 240 120 l 1,4,-1
 360 120 l 1,5,-1
 360 240 l 1,6,-1
 360 360 l 1,7,-1
 360 480 l 1,8,-1
 360 600 l 1,9,-1
 360 720 l 1,10,-1
 240 720 l 1,11,-1
 120 720 l 1,12,-1
 120 840 l 1,13,-1
 240 840 l 1,14,-1
 360 840 l 1,15,-1
 480 840 l 1,16,-1
 480 720 l 1,17,-1
 480 600 l 1,18,-1
 480 480 l 1,19,-1
 480 360 l 1,20,-1
 480 240 l 1,21,-1
 480 120 l 1,22,-1
 480 0 l 1,23,-1
 360 0 l 1,0,-1
EndSplineSet
Validated: 1
EndChar

StartChar: asciicircum
Encoding: 62 94 63
Width: 720
VWidth: 960
GlyphClass: 2
Flags: W
LayerCount: 2
Fore
SplineSet
480 480 m 1,0,-1
 480 600 l 1,1,-1
 600 600 l 1,2,-1
 600 480 l 1,3,-1
 480 480 l 1,0,-1
0 480 m 1,4,-1
 0 600 l 1,5,-1
 120 600 l 1,6,-1
 120 480 l 1,7,-1
 0 480 l 1,4,-1
480 600 m 1,8,-1
 360 600 l 1,9,-1
 360 720 l 1,10,-1
 480 720 l 1,11,-1
 480 600 l 1,8,-1
120 600 m 1,12,-1
 120 720 l 1,13,-1
 240 720 l 1,14,-1
 240 600 l 1,15,-1
 120 600 l 1,12,-1
360 720 m 1,16,-1
 240 720 l 1,17,-1
 240 840 l 1,18,-1
 360 840 l 1,19,-1
 360 720 l 1,16,-1
EndSplineSet
Validated: 5
EndChar

StartChar: underscore
Encoding: 63 95 64
Width: 720
VWidth: 960
GlyphClass: 2
Flags: W
LayerCount: 2
Fore
SplineSet
480 0 m 1,0,-1
 600 0 l 1,1,-1
 600 -120 l 1,2,-1
 480 -120 l 1,3,-1
 360 -120 l 1,4,-1
 240 -120 l 1,5,-1
 120 -120 l 1,6,-1
 0 -120 l 1,7,-1
 0 0 l 1,8,-1
 120 0 l 1,9,-1
 240 0 l 1,10,-1
 360 0 l 1,11,-1
 480 0 l 1,0,-1
EndSplineSet
Validated: 1
EndChar

StartChar: grave
Encoding: 64 96 65
Width: 720
VWidth: 960
GlyphClass: 2
Flags: W
LayerCount: 2
Fore
SplineSet
240 600 m 1,0,-1
 240 720 l 1,1,-1
 360 720 l 1,2,-1
 360 600 l 1,3,-1
 240 600 l 1,0,-1
240 720 m 1,4,-1
 120 720 l 1,5,-1
 120 840 l 1,6,-1
 240 840 l 1,7,-1
 240 720 l 1,4,-1
EndSplineSet
Validated: 5
EndChar

StartChar: a
Encoding: 65 97 66
Width: 720
VWidth: 960
GlyphClass: 2
Flags: W
LayerCount: 2
Fore
SplineSet
480 0 m 1,0,-1
 360 0 l 1,1,-1
 240 0 l 1,2,-1
 120 0 l 1,3,-1
 120 120 l 1,4,-1
 0 120 l 1,5,-1
 0 240 l 1,6,-1
 120 240 l 1,7,-1
 120 360 l 1,8,-1
 240 360 l 1,9,-1
 360 360 l 1,10,-1
 480 360 l 1,11,-1
 480 480 l 1,12,-1
 600 480 l 1,13,-1
 600 360 l 1,14,-1
 600 240 l 1,15,-1
 600 120 l 1,16,-1
 600 0 l 1,17,-1
 480 0 l 1,0,-1
360 120 m 1,18,-1
 480 120 l 1,19,-1
 480 240 l 1,20,-1
 360 240 l 1,21,-1
 240 240 l 1,22,-1
 120 240 l 1,23,-1
 120 120 l 1,24,-1
 240 120 l 1,25,-1
 360 120 l 1,18,-1
480 480 m 1,26,-1
 360 480 l 1,27,-1
 240 480 l 1,28,-1
 120 480 l 1,29,-1
 120 600 l 1,30,-1
 240 600 l 1,31,-1
 360 600 l 1,32,-1
 480 600 l 1,33,-1
 480 480 l 1,26,-1
EndSplineSet
Validated: 5
EndChar

StartChar: b
Encoding: 66 98 67
Width: 720
VWidth: 960
GlyphClass: 2
Flags: W
LayerCount: 2
Fore
SplineSet
360 120 m 1,0,-1
 480 120 l 1,1,-1
 480 0 l 1,2,-1
 360 0 l 1,3,-1
 240 0 l 1,4,-1
 120 0 l 1,5,-1
 0 0 l 1,6,-1
 0 120 l 1,7,-1
 0 240 l 1,8,-1
 0 360 l 1,9,-1
 0 480 l 1,10,-1
 0 600 l 1,11,-1
 0 720 l 1,12,-1
 0 840 l 1,13,-1
 120 840 l 1,14,-1
 120 720 l 1,15,-1
 120 600 l 1,16,-1
 120 480 l 1,17,-1
 240 480 l 1,18,-1
 240 360 l 1,19,-1
 120 360 l 1,20,-1
 120 240 l 1,21,-1
 120 120 l 1,22,-1
 240 120 l 1,23,-1
 360 120 l 1,0,-1
480 120 m 1,24,-1
 480 240 l 1,25,-1
 480 360 l 1,26,-1
 480 480 l 1,27,-1
 600 480 l 1,28,-1
 600 360 l 1,29,-1
 600 240 l 1,30,-1
 600 120 l 1,31,-1
 480 120 l 1,24,-1
480 480 m 1,32,-1
 360 480 l 1,33,-1
 240 480 l 1,34,-1
 240 600 l 1,35,-1
 360 600 l 1,36,-1
 480 600 l 1,37,-1
 480 480 l 1,32,-1
EndSplineSet
Validated: 5
EndChar

StartChar: c
Encoding: 67 99 68
Width: 720
VWidth: 960
GlyphClass: 2
Flags: W
LayerCount: 2
Fore
SplineSet
480 360 m 1,0,-1
 480 480 l 1,1,-1
 600 480 l 1,2,-1
 600 360 l 1,3,-1
 480 360 l 1,0,-1
360 120 m 1,4,-1
 480 120 l 1,5,-1
 480 0 l 1,6,-1
 360 0 l 1,7,-1
 240 0 l 1,8,-1
 120 0 l 1,9,-1
 120 120 l 1,10,-1
 240 120 l 1,11,-1
 360 120 l 1,4,-1
480 120 m 1,12,-1
 480 240 l 1,13,-1
 600 240 l 1,14,-1
 600 120 l 1,15,-1
 480 120 l 1,12,-1
120 120 m 1,16,-1
 0 120 l 1,17,-1
 0 240 l 1,18,-1
 0 360 l 1,19,-1
 0 480 l 1,20,-1
 120 480 l 1,21,-1
 120 360 l 1,22,-1
 120 240 l 1,23,-1
 120 120 l 1,16,-1
480 480 m 1,24,-1
 360 480 l 1,25,-1
 240 480 l 1,26,-1
 120 480 l 1,27,-1
 120 600 l 1,28,-1
 240 600 l 1,29,-1
 360 600 l 1,30,-1
 480 600 l 1,31,-1
 480 480 l 1,24,-1
EndSplineSet
Validated: 5
EndChar

StartChar: d
Encoding: 68 100 69
Width: 720
VWidth: 960
GlyphClass: 2
Flags: W
LayerCount: 2
Fore
SplineSet
480 0 m 1,0,-1
 360 0 l 1,1,-1
 240 0 l 1,2,-1
 120 0 l 1,3,-1
 120 120 l 1,4,-1
 240 120 l 1,5,-1
 360 120 l 1,6,-1
 480 120 l 1,7,-1
 480 240 l 1,8,-1
 480 360 l 1,9,-1
 360 360 l 1,10,-1
 360 480 l 1,11,-1
 480 480 l 1,12,-1
 480 600 l 1,13,-1
 480 720 l 1,14,-1
 480 840 l 1,15,-1
 600 840 l 1,16,-1
 600 720 l 1,17,-1
 600 600 l 1,18,-1
 600 480 l 1,19,-1
 600 360 l 1,20,-1
 600 240 l 1,21,-1
 600 120 l 1,22,-1
 600 0 l 1,23,-1
 480 0 l 1,0,-1
120 120 m 1,24,-1
 0 120 l 1,25,-1
 0 240 l 1,26,-1
 0 360 l 1,27,-1
 0 480 l 1,28,-1
 120 480 l 1,29,-1
 120 360 l 1,30,-1
 120 240 l 1,31,-1
 120 120 l 1,24,-1
360 480 m 1,32,-1
 240 480 l 1,33,-1
 120 480 l 1,34,-1
 120 600 l 1,35,-1
 240 600 l 1,36,-1
 360 600 l 1,37,-1
 360 480 l 1,32,-1
EndSplineSet
Validated: 5
EndChar

StartChar: e
Encoding: 69 101 70
Width: 720
VWidth: 960
GlyphClass: 2
Flags: W
LayerCount: 2
Fore
SplineSet
480 120 m 1,0,-1
 600 120 l 1,1,-1
 600 0 l 1,2,-1
 480 0 l 1,3,-1
 360 0 l 1,4,-1
 240 0 l 1,5,-1
 120 0 l 1,6,-1
 120 120 l 1,7,-1
 240 120 l 1,8,-1
 360 120 l 1,9,-1
 480 120 l 1,0,-1
120 120 m 1,10,-1
 0 120 l 1,11,-1
 0 240 l 1,12,-1
 0 360 l 1,13,-1
 0 480 l 1,14,-1
 120 480 l 1,15,-1
 120 360 l 1,16,-1
 240 360 l 1,17,-1
 360 360 l 1,18,-1
 480 360 l 1,19,-1
 480 480 l 1,20,-1
 600 480 l 1,21,-1
 600 360 l 1,22,-1
 600 240 l 1,23,-1
 480 240 l 1,24,-1
 360 240 l 1,25,-1
 240 240 l 1,26,-1
 120 240 l 1,27,-1
 120 120 l 1,10,-1
480 480 m 1,28,-1
 360 480 l 1,29,-1
 240 480 l 1,30,-1
 120 480 l 1,31,-1
 120 600 l 1,32,-1
 240 600 l 1,33,-1
 360 600 l 1,34,-1
 480 600 l 1,35,-1
 480 480 l 1,28,-1
EndSplineSet
Validated: 5
EndChar

StartChar: f
Encoding: 70 102 71
Width: 720
VWidth: 960
GlyphClass: 2
Flags: W
LayerCount: 2
Fore
SplineSet
240 0 m 1,0,-1
 240 120 l 1,1,-1
 240 240 l 1,2,-1
 240 360 l 1,3,-1
 240 480 l 1,4,-1
 120 480 l 1,5,-1
 120 600 l 1,6,-1
 240 600 l 1,7,-1
 240 720 l 1,8,-1
 360 720 l 1,9,-1
 360 600 l 1,10,-1
 480 600 l 1,11,-1
 600 600 l 1,12,-1
 600 480 l 1,13,-1
 480 480 l 1,14,-1
 360 480 l 1,15,-1
 360 360 l 1,16,-1
 360 240 l 1,17,-1
 360 120 l 1,18,-1
 360 0 l 1,19,-1
 240 0 l 1,0,-1
480 840 m 1,20,-1
 600 840 l 1,21,-1
 600 720 l 1,22,-1
 480 720 l 1,23,-1
 360 720 l 1,24,-1
 360 840 l 1,25,-1
 480 840 l 1,20,-1
EndSplineSet
Validated: 5
EndChar

StartChar: g
Encoding: 71 103 72
Width: 720
VWidth: 960
GlyphClass: 2
Flags: W
LayerCount: 2
Fore
SplineSet
360 0 m 1,0,-1
 480 0 l 1,1,-1
 480 -120 l 1,2,-1
 360 -120 l 1,3,-1
 240 -120 l 1,4,-1
 120 -120 l 1,5,-1
 0 -120 l 1,6,-1
 0 0 l 1,7,-1
 120 0 l 1,8,-1
 240 0 l 1,9,-1
 360 0 l 1,0,-1
480 0 m 1,10,-1
 480 120 l 1,11,-1
 360 120 l 1,12,-1
 240 120 l 1,13,-1
 120 120 l 1,14,-1
 120 240 l 1,15,-1
 0 240 l 1,16,-1
 0 360 l 1,17,-1
 0 480 l 1,18,-1
 120 480 l 1,19,-1
 120 600 l 1,20,-1
 240 600 l 1,21,-1
 360 600 l 1,22,-1
 480 600 l 1,23,-1
 600 600 l 1,24,-1
 600 480 l 1,25,-1
 600 360 l 1,26,-1
 600 240 l 1,27,-1
 600 120 l 1,28,-1
 600 0 l 1,29,-1
 480 0 l 1,10,-1
360 240 m 1,30,-1
 480 240 l 1,31,-1
 480 360 l 1,32,-1
 480 480 l 1,33,-1
 360 480 l 1,34,-1
 240 480 l 1,35,-1
 120 480 l 1,36,-1
 120 360 l 1,37,-1
 120 240 l 1,38,-1
 240 240 l 1,39,-1
 360 240 l 1,30,-1
EndSplineSet
Validated: 5
EndChar

StartChar: h
Encoding: 72 104 73
Width: 720
VWidth: 960
GlyphClass: 2
Flags: W
LayerCount: 2
Fore
SplineSet
480 0 m 1,0,-1
 480 120 l 1,1,-1
 480 240 l 1,2,-1
 480 360 l 1,3,-1
 480 480 l 1,4,-1
 600 480 l 1,5,-1
 600 360 l 1,6,-1
 600 240 l 1,7,-1
 600 120 l 1,8,-1
 600 0 l 1,9,-1
 480 0 l 1,0,-1
0 0 m 1,10,-1
 0 120 l 1,11,-1
 0 240 l 1,12,-1
 0 360 l 1,13,-1
 0 480 l 1,14,-1
 0 600 l 1,15,-1
 0 720 l 1,16,-1
 0 840 l 1,17,-1
 120 840 l 1,18,-1
 120 720 l 1,19,-1
 120 600 l 1,20,-1
 120 480 l 1,21,-1
 240 480 l 1,22,-1
 240 360 l 1,23,-1
 120 360 l 1,24,-1
 120 240 l 1,25,-1
 120 120 l 1,26,-1
 120 0 l 1,27,-1
 0 0 l 1,10,-1
480 480 m 1,28,-1
 360 480 l 1,29,-1
 240 480 l 1,30,-1
 240 600 l 1,31,-1
 360 600 l 1,32,-1
 480 600 l 1,33,-1
 480 480 l 1,28,-1
EndSplineSet
Validated: 5
EndChar

StartChar: i
Encoding: 73 105 74
Width: 720
VWidth: 960
GlyphClass: 2
Flags: W
LayerCount: 2
Fore
SplineSet
240 720 m 1,0,-1
 240 840 l 1,1,-1
 360 840 l 1,2,-1
 360 720 l 1,3,-1
 240 720 l 1,0,-1
480 120 m 1,4,-1
 600 120 l 1,5,-1
 600 0 l 1,6,-1
 480 0 l 1,7,-1
 360 0 l 1,8,-1
 360 120 l 1,9,-1
 480 120 l 1,4,-1
360 120 m 1,10,-1
 240 120 l 1,11,-1
 240 240 l 1,12,-1
 240 360 l 1,13,-1
 240 480 l 1,14,-1
 120 480 l 1,15,-1
 120 600 l 1,16,-1
 240 600 l 1,17,-1
 360 600 l 1,18,-1
 360 480 l 1,19,-1
 360 360 l 1,20,-1
 360 240 l 1,21,-1
 360 120 l 1,10,-1
EndSplineSet
Validated: 5
EndChar

StartChar: j
Encoding: 74 106 75
Width: 720
VWidth: 960
GlyphClass: 2
Flags: W
LayerCount: 2
Fore
SplineSet
480 720 m 1,0,-1
 480 840 l 1,1,-1
 600 840 l 1,2,-1
 600 720 l 1,3,-1
 480 720 l 1,0,-1
360 0 m 1,4,-1
 480 0 l 1,5,-1
 480 -120 l 1,6,-1
 360 -120 l 1,7,-1
 240 -120 l 1,8,-1
 120 -120 l 1,9,-1
 120 0 l 1,10,-1
 240 0 l 1,11,-1
 360 0 l 1,4,-1
480 0 m 1,12,-1
 480 120 l 1,13,-1
 480 240 l 1,14,-1
 480 360 l 1,15,-1
 480 480 l 1,16,-1
 480 600 l 1,17,-1
 600 600 l 1,18,-1
 600 480 l 1,19,-1
 600 360 l 1,20,-1
 600 240 l 1,21,-1
 600 120 l 1,22,-1
 600 0 l 1,23,-1
 480 0 l 1,12,-1
120 0 m 1,24,-1
 0 0 l 1,25,-1
 0 120 l 1,26,-1
 0 240 l 1,27,-1
 120 240 l 1,28,-1
 120 120 l 1,29,-1
 120 0 l 1,24,-1
EndSplineSet
Validated: 5
EndChar

StartChar: k
Encoding: 75 107 76
Width: 720
VWidth: 960
GlyphClass: 2
Flags: W
LayerCount: 2
Fore
SplineSet
480 0 m 1,0,-1
 480 120 l 1,1,-1
 600 120 l 1,2,-1
 600 0 l 1,3,-1
 480 0 l 1,0,-1
120 0 m 1,4,-1
 120 120 l 1,5,-1
 120 240 l 1,6,-1
 120 360 l 1,7,-1
 120 480 l 1,8,-1
 120 600 l 1,9,-1
 120 720 l 1,10,-1
 120 840 l 1,11,-1
 240 840 l 1,12,-1
 240 720 l 1,13,-1
 240 600 l 1,14,-1
 240 480 l 1,15,-1
 240 360 l 1,16,-1
 360 360 l 1,17,-1
 360 240 l 1,18,-1
 480 240 l 1,19,-1
 480 120 l 1,20,-1
 360 120 l 1,21,-1
 360 240 l 1,22,-1
 240 240 l 1,23,-1
 240 120 l 1,24,-1
 240 0 l 1,25,-1
 120 0 l 1,4,-1
360 360 m 1,26,-1
 360 480 l 1,27,-1
 480 480 l 1,28,-1
 480 360 l 1,29,-1
 360 360 l 1,26,-1
480 480 m 1,30,-1
 480 600 l 1,31,-1
 600 600 l 1,32,-1
 600 480 l 1,33,-1
 480 480 l 1,30,-1
EndSplineSet
Validated: 5
EndChar

StartChar: l
Encoding: 76 108 77
Width: 720
VWidth: 960
GlyphClass: 2
Flags: W
LayerCount: 2
Fore
SplineSet
480 120 m 1,0,-1
 600 120 l 1,1,-1
 600 0 l 1,2,-1
 480 0 l 1,3,-1
 360 0 l 1,4,-1
 360 120 l 1,5,-1
 480 120 l 1,0,-1
360 120 m 1,6,-1
 240 120 l 1,7,-1
 240 240 l 1,8,-1
 240 360 l 1,9,-1
 240 480 l 1,10,-1
 240 600 l 1,11,-1
 240 720 l 1,12,-1
 120 720 l 1,13,-1
 120 840 l 1,14,-1
 240 840 l 1,15,-1
 360 840 l 1,16,-1
 360 720 l 1,17,-1
 360 600 l 1,18,-1
 360 480 l 1,19,-1
 360 360 l 1,20,-1
 360 240 l 1,21,-1
 360 120 l 1,6,-1
EndSplineSet
Validated: 5
EndChar

StartChar: m
Encoding: 77 109 78
Width: 720
VWidth: 960
GlyphClass: 2
Flags: W
LayerCount: 2
Fore
SplineSet
480 0 m 1,0,-1
 480 120 l 1,1,-1
 480 240 l 1,2,-1
 480 360 l 1,3,-1
 480 480 l 1,4,-1
 600 480 l 1,5,-1
 600 360 l 1,6,-1
 600 240 l 1,7,-1
 600 120 l 1,8,-1
 600 0 l 1,9,-1
 480 0 l 1,0,-1
0 0 m 1,10,-1
 0 120 l 1,11,-1
 0 240 l 1,12,-1
 0 360 l 1,13,-1
 0 480 l 1,14,-1
 0 600 l 1,15,-1
 120 600 l 1,16,-1
 240 600 l 1,17,-1
 240 480 l 1,18,-1
 360 480 l 1,19,-1
 360 360 l 1,20,-1
 360 240 l 1,21,-1
 240 240 l 1,22,-1
 240 360 l 1,23,-1
 240 480 l 1,24,-1
 120 480 l 1,25,-1
 120 360 l 1,26,-1
 120 240 l 1,27,-1
 120 120 l 1,28,-1
 120 0 l 1,29,-1
 0 0 l 1,10,-1
480 480 m 1,30,-1
 360 480 l 1,31,-1
 360 600 l 1,32,-1
 480 600 l 1,33,-1
 480 480 l 1,30,-1
EndSplineSet
Validated: 5
EndChar

StartChar: n
Encoding: 78 110 79
Width: 720
VWidth: 960
GlyphClass: 2
Flags: W
LayerCount: 2
Fore
SplineSet
480 0 m 1,0,-1
 480 120 l 1,1,-1
 480 240 l 1,2,-1
 480 360 l 1,3,-1
 480 480 l 1,4,-1
 600 480 l 1,5,-1
 600 360 l 1,6,-1
 600 240 l 1,7,-1
 600 120 l 1,8,-1
 600 0 l 1,9,-1
 480 0 l 1,0,-1
0 0 m 1,10,-1
 0 120 l 1,11,-1
 0 240 l 1,12,-1
 0 360 l 1,13,-1
 0 480 l 1,14,-1
 0 600 l 1,15,-1
 120 600 l 1,16,-1
 240 600 l 1,17,-1
 360 600 l 1,18,-1
 480 600 l 1,19,-1
 480 480 l 1,20,-1
 360 480 l 1,21,-1
 240 480 l 1,22,-1
 120 480 l 1,23,-1
 120 360 l 1,24,-1
 120 240 l 1,25,-1
 120 120 l 1,26,-1
 120 0 l 1,27,-1
 0 0 l 1,10,-1
EndSplineSet
Validated: 5
EndChar

StartChar: o
Encoding: 79 111 80
Width: 720
VWidth: 960
GlyphClass: 2
Flags: W
LayerCount: 2
Fore
SplineSet
360 120 m 1,0,-1
 480 120 l 1,1,-1
 480 0 l 1,2,-1
 360 0 l 1,3,-1
 240 0 l 1,4,-1
 120 0 l 1,5,-1
 120 120 l 1,6,-1
 240 120 l 1,7,-1
 360 120 l 1,0,-1
480 120 m 1,8,-1
 480 240 l 1,9,-1
 480 360 l 1,10,-1
 480 480 l 1,11,-1
 600 480 l 1,12,-1
 600 360 l 1,13,-1
 600 240 l 1,14,-1
 600 120 l 1,15,-1
 480 120 l 1,8,-1
120 120 m 1,16,-1
 0 120 l 1,17,-1
 0 240 l 1,18,-1
 0 360 l 1,19,-1
 0 480 l 1,20,-1
 120 480 l 1,21,-1
 120 360 l 1,22,-1
 120 240 l 1,23,-1
 120 120 l 1,16,-1
480 480 m 1,24,-1
 360 480 l 1,25,-1
 240 480 l 1,26,-1
 120 480 l 1,27,-1
 120 600 l 1,28,-1
 240 600 l 1,29,-1
 360 600 l 1,30,-1
 480 600 l 1,31,-1
 480 480 l 1,24,-1
EndSplineSet
Validated: 5
EndChar

StartChar: p
Encoding: 80 112 81
Width: 720
VWidth: 960
GlyphClass: 2
Flags: W
LayerCount: 2
Fore
SplineSet
0 -120 m 1,0,-1
 0 0 l 1,1,-1
 0 120 l 1,2,-1
 0 240 l 1,3,-1
 0 360 l 1,4,-1
 0 480 l 1,5,-1
 0 600 l 1,6,-1
 120 600 l 1,7,-1
 120 480 l 1,8,-1
 240 480 l 1,9,-1
 240 360 l 1,10,-1
 120 360 l 1,11,-1
 120 240 l 1,12,-1
 240 240 l 1,13,-1
 360 240 l 1,14,-1
 480 240 l 1,15,-1
 480 120 l 1,16,-1
 360 120 l 1,17,-1
 240 120 l 1,18,-1
 120 120 l 1,19,-1
 120 0 l 1,20,-1
 120 -120 l 1,21,-1
 0 -120 l 1,0,-1
480 240 m 1,22,-1
 480 360 l 1,23,-1
 480 480 l 1,24,-1
 600 480 l 1,25,-1
 600 360 l 1,26,-1
 600 240 l 1,27,-1
 480 240 l 1,22,-1
480 480 m 1,28,-1
 360 480 l 1,29,-1
 240 480 l 1,30,-1
 240 600 l 1,31,-1
 360 600 l 1,32,-1
 480 600 l 1,33,-1
 480 480 l 1,28,-1
EndSplineSet
Validated: 5
EndChar

StartChar: q
Encoding: 81 113 82
Width: 720
VWidth: 960
GlyphClass: 2
Flags: W
LayerCount: 2
Fore
SplineSet
480 -120 m 1,0,-1
 480 0 l 1,1,-1
 480 120 l 1,2,-1
 360 120 l 1,3,-1
 240 120 l 1,4,-1
 120 120 l 1,5,-1
 120 240 l 1,6,-1
 240 240 l 1,7,-1
 360 240 l 1,8,-1
 480 240 l 1,9,-1
 480 360 l 1,10,-1
 360 360 l 1,11,-1
 360 480 l 1,12,-1
 480 480 l 1,13,-1
 480 600 l 1,14,-1
 600 600 l 1,15,-1
 600 480 l 1,16,-1
 600 360 l 1,17,-1
 600 240 l 1,18,-1
 600 120 l 1,19,-1
 600 0 l 1,20,-1
 600 -120 l 1,21,-1
 480 -120 l 1,0,-1
120 240 m 1,22,-1
 0 240 l 1,23,-1
 0 360 l 1,24,-1
 0 480 l 1,25,-1
 120 480 l 1,26,-1
 120 360 l 1,27,-1
 120 240 l 1,22,-1
360 480 m 1,28,-1
 240 480 l 1,29,-1
 120 480 l 1,30,-1
 120 600 l 1,31,-1
 240 600 l 1,32,-1
 360 600 l 1,33,-1
 360 480 l 1,28,-1
EndSplineSet
Validated: 5
EndChar

StartChar: r
Encoding: 82 114 83
Width: 720
VWidth: 960
GlyphClass: 2
Flags: W
LayerCount: 2
Fore
SplineSet
0 0 m 1,0,-1
 0 120 l 1,1,-1
 0 240 l 1,2,-1
 0 360 l 1,3,-1
 0 480 l 1,4,-1
 0 600 l 1,5,-1
 120 600 l 1,6,-1
 120 480 l 1,7,-1
 240 480 l 1,8,-1
 240 360 l 1,9,-1
 120 360 l 1,10,-1
 120 240 l 1,11,-1
 120 120 l 1,12,-1
 120 0 l 1,13,-1
 0 0 l 1,0,-1
480 360 m 1,14,-1
 480 480 l 1,15,-1
 600 480 l 1,16,-1
 600 360 l 1,17,-1
 480 360 l 1,14,-1
480 480 m 1,18,-1
 360 480 l 1,19,-1
 240 480 l 1,20,-1
 240 600 l 1,21,-1
 360 600 l 1,22,-1
 480 600 l 1,23,-1
 480 480 l 1,18,-1
EndSplineSet
Validated: 5
EndChar

StartChar: s
Encoding: 83 115 84
Width: 720
VWidth: 960
GlyphClass: 2
Flags: W
LayerCount: 2
Fore
SplineSet
360 120 m 1,0,-1
 480 120 l 1,1,-1
 480 0 l 1,2,-1
 360 0 l 1,3,-1
 240 0 l 1,4,-1
 120 0 l 1,5,-1
 0 0 l 1,6,-1
 0 120 l 1,7,-1
 120 120 l 1,8,-1
 240 120 l 1,9,-1
 360 120 l 1,0,-1
480 120 m 1,10,-1
 480 240 l 1,11,-1
 600 240 l 1,12,-1
 600 120 l 1,13,-1
 480 120 l 1,10,-1
480 240 m 1,14,-1
 360 240 l 1,15,-1
 240 240 l 1,16,-1
 120 240 l 1,17,-1
 120 360 l 1,18,-1
 240 360 l 1,19,-1
 360 360 l 1,20,-1
 480 360 l 1,21,-1
 480 240 l 1,14,-1
120 360 m 1,22,-1
 0 360 l 1,23,-1
 0 480 l 1,24,-1
 120 480 l 1,25,-1
 120 360 l 1,22,-1
480 600 m 1,26,-1
 600 600 l 1,27,-1
 600 480 l 1,28,-1
 480 480 l 1,29,-1
 360 480 l 1,30,-1
 240 480 l 1,31,-1
 120 480 l 1,32,-1
 120 600 l 1,33,-1
 240 600 l 1,34,-1
 360 600 l 1,35,-1
 480 600 l 1,26,-1
EndSplineSet
Validated: 5
EndChar

StartChar: t
Encoding: 84 116 85
Width: 720
VWidth: 960
GlyphClass: 2
Flags: W
LayerCount: 2
Fore
SplineSet
480 120 m 1,0,-1
 600 120 l 1,1,-1
 600 0 l 1,2,-1
 480 0 l 1,3,-1
 360 0 l 1,4,-1
 360 120 l 1,5,-1
 480 120 l 1,0,-1
360 120 m 1,6,-1
 240 120 l 1,7,-1
 240 240 l 1,8,-1
 240 360 l 1,9,-1
 240 480 l 1,10,-1
 120 480 l 1,11,-1
 120 600 l 1,12,-1
 240 600 l 1,13,-1
 240 720 l 1,14,-1
 240 840 l 1,15,-1
 360 840 l 1,16,-1
 360 720 l 1,17,-1
 360 600 l 1,18,-1
 480 600 l 1,19,-1
 480 480 l 1,20,-1
 360 480 l 1,21,-1
 360 360 l 1,22,-1
 360 240 l 1,23,-1
 360 120 l 1,6,-1
EndSplineSet
Validated: 5
EndChar

StartChar: u
Encoding: 85 117 86
Width: 720
VWidth: 960
GlyphClass: 2
Flags: W
LayerCount: 2
Fore
SplineSet
480 0 m 1,0,-1
 360 0 l 1,1,-1
 240 0 l 1,2,-1
 120 0 l 1,3,-1
 120 120 l 1,4,-1
 240 120 l 1,5,-1
 360 120 l 1,6,-1
 480 120 l 1,7,-1
 480 240 l 1,8,-1
 480 360 l 1,9,-1
 480 480 l 1,10,-1
 480 600 l 1,11,-1
 600 600 l 1,12,-1
 600 480 l 1,13,-1
 600 360 l 1,14,-1
 600 240 l 1,15,-1
 600 120 l 1,16,-1
 600 0 l 1,17,-1
 480 0 l 1,0,-1
120 120 m 1,18,-1
 0 120 l 1,19,-1
 0 240 l 1,20,-1
 0 360 l 1,21,-1
 0 480 l 1,22,-1
 0 600 l 1,23,-1
 120 600 l 1,24,-1
 120 480 l 1,25,-1
 120 360 l 1,26,-1
 120 240 l 1,27,-1
 120 120 l 1,18,-1
EndSplineSet
Validated: 5
EndChar

StartChar: v
Encoding: 86 118 87
Width: 720
VWidth: 960
GlyphClass: 2
Flags: W
LayerCount: 2
Fore
SplineSet
240 0 m 1,0,-1
 240 120 l 1,1,-1
 360 120 l 1,2,-1
 360 0 l 1,3,-1
 240 0 l 1,0,-1
360 120 m 1,4,-1
 360 240 l 1,5,-1
 480 240 l 1,6,-1
 480 120 l 1,7,-1
 360 120 l 1,4,-1
240 120 m 1,8,-1
 120 120 l 1,9,-1
 120 240 l 1,10,-1
 240 240 l 1,11,-1
 240 120 l 1,8,-1
480 240 m 1,12,-1
 480 360 l 1,13,-1
 480 480 l 1,14,-1
 480 600 l 1,15,-1
 600 600 l 1,16,-1
 600 480 l 1,17,-1
 600 360 l 1,18,-1
 600 240 l 1,19,-1
 480 240 l 1,12,-1
120 240 m 1,20,-1
 0 240 l 1,21,-1
 0 360 l 1,22,-1
 0 480 l 1,23,-1
 0 600 l 1,24,-1
 120 600 l 1,25,-1
 120 480 l 1,26,-1
 120 360 l 1,27,-1
 120 240 l 1,20,-1
EndSplineSet
Validated: 5
EndChar

StartChar: w
Encoding: 87 119 88
Width: 720
VWidth: 960
GlyphClass: 2
Flags: W
LayerCount: 2
Fore
SplineSet
480 0 m 1,0,-1
 360 0 l 1,1,-1
 240 0 l 1,2,-1
 120 0 l 1,3,-1
 120 120 l 1,4,-1
 240 120 l 1,5,-1
 240 240 l 1,6,-1
 240 360 l 1,7,-1
 360 360 l 1,8,-1
 360 240 l 1,9,-1
 360 120 l 1,10,-1
 480 120 l 1,11,-1
 480 240 l 1,12,-1
 480 360 l 1,13,-1
 480 480 l 1,14,-1
 480 600 l 1,15,-1
 600 600 l 1,16,-1
 600 480 l 1,17,-1
 600 360 l 1,18,-1
 600 240 l 1,19,-1
 600 120 l 1,20,-1
 600 0 l 1,21,-1
 480 0 l 1,0,-1
120 120 m 1,22,-1
 0 120 l 1,23,-1
 0 240 l 1,24,-1
 0 360 l 1,25,-1
 0 480 l 1,26,-1
 0 600 l 1,27,-1
 120 600 l 1,28,-1
 120 480 l 1,29,-1
 120 360 l 1,30,-1
 120 240 l 1,31,-1
 120 120 l 1,22,-1
EndSplineSet
Validated: 5
EndChar

StartChar: x
Encoding: 88 120 89
Width: 720
VWidth: 960
GlyphClass: 2
Flags: W
LayerCount: 2
Fore
SplineSet
480 0 m 1,0,-1
 480 120 l 1,1,-1
 600 120 l 1,2,-1
 600 0 l 1,3,-1
 480 0 l 1,0,-1
0 0 m 1,4,-1
 0 120 l 1,5,-1
 120 120 l 1,6,-1
 120 0 l 1,7,-1
 0 0 l 1,4,-1
480 120 m 1,8,-1
 360 120 l 1,9,-1
 360 240 l 1,10,-1
 480 240 l 1,11,-1
 480 120 l 1,8,-1
120 120 m 1,12,-1
 120 240 l 1,13,-1
 240 240 l 1,14,-1
 240 120 l 1,15,-1
 120 120 l 1,12,-1
360 240 m 1,16,-1
 240 240 l 1,17,-1
 240 360 l 1,18,-1
 360 360 l 1,19,-1
 360 240 l 1,16,-1
360 360 m 1,20,-1
 360 480 l 1,21,-1
 480 480 l 1,22,-1
 480 360 l 1,23,-1
 360 360 l 1,20,-1
240 360 m 1,24,-1
 120 360 l 1,25,-1
 120 480 l 1,26,-1
 240 480 l 1,27,-1
 240 360 l 1,24,-1
480 480 m 1,28,-1
 480 600 l 1,29,-1
 600 600 l 1,30,-1
 600 480 l 1,31,-1
 480 480 l 1,28,-1
120 480 m 1,32,-1
 0 480 l 1,33,-1
 0 600 l 1,34,-1
 120 600 l 1,35,-1
 120 480 l 1,32,-1
EndSplineSet
Validated: 5
EndChar

StartChar: y
Encoding: 89 121 90
Width: 720
VWidth: 960
GlyphClass: 2
Flags: W
LayerCount: 2
Fore
SplineSet
360 0 m 1,0,-1
 480 0 l 1,1,-1
 480 -120 l 1,2,-1
 360 -120 l 1,3,-1
 240 -120 l 1,4,-1
 120 -120 l 1,5,-1
 0 -120 l 1,6,-1
 0 0 l 1,7,-1
 120 0 l 1,8,-1
 240 0 l 1,9,-1
 360 0 l 1,0,-1
480 0 m 1,10,-1
 480 120 l 1,11,-1
 360 120 l 1,12,-1
 240 120 l 1,13,-1
 120 120 l 1,14,-1
 120 240 l 1,15,-1
 240 240 l 1,16,-1
 360 240 l 1,17,-1
 480 240 l 1,18,-1
 480 360 l 1,19,-1
 480 480 l 1,20,-1
 480 600 l 1,21,-1
 600 600 l 1,22,-1
 600 480 l 1,23,-1
 600 360 l 1,24,-1
 600 240 l 1,25,-1
 600 120 l 1,26,-1
 600 0 l 1,27,-1
 480 0 l 1,10,-1
120 240 m 1,28,-1
 0 240 l 1,29,-1
 0 360 l 1,30,-1
 0 480 l 1,31,-1
 0 600 l 1,32,-1
 120 600 l 1,33,-1
 120 480 l 1,34,-1
 120 360 l 1,35,-1
 120 240 l 1,28,-1
EndSplineSet
Validated: 5
EndChar

StartChar: z
Encoding: 90 122 91
Width: 720
VWidth: 960
GlyphClass: 2
Flags: W
LayerCount: 2
Fore
SplineSet
480 120 m 1,0,-1
 600 120 l 1,1,-1
 600 0 l 1,2,-1
 480 0 l 1,3,-1
 360 0 l 1,4,-1
 240 0 l 1,5,-1
 120 0 l 1,6,-1
 0 0 l 1,7,-1
 0 120 l 1,8,-1
 120 120 l 1,9,-1
 120 240 l 1,10,-1
 240 240 l 1,11,-1
 240 120 l 1,12,-1
 360 120 l 1,13,-1
 480 120 l 1,0,-1
240 240 m 1,14,-1
 240 360 l 1,15,-1
 360 360 l 1,16,-1
 360 240 l 1,17,-1
 240 240 l 1,14,-1
360 360 m 1,18,-1
 360 480 l 1,19,-1
 240 480 l 1,20,-1
 120 480 l 1,21,-1
 0 480 l 1,22,-1
 0 600 l 1,23,-1
 120 600 l 1,24,-1
 240 600 l 1,25,-1
 360 600 l 1,26,-1
 480 600 l 1,27,-1
 600 600 l 1,28,-1
 600 480 l 1,29,-1
 480 480 l 1,30,-1
 480 360 l 1,31,-1
 360 360 l 1,18,-1
EndSplineSet
Validated: 5
EndChar

StartChar: braceleft
Encoding: 91 123 92
Width: 720
VWidth: 960
GlyphClass: 2
Flags: W
LayerCount: 2
Fore
SplineSet
360 0 m 1,0,-1
 360 120 l 1,1,-1
 480 120 l 1,2,-1
 480 0 l 1,3,-1
 360 0 l 1,0,-1
360 120 m 1,4,-1
 240 120 l 1,5,-1
 240 240 l 1,6,-1
 240 360 l 1,7,-1
 360 360 l 1,8,-1
 360 240 l 1,9,-1
 360 120 l 1,4,-1
240 360 m 1,10,-1
 0 360 l 1,11,-1
 0 480 l 1,12,-1
 240 480 l 1,13,-1
 240 360 l 1,10,-1
240 480 m 1,14,-1
 240 600 l 1,15,-1
 240 720 l 1,16,-1
 360 720 l 1,17,-1
 360 600 l 1,18,-1
 360 480 l 1,19,-1
 240 480 l 1,14,-1
360 720 m 1,20,-1
 360 840 l 1,21,-1
 480 840 l 1,22,-1
 480 720 l 1,23,-1
 360 720 l 1,20,-1
EndSplineSet
Validated: 5
EndChar

StartChar: bar
Encoding: 92 124 93
Width: 720
VWidth: 960
GlyphClass: 2
Flags: W
LayerCount: 2
Fore
SplineSet
240 0 m 1,0,-1
 240 120 l 1,1,-1
 240 240 l 1,2,-1
 240 360 l 1,3,-1
 240 480 l 1,4,-1
 240 600 l 1,5,-1
 240 720 l 1,6,-1
 240 840 l 1,7,-1
 360 840 l 1,8,-1
 360 720 l 1,9,-1
 360 600 l 1,10,-1
 360 480 l 1,11,-1
 360 360 l 1,12,-1
 360 240 l 1,13,-1
 360 120 l 1,14,-1
 360 0 l 1,15,-1
 240 0 l 1,0,-1
EndSplineSet
Validated: 1
EndChar

StartChar: braceright
Encoding: 93 125 94
Width: 720
VWidth: 960
GlyphClass: 2
Flags: W
LayerCount: 2
Fore
SplineSet
120 0 m 1,0,-1
 120 120 l 1,1,-1
 240 120 l 1,2,-1
 240 0 l 1,3,-1
 120 0 l 1,0,-1
240 120 m 1,4,-1
 240 240 l 1,5,-1
 240 360 l 1,6,-1
 360 360 l 1,7,-1
 360 240 l 1,8,-1
 360 120 l 1,9,-1
 240 120 l 1,4,-1
360 360 m 1,10,-1
 360 480 l 1,11,-1
 600 480 l 1,12,-1
 600 360 l 1,13,-1
 360 360 l 1,10,-1
360 480 m 1,14,-1
 240 480 l 1,15,-1
 240 600 l 1,16,-1
 240 720 l 1,17,-1
 360 720 l 1,18,-1
 360 600 l 1,19,-1
 360 480 l 1,14,-1
240 720 m 1,20,-1
 120 720 l 1,21,-1
 120 840 l 1,22,-1
 240 840 l 1,23,-1
 240 720 l 1,20,-1
EndSplineSet
Validated: 5
EndChar

StartChar: asciitilde
Encoding: 94 126 95
Width: 720
VWidth: 960
GlyphClass: 2
Flags: W
LayerCount: 2
Fore
SplineSet
360 240 m 1,0,-1
 360 360 l 1,1,-1
 480 360 l 1,2,-1
 480 240 l 1,3,-1
 360 240 l 1,0,-1
0 240 m 1,4,-1
 0 360 l 1,5,-1
 0 480 l 1,6,-1
 120 480 l 1,7,-1
 120 360 l 1,8,-1
 120 240 l 1,9,-1
 0 240 l 1,4,-1
480 360 m 1,10,-1
 480 480 l 1,11,-1
 480 600 l 1,12,-1
 600 600 l 1,13,-1
 600 480 l 1,14,-1
 600 360 l 1,15,-1
 480 360 l 1,10,-1
360 360 m 1,16,-1
 240 360 l 1,17,-1
 240 480 l 1,18,-1
 360 480 l 1,19,-1
 360 360 l 1,16,-1
240 480 m 1,20,-1
 120 480 l 1,21,-1
 120 600 l 1,22,-1
 240 600 l 1,23,-1
 240 480 l 1,20,-1
EndSplineSet
Validated: 5
EndChar

StartChar: exclamdown
Encoding: 96 161 97
Width: 720
VWidth: 960
GlyphClass: 2
Flags: W
LayerCount: 2
Fore
SplineSet
240 -120 m 1,0,-1
 240 0 l 1,1,-1
 240 120 l 1,2,-1
 240 240 l 1,3,-1
 240 360 l 1,4,-1
 240 480 l 1,5,-1
 360 480 l 1,6,-1
 360 360 l 1,7,-1
 360 240 l 1,8,-1
 360 120 l 1,9,-1
 360 0 l 1,10,-1
 360 -120 l 1,11,-1
 240 -120 l 1,0,-1
240 600 m 1,12,-1
 240 720 l 1,13,-1
 360 720 l 1,14,-1
 360 600 l 1,15,-1
 240 600 l 1,12,-1
EndSplineSet
Validated: 1
EndChar

StartChar: cent
Encoding: 97 162 98
Width: 720
VWidth: 960
GlyphClass: 2
Flags: W
LayerCount: 2
Fore
SplineSet
240 -120 m 1,0,-1
 240 0 l 1,1,-1
 120 0 l 1,2,-1
 120 120 l 1,3,-1
 240 120 l 1,4,-1
 360 120 l 1,5,-1
 480 120 l 1,6,-1
 480 0 l 1,7,-1
 360 0 l 1,8,-1
 360 -120 l 1,9,-1
 240 -120 l 1,0,-1
480 360 m 1,10,-1
 480 480 l 1,11,-1
 600 480 l 1,12,-1
 600 360 l 1,13,-1
 480 360 l 1,10,-1
480 120 m 1,14,-1
 480 240 l 1,15,-1
 600 240 l 1,16,-1
 600 120 l 1,17,-1
 480 120 l 1,14,-1
120 120 m 1,18,-1
 0 120 l 1,19,-1
 0 240 l 1,20,-1
 0 360 l 1,21,-1
 0 480 l 1,22,-1
 120 480 l 1,23,-1
 120 360 l 1,24,-1
 120 240 l 1,25,-1
 120 120 l 1,18,-1
480 480 m 1,26,-1
 360 480 l 1,27,-1
 240 480 l 1,28,-1
 120 480 l 1,29,-1
 120 600 l 1,30,-1
 240 600 l 1,31,-1
 240 720 l 1,32,-1
 360 720 l 1,33,-1
 360 600 l 1,34,-1
 480 600 l 1,35,-1
 480 480 l 1,26,-1
EndSplineSet
Validated: 5
EndChar

StartChar: sterling
Encoding: 98 163 99
Width: 720
VWidth: 960
GlyphClass: 2
Flags: W
LayerCount: 2
Fore
SplineSet
480 600 m 1,0,-1
 480 720 l 1,1,-1
 600 720 l 1,2,-1
 600 600 l 1,3,-1
 480 600 l 1,0,-1
480 120 m 1,4,-1
 600 120 l 1,5,-1
 600 0 l 1,6,-1
 480 0 l 1,7,-1
 360 0 l 1,8,-1
 240 0 l 1,9,-1
 120 0 l 1,10,-1
 0 0 l 1,11,-1
 0 120 l 1,12,-1
 120 120 l 1,13,-1
 120 240 l 1,14,-1
 120 360 l 1,15,-1
 0 360 l 1,16,-1
 0 480 l 1,17,-1
 120 480 l 1,18,-1
 120 600 l 1,19,-1
 120 720 l 1,20,-1
 240 720 l 1,21,-1
 240 600 l 1,22,-1
 240 480 l 1,23,-1
 360 480 l 1,24,-1
 480 480 l 1,25,-1
 480 360 l 1,26,-1
 360 360 l 1,27,-1
 240 360 l 1,28,-1
 240 240 l 1,29,-1
 240 120 l 1,30,-1
 360 120 l 1,31,-1
 480 120 l 1,4,-1
480 720 m 1,32,-1
 360 720 l 1,33,-1
 240 720 l 1,34,-1
 240 840 l 1,35,-1
 360 840 l 1,36,-1
 480 840 l 1,37,-1
 480 720 l 1,32,-1
EndSplineSet
Validated: 5
EndChar

StartChar: currency
Encoding: 99 164 100
Width: 720
VWidth: 960
GlyphClass: 2
Flags: W
LayerCount: 2
Fore
SplineSet
600 0 m 1,0,-1
 600 120 l 1,1,-1
 720 120 l 1,2,-1
 720 0 l 1,3,-1
 600 0 l 1,0,-1
0 0 m 1,4,-1
 0 120 l 1,5,-1
 120 120 l 1,6,-1
 120 0 l 1,7,-1
 0 0 l 1,4,-1
360 120 m 1,8,-1
 480 120 l 1,9,-1
 480 0 l 1,10,-1
 360 0 l 1,11,-1
 240 0 l 1,12,-1
 240 120 l 1,13,-1
 360 120 l 1,8,-1
600 120 m 1,14,-1
 480 120 l 1,15,-1
 480 240 l 1,16,-1
 480 360 l 1,17,-1
 480 480 l 1,18,-1
 600 480 l 1,19,-1
 600 360 l 1,20,-1
 600 240 l 1,21,-1
 600 120 l 1,14,-1
240 120 m 1,22,-1
 120 120 l 1,23,-1
 120 240 l 1,24,-1
 120 360 l 1,25,-1
 120 480 l 1,26,-1
 240 480 l 1,27,-1
 240 360 l 1,28,-1
 240 240 l 1,29,-1
 240 120 l 1,22,-1
600 480 m 1,30,-1
 600 600 l 1,31,-1
 720 600 l 1,32,-1
 720 480 l 1,33,-1
 600 480 l 1,30,-1
480 480 m 1,34,-1
 360 480 l 1,35,-1
 240 480 l 1,36,-1
 240 600 l 1,37,-1
 360 600 l 1,38,-1
 480 600 l 1,39,-1
 480 480 l 1,34,-1
120 480 m 1,40,-1
 0 480 l 1,41,-1
 0 600 l 1,42,-1
 120 600 l 1,43,-1
 120 480 l 1,40,-1
EndSplineSet
Validated: 5
EndChar

StartChar: yen
Encoding: 100 165 101
Width: 720
VWidth: 960
GlyphClass: 2
Flags: W
LayerCount: 2
Fore
SplineSet
240 0 m 1,0,-1
 240 120 l 1,1,-1
 120 120 l 1,2,-1
 0 120 l 1,3,-1
 0 240 l 1,4,-1
 120 240 l 1,5,-1
 240 240 l 1,6,-1
 240 360 l 1,7,-1
 120 360 l 1,8,-1
 0 360 l 1,9,-1
 0 480 l 1,10,-1
 120 480 l 1,11,-1
 240 480 l 1,12,-1
 240 600 l 1,13,-1
 360 600 l 1,14,-1
 360 480 l 1,15,-1
 480 480 l 1,16,-1
 600 480 l 1,17,-1
 600 360 l 1,18,-1
 480 360 l 1,19,-1
 360 360 l 1,20,-1
 360 240 l 1,21,-1
 480 240 l 1,22,-1
 600 240 l 1,23,-1
 600 120 l 1,24,-1
 480 120 l 1,25,-1
 360 120 l 1,26,-1
 360 0 l 1,27,-1
 240 0 l 1,0,-1
360 600 m 1,28,-1
 360 720 l 1,29,-1
 480 720 l 1,30,-1
 480 600 l 1,31,-1
 360 600 l 1,28,-1
240 600 m 1,32,-1
 120 600 l 1,33,-1
 120 720 l 1,34,-1
 240 720 l 1,35,-1
 240 600 l 1,32,-1
480 720 m 1,36,-1
 480 840 l 1,37,-1
 600 840 l 1,38,-1
 600 720 l 1,39,-1
 480 720 l 1,36,-1
120 720 m 1,40,-1
 0 720 l 1,41,-1
 0 840 l 1,42,-1
 120 840 l 1,43,-1
 120 720 l 1,40,-1
EndSplineSet
Validated: 5
EndChar

StartChar: brokenbar
Encoding: 101 166 102
Width: 720
VWidth: 960
GlyphClass: 2
Flags: W
LayerCount: 2
Fore
SplineSet
120 0 m 1,0,-1
 120 120 l 1,1,-1
 120 240 l 1,2,-1
 120 360 l 1,3,-1
 240 360 l 1,4,-1
 240 240 l 1,5,-1
 240 120 l 1,6,-1
 240 0 l 1,7,-1
 120 0 l 1,0,-1
120 480 m 1,8,-1
 120 600 l 1,9,-1
 120 720 l 1,10,-1
 120 840 l 1,11,-1
 240 840 l 1,12,-1
 240 720 l 1,13,-1
 240 600 l 1,14,-1
 240 480 l 1,15,-1
 120 480 l 1,8,-1
EndSplineSet
Validated: 1
EndChar

StartChar: section
Encoding: 102 167 103
Width: 720
VWidth: 960
GlyphClass: 2
Flags: W
LayerCount: 2
Fore
SplineSet
360 120 m 1,0,-1
 480 120 l 1,1,-1
 480 0 l 1,2,-1
 360 0 l 1,3,-1
 240 0 l 1,4,-1
 120 0 l 1,5,-1
 0 0 l 1,6,-1
 0 120 l 1,7,-1
 120 120 l 1,8,-1
 240 120 l 1,9,-1
 360 120 l 1,0,-1
480 120 m 1,10,-1
 480 240 l 1,11,-1
 600 240 l 1,12,-1
 600 120 l 1,13,-1
 480 120 l 1,10,-1
480 240 m 1,14,-1
 360 240 l 1,15,-1
 240 240 l 1,16,-1
 120 240 l 1,17,-1
 120 360 l 1,18,-1
 240 360 l 1,19,-1
 360 360 l 1,20,-1
 480 360 l 1,21,-1
 480 240 l 1,14,-1
480 360 m 1,22,-1
 480 480 l 1,23,-1
 600 480 l 1,24,-1
 600 360 l 1,25,-1
 480 360 l 1,22,-1
120 360 m 1,26,-1
 0 360 l 1,27,-1
 0 480 l 1,28,-1
 120 480 l 1,29,-1
 120 360 l 1,26,-1
480 480 m 1,30,-1
 360 480 l 1,31,-1
 240 480 l 1,32,-1
 120 480 l 1,33,-1
 120 600 l 1,34,-1
 240 600 l 1,35,-1
 360 600 l 1,36,-1
 480 600 l 1,37,-1
 480 480 l 1,30,-1
120 600 m 1,38,-1
 0 600 l 1,39,-1
 0 720 l 1,40,-1
 120 720 l 1,41,-1
 120 600 l 1,38,-1
480 840 m 1,42,-1
 600 840 l 1,43,-1
 600 720 l 1,44,-1
 480 720 l 1,45,-1
 360 720 l 1,46,-1
 240 720 l 1,47,-1
 120 720 l 1,48,-1
 120 840 l 1,49,-1
 240 840 l 1,50,-1
 360 840 l 1,51,-1
 480 840 l 1,42,-1
EndSplineSet
Validated: 5
EndChar

StartChar: dieresis
Encoding: 103 168 104
Width: 720
VWidth: 960
GlyphClass: 2
Flags: W
LayerCount: 2
Fore
SplineSet
240 720 m 1,0,-1
 240 840 l 1,1,-1
 360 840 l 1,2,-1
 360 720 l 1,3,-1
 240 720 l 1,0,-1
0 720 m 1,4,-1
 0 840 l 1,5,-1
 120 840 l 1,6,-1
 120 720 l 1,7,-1
 0 720 l 1,4,-1
EndSplineSet
Validated: 1
EndChar

StartChar: copyright
Encoding: 104 169 105
Width: 720
VWidth: 960
GlyphClass: 2
Flags: W
LayerCount: 2
Fore
SplineSet
480 120 m 1,0,-1
 600 120 l 1,1,-1
 600 0 l 1,2,-1
 480 0 l 1,3,-1
 360 0 l 1,4,-1
 240 0 l 1,5,-1
 120 0 l 1,6,-1
 120 120 l 1,7,-1
 240 120 l 1,8,-1
 360 120 l 1,9,-1
 480 120 l 1,0,-1
600 120 m 1,10,-1
 600 240 l 1,11,-1
 600 360 l 1,12,-1
 600 480 l 1,13,-1
 600 600 l 1,14,-1
 600 720 l 1,15,-1
 720 720 l 1,16,-1
 720 600 l 1,17,-1
 720 480 l 1,18,-1
 720 360 l 1,19,-1
 720 240 l 1,20,-1
 720 120 l 1,21,-1
 600 120 l 1,10,-1
120 120 m 1,22,-1
 0 120 l 1,23,-1
 0 240 l 1,24,-1
 0 360 l 1,25,-1
 0 480 l 1,26,-1
 0 600 l 1,27,-1
 0 720 l 1,28,-1
 120 720 l 1,29,-1
 120 600 l 1,30,-1
 120 480 l 1,31,-1
 120 360 l 1,32,-1
 120 240 l 1,33,-1
 120 120 l 1,22,-1
360 240 m 1,34,-1
 240 240 l 1,35,-1
 240 360 l 1,36,-1
 240 480 l 1,37,-1
 240 600 l 1,38,-1
 360 600 l 1,39,-1
 480 600 l 1,40,-1
 480 480 l 1,41,-1
 360 480 l 1,42,-1
 360 360 l 1,43,-1
 480 360 l 1,44,-1
 480 240 l 1,45,-1
 360 240 l 1,34,-1
600 720 m 1,46,-1
 480 720 l 1,47,-1
 360 720 l 1,48,-1
 240 720 l 1,49,-1
 120 720 l 1,50,-1
 120 840 l 1,51,-1
 240 840 l 1,52,-1
 360 840 l 1,53,-1
 480 840 l 1,54,-1
 600 840 l 1,55,-1
 600 720 l 1,46,-1
EndSplineSet
Validated: 5
EndChar

StartChar: ordfeminine
Encoding: 105 170 106
Width: 720
VWidth: 960
GlyphClass: 2
Flags: W
LayerCount: 2
Fore
SplineSet
360 240 m 1,0,-1
 480 240 l 1,1,-1
 480 120 l 1,2,-1
 360 120 l 1,3,-1
 240 120 l 1,4,-1
 120 120 l 1,5,-1
 0 120 l 1,6,-1
 0 240 l 1,7,-1
 120 240 l 1,8,-1
 240 240 l 1,9,-1
 360 240 l 1,0,-1
360 360 m 1,10,-1
 240 360 l 1,11,-1
 120 360 l 1,12,-1
 120 480 l 1,13,-1
 0 480 l 1,14,-1
 0 600 l 1,15,-1
 120 600 l 1,16,-1
 240 600 l 1,17,-1
 360 600 l 1,18,-1
 360 720 l 1,19,-1
 480 720 l 1,20,-1
 480 600 l 1,21,-1
 480 480 l 1,22,-1
 480 360 l 1,23,-1
 360 360 l 1,10,-1
360 720 m 1,24,-1
 240 720 l 1,25,-1
 120 720 l 1,26,-1
 120 840 l 1,27,-1
 240 840 l 1,28,-1
 360 840 l 1,29,-1
 360 720 l 1,24,-1
EndSplineSet
Validated: 5
EndChar

StartChar: guillemotleft
Encoding: 106 171 107
Width: 720
VWidth: 960
GlyphClass: 2
Flags: W
LayerCount: 2
Fore
SplineSet
600 120 m 1,0,-1
 600 240 l 1,1,-1
 720 240 l 1,2,-1
 720 120 l 1,3,-1
 600 120 l 1,0,-1
240 120 m 1,4,-1
 240 240 l 1,5,-1
 360 240 l 1,6,-1
 360 120 l 1,7,-1
 240 120 l 1,4,-1
600 240 m 1,8,-1
 480 240 l 1,9,-1
 480 360 l 1,10,-1
 600 360 l 1,11,-1
 600 240 l 1,8,-1
240 240 m 1,12,-1
 120 240 l 1,13,-1
 120 360 l 1,14,-1
 240 360 l 1,15,-1
 240 240 l 1,12,-1
480 360 m 1,16,-1
 360 360 l 1,17,-1
 360 480 l 1,18,-1
 480 480 l 1,19,-1
 480 360 l 1,16,-1
120 360 m 1,20,-1
 0 360 l 1,21,-1
 0 480 l 1,22,-1
 120 480 l 1,23,-1
 120 360 l 1,20,-1
480 480 m 1,24,-1
 480 600 l 1,25,-1
 600 600 l 1,26,-1
 600 480 l 1,27,-1
 480 480 l 1,24,-1
120 480 m 1,28,-1
 120 600 l 1,29,-1
 240 600 l 1,30,-1
 240 480 l 1,31,-1
 120 480 l 1,28,-1
600 600 m 1,32,-1
 600 720 l 1,33,-1
 720 720 l 1,34,-1
 720 600 l 1,35,-1
 600 600 l 1,32,-1
240 600 m 1,36,-1
 240 720 l 1,37,-1
 360 720 l 1,38,-1
 360 600 l 1,39,-1
 240 600 l 1,36,-1
EndSplineSet
Validated: 5
EndChar

StartChar: logicalnot
Encoding: 107 172 108
Width: 720
VWidth: 960
GlyphClass: 2
Flags: W
LayerCount: 2
Fore
SplineSet
480 120 m 1,0,-1
 480 240 l 1,1,-1
 480 360 l 1,2,-1
 360 360 l 1,3,-1
 240 360 l 1,4,-1
 120 360 l 1,5,-1
 0 360 l 1,6,-1
 0 480 l 1,7,-1
 120 480 l 1,8,-1
 240 480 l 1,9,-1
 360 480 l 1,10,-1
 480 480 l 1,11,-1
 600 480 l 1,12,-1
 600 360 l 1,13,-1
 600 240 l 1,14,-1
 600 120 l 1,15,-1
 480 120 l 1,0,-1
EndSplineSet
Validated: 1
EndChar

StartChar: registered
Encoding: 108 174 109
Width: 720
VWidth: 960
GlyphClass: 2
Flags: W
LayerCount: 2
Fore
SplineSet
240 240 m 1,0,-1
 240 360 l 1,1,-1
 240 480 l 1,2,-1
 240 600 l 1,3,-1
 360 600 l 1,4,-1
 480 600 l 1,5,-1
 480 480 l 1,6,-1
 480 360 l 1,7,-1
 600 360 l 1,8,-1
 600 480 l 1,9,-1
 600 600 l 1,10,-1
 600 720 l 1,11,-1
 720 720 l 1,12,-1
 720 600 l 1,13,-1
 720 480 l 1,14,-1
 720 360 l 1,15,-1
 720 240 l 1,16,-1
 720 120 l 1,17,-1
 600 120 l 1,18,-1
 600 0 l 1,19,-1
 480 0 l 1,20,-1
 360 0 l 1,21,-1
 240 0 l 1,22,-1
 120 0 l 1,23,-1
 120 120 l 1,24,-1
 240 120 l 1,25,-1
 360 120 l 1,26,-1
 480 120 l 1,27,-1
 600 120 l 1,28,-1
 600 240 l 1,29,-1
 480 240 l 1,30,-1
 480 360 l 1,31,-1
 360 360 l 1,32,-1
 360 240 l 1,33,-1
 240 240 l 1,0,-1
120 120 m 1,34,-1
 0 120 l 1,35,-1
 0 240 l 1,36,-1
 0 360 l 1,37,-1
 0 480 l 1,38,-1
 0 600 l 1,39,-1
 0 720 l 1,40,-1
 120 720 l 1,41,-1
 120 600 l 1,42,-1
 120 480 l 1,43,-1
 120 360 l 1,44,-1
 120 240 l 1,45,-1
 120 120 l 1,34,-1
600 720 m 1,46,-1
 480 720 l 1,47,-1
 360 720 l 1,48,-1
 240 720 l 1,49,-1
 120 720 l 1,50,-1
 120 840 l 1,51,-1
 240 840 l 1,52,-1
 360 840 l 1,53,-1
 480 840 l 1,54,-1
 600 840 l 1,55,-1
 600 720 l 1,46,-1
EndSplineSet
Validated: 5
EndChar

StartChar: macron
Encoding: 109 175 110
Width: 720
VWidth: 960
GlyphClass: 2
Flags: W
LayerCount: 2
Fore
SplineSet
480 840 m 1,0,-1
 600 840 l 1,1,-1
 600 720 l 1,2,-1
 480 720 l 1,3,-1
 360 720 l 1,4,-1
 240 720 l 1,5,-1
 120 720 l 1,6,-1
 0 720 l 1,7,-1
 0 840 l 1,8,-1
 120 840 l 1,9,-1
 240 840 l 1,10,-1
 360 840 l 1,11,-1
 480 840 l 1,0,-1
EndSplineSet
Validated: 1
EndChar

StartChar: degree
Encoding: 110 176 111
Width: 720
VWidth: 960
GlyphClass: 2
Flags: W
LayerCount: 2
Fore
SplineSet
240 480 m 1,0,-1
 360 480 l 1,1,-1
 360 360 l 1,2,-1
 240 360 l 1,3,-1
 120 360 l 1,4,-1
 120 480 l 1,5,-1
 240 480 l 1,0,-1
360 480 m 1,6,-1
 360 600 l 1,7,-1
 360 720 l 1,8,-1
 480 720 l 1,9,-1
 480 600 l 1,10,-1
 480 480 l 1,11,-1
 360 480 l 1,6,-1
120 480 m 1,12,-1
 0 480 l 1,13,-1
 0 600 l 1,14,-1
 0 720 l 1,15,-1
 120 720 l 1,16,-1
 120 600 l 1,17,-1
 120 480 l 1,12,-1
360 720 m 1,18,-1
 240 720 l 1,19,-1
 120 720 l 1,20,-1
 120 840 l 1,21,-1
 240 840 l 1,22,-1
 360 840 l 1,23,-1
 360 720 l 1,18,-1
EndSplineSet
Validated: 5
EndChar

StartChar: plusminus
Encoding: 111 177 112
Width: 720
VWidth: 960
GlyphClass: 2
Flags: W
LayerCount: 2
Fore
SplineSet
240 240 m 1,0,-1
 240 360 l 1,1,-1
 240 480 l 1,2,-1
 120 480 l 1,3,-1
 0 480 l 1,4,-1
 0 600 l 1,5,-1
 120 600 l 1,6,-1
 240 600 l 1,7,-1
 240 720 l 1,8,-1
 240 840 l 1,9,-1
 360 840 l 1,10,-1
 360 720 l 1,11,-1
 360 600 l 1,12,-1
 480 600 l 1,13,-1
 600 600 l 1,14,-1
 600 480 l 1,15,-1
 480 480 l 1,16,-1
 360 480 l 1,17,-1
 360 360 l 1,18,-1
 360 240 l 1,19,-1
 240 240 l 1,0,-1
480 120 m 1,20,-1
 600 120 l 1,21,-1
 600 0 l 1,22,-1
 480 0 l 1,23,-1
 360 0 l 1,24,-1
 240 0 l 1,25,-1
 120 0 l 1,26,-1
 0 0 l 1,27,-1
 0 120 l 1,28,-1
 120 120 l 1,29,-1
 240 120 l 1,30,-1
 360 120 l 1,31,-1
 480 120 l 1,20,-1
EndSplineSet
Validated: 1
EndChar

StartChar: uni00B2
Encoding: 112 178 113
Width: 720
VWidth: 960
GlyphClass: 2
Flags: W
LayerCount: 2
Fore
SplineSet
0 600 m 1,0,-1
 0 720 l 1,1,-1
 120 720 l 1,2,-1
 120 600 l 1,3,-1
 0 600 l 1,0,-1
360 360 m 1,4,-1
 480 360 l 1,5,-1
 480 240 l 1,6,-1
 360 240 l 1,7,-1
 240 240 l 1,8,-1
 120 240 l 1,9,-1
 0 240 l 1,10,-1
 0 360 l 1,11,-1
 120 360 l 1,12,-1
 120 480 l 1,13,-1
 240 480 l 1,14,-1
 240 360 l 1,15,-1
 360 360 l 1,4,-1
240 480 m 1,16,-1
 240 600 l 1,17,-1
 360 600 l 1,18,-1
 360 480 l 1,19,-1
 240 480 l 1,16,-1
360 600 m 1,20,-1
 360 720 l 1,21,-1
 480 720 l 1,22,-1
 480 600 l 1,23,-1
 360 600 l 1,20,-1
360 720 m 1,24,-1
 240 720 l 1,25,-1
 120 720 l 1,26,-1
 120 840 l 1,27,-1
 240 840 l 1,28,-1
 360 840 l 1,29,-1
 360 720 l 1,24,-1
EndSplineSet
Validated: 5
EndChar

StartChar: uni00B3
Encoding: 113 179 114
Width: 720
VWidth: 960
GlyphClass: 2
Flags: W
LayerCount: 2
Fore
SplineSet
0 600 m 1,0,-1
 0 720 l 1,1,-1
 120 720 l 1,2,-1
 120 600 l 1,3,-1
 0 600 l 1,0,-1
240 360 m 1,4,-1
 360 360 l 1,5,-1
 360 240 l 1,6,-1
 240 240 l 1,7,-1
 120 240 l 1,8,-1
 120 360 l 1,9,-1
 240 360 l 1,4,-1
360 360 m 1,10,-1
 360 480 l 1,11,-1
 480 480 l 1,12,-1
 480 360 l 1,13,-1
 360 360 l 1,10,-1
120 360 m 1,14,-1
 0 360 l 1,15,-1
 0 480 l 1,16,-1
 120 480 l 1,17,-1
 120 360 l 1,14,-1
360 480 m 1,18,-1
 240 480 l 1,19,-1
 240 600 l 1,20,-1
 360 600 l 1,21,-1
 360 480 l 1,18,-1
360 600 m 1,22,-1
 360 720 l 1,23,-1
 480 720 l 1,24,-1
 480 600 l 1,25,-1
 360 600 l 1,22,-1
360 720 m 1,26,-1
 240 720 l 1,27,-1
 120 720 l 1,28,-1
 120 840 l 1,29,-1
 240 840 l 1,30,-1
 360 840 l 1,31,-1
 360 720 l 1,26,-1
EndSplineSet
Validated: 5
EndChar

StartChar: acute
Encoding: 114 180 115
Width: 720
VWidth: 960
GlyphClass: 2
Flags: W
LayerCount: 2
Fore
SplineSet
120 600 m 1,0,-1
 120 720 l 1,1,-1
 240 720 l 1,2,-1
 240 600 l 1,3,-1
 120 600 l 1,0,-1
240 720 m 1,4,-1
 240 840 l 1,5,-1
 360 840 l 1,6,-1
 360 720 l 1,7,-1
 240 720 l 1,4,-1
EndSplineSet
Validated: 5
EndChar

StartChar: uni00B5
Encoding: 115 181 116
Width: 720
VWidth: 960
GlyphClass: 2
Flags: W
LayerCount: 2
Fore
SplineSet
0 -120 m 1,0,-1
 0 0 l 1,1,-1
 0 120 l 1,2,-1
 0 240 l 1,3,-1
 0 360 l 1,4,-1
 0 480 l 1,5,-1
 0 600 l 1,6,-1
 120 600 l 1,7,-1
 120 480 l 1,8,-1
 120 360 l 1,9,-1
 120 240 l 1,10,-1
 120 120 l 1,11,-1
 240 120 l 1,12,-1
 360 120 l 1,13,-1
 480 120 l 1,14,-1
 480 0 l 1,15,-1
 360 0 l 1,16,-1
 240 0 l 1,17,-1
 120 0 l 1,18,-1
 120 -120 l 1,19,-1
 0 -120 l 1,0,-1
480 120 m 1,20,-1
 480 240 l 1,21,-1
 480 360 l 1,22,-1
 480 480 l 1,23,-1
 480 600 l 1,24,-1
 600 600 l 1,25,-1
 600 480 l 1,26,-1
 600 360 l 1,27,-1
 600 240 l 1,28,-1
 600 120 l 1,29,-1
 480 120 l 1,20,-1
EndSplineSet
Validated: 5
EndChar

StartChar: paragraph
Encoding: 116 182 117
Width: 720
VWidth: 960
GlyphClass: 2
Flags: W
LayerCount: 2
Fore
SplineSet
480 0 m 1,0,-1
 480 120 l 1,1,-1
 480 240 l 1,2,-1
 480 360 l 1,3,-1
 480 480 l 1,4,-1
 480 600 l 1,5,-1
 480 720 l 1,6,-1
 360 720 l 1,7,-1
 360 600 l 1,8,-1
 360 480 l 1,9,-1
 360 360 l 1,10,-1
 360 240 l 1,11,-1
 360 120 l 1,12,-1
 360 0 l 1,13,-1
 240 0 l 1,14,-1
 240 120 l 1,15,-1
 240 240 l 1,16,-1
 240 360 l 1,17,-1
 120 360 l 1,18,-1
 120 480 l 1,19,-1
 0 480 l 1,20,-1
 0 600 l 1,21,-1
 120 600 l 1,22,-1
 120 720 l 1,23,-1
 240 720 l 1,24,-1
 240 840 l 1,25,-1
 360 840 l 1,26,-1
 480 840 l 1,27,-1
 600 840 l 1,28,-1
 720 840 l 1,29,-1
 720 720 l 1,30,-1
 600 720 l 1,31,-1
 600 600 l 1,32,-1
 600 480 l 1,33,-1
 600 360 l 1,34,-1
 600 240 l 1,35,-1
 600 120 l 1,36,-1
 600 0 l 1,37,-1
 480 0 l 1,0,-1
EndSplineSet
Validated: 1
EndChar

StartChar: periodcentered
Encoding: 117 183 118
Width: 720
VWidth: 960
GlyphClass: 2
Flags: W
LayerCount: 2
Fore
SplineSet
240 360 m 1,0,-1
 240 480 l 1,1,-1
 360 480 l 1,2,-1
 360 360 l 1,3,-1
 240 360 l 1,0,-1
EndSplineSet
Validated: 1
EndChar

StartChar: cedilla
Encoding: 118 184 119
Width: 720
VWidth: 960
GlyphClass: 2
Flags: W
LayerCount: 2
Fore
SplineSet
120 0 m 1,0,-1
 240 0 l 1,1,-1
 240 -120 l 1,2,-1
 120 -120 l 1,3,-1
 0 -120 l 1,4,-1
 0 0 l 1,5,-1
 120 0 l 1,0,-1
240 0 m 1,6,-1
 240 120 l 1,7,-1
 360 120 l 1,8,-1
 360 0 l 1,9,-1
 240 0 l 1,6,-1
240 120 m 1,10,-1
 120 120 l 1,11,-1
 120 240 l 1,12,-1
 240 240 l 1,13,-1
 240 120 l 1,10,-1
EndSplineSet
Validated: 5
EndChar

StartChar: uni00B9
Encoding: 119 185 120
Width: 720
VWidth: 960
GlyphClass: 2
Flags: W
LayerCount: 2
Fore
SplineSet
240 240 m 1,0,-1
 120 240 l 1,1,-1
 0 240 l 1,2,-1
 0 360 l 1,3,-1
 120 360 l 1,4,-1
 120 480 l 1,5,-1
 120 600 l 1,6,-1
 0 600 l 1,7,-1
 0 720 l 1,8,-1
 120 720 l 1,9,-1
 120 840 l 1,10,-1
 240 840 l 1,11,-1
 240 720 l 1,12,-1
 240 600 l 1,13,-1
 240 480 l 1,14,-1
 240 360 l 1,15,-1
 360 360 l 1,16,-1
 360 240 l 1,17,-1
 240 240 l 1,0,-1
EndSplineSet
Validated: 1
EndChar

StartChar: ordmasculine
Encoding: 120 186 121
Width: 720
VWidth: 960
GlyphClass: 2
Flags: W
LayerCount: 2
Fore
SplineSet
360 240 m 1,0,-1
 480 240 l 1,1,-1
 480 120 l 1,2,-1
 360 120 l 1,3,-1
 240 120 l 1,4,-1
 120 120 l 1,5,-1
 0 120 l 1,6,-1
 0 240 l 1,7,-1
 120 240 l 1,8,-1
 240 240 l 1,9,-1
 360 240 l 1,0,-1
240 480 m 1,10,-1
 360 480 l 1,11,-1
 360 360 l 1,12,-1
 240 360 l 1,13,-1
 120 360 l 1,14,-1
 120 480 l 1,15,-1
 240 480 l 1,10,-1
360 480 m 1,16,-1
 360 600 l 1,17,-1
 360 720 l 1,18,-1
 480 720 l 1,19,-1
 480 600 l 1,20,-1
 480 480 l 1,21,-1
 360 480 l 1,16,-1
120 480 m 1,22,-1
 0 480 l 1,23,-1
 0 600 l 1,24,-1
 0 720 l 1,25,-1
 120 720 l 1,26,-1
 120 600 l 1,27,-1
 120 480 l 1,22,-1
360 720 m 1,28,-1
 240 720 l 1,29,-1
 120 720 l 1,30,-1
 120 840 l 1,31,-1
 240 840 l 1,32,-1
 360 840 l 1,33,-1
 360 720 l 1,28,-1
EndSplineSet
Validated: 5
EndChar

StartChar: guillemotright
Encoding: 121 187 122
Width: 720
VWidth: 960
GlyphClass: 2
Flags: W
LayerCount: 2
Fore
SplineSet
360 120 m 1,0,-1
 360 240 l 1,1,-1
 480 240 l 1,2,-1
 480 120 l 1,3,-1
 360 120 l 1,0,-1
0 120 m 1,4,-1
 0 240 l 1,5,-1
 120 240 l 1,6,-1
 120 120 l 1,7,-1
 0 120 l 1,4,-1
480 240 m 1,8,-1
 480 360 l 1,9,-1
 600 360 l 1,10,-1
 600 240 l 1,11,-1
 480 240 l 1,8,-1
120 240 m 1,12,-1
 120 360 l 1,13,-1
 240 360 l 1,14,-1
 240 240 l 1,15,-1
 120 240 l 1,12,-1
600 360 m 1,16,-1
 600 480 l 1,17,-1
 720 480 l 1,18,-1
 720 360 l 1,19,-1
 600 360 l 1,16,-1
240 360 m 1,20,-1
 240 480 l 1,21,-1
 360 480 l 1,22,-1
 360 360 l 1,23,-1
 240 360 l 1,20,-1
600 480 m 1,24,-1
 480 480 l 1,25,-1
 480 600 l 1,26,-1
 600 600 l 1,27,-1
 600 480 l 1,24,-1
240 480 m 1,28,-1
 120 480 l 1,29,-1
 120 600 l 1,30,-1
 240 600 l 1,31,-1
 240 480 l 1,28,-1
480 600 m 1,32,-1
 360 600 l 1,33,-1
 360 720 l 1,34,-1
 480 720 l 1,35,-1
 480 600 l 1,32,-1
120 600 m 1,36,-1
 0 600 l 1,37,-1
 0 720 l 1,38,-1
 120 720 l 1,39,-1
 120 600 l 1,36,-1
EndSplineSet
Validated: 5
EndChar

StartChar: onequarter
Encoding: 122 188 123
Width: 720
VWidth: 960
GlyphClass: 2
Flags: W
LayerCount: 2
Fore
SplineSet
600 0 m 1,0,-1
 600 120 l 1,1,-1
 480 120 l 1,2,-1
 360 120 l 1,3,-1
 360 240 l 1,4,-1
 360 360 l 1,5,-1
 480 360 l 1,6,-1
 480 480 l 1,7,-1
 600 480 l 1,8,-1
 720 480 l 1,9,-1
 720 360 l 1,10,-1
 720 240 l 1,11,-1
 720 120 l 1,12,-1
 720 0 l 1,13,-1
 600 0 l 1,0,-1
0 0 m 1,14,-1
 0 120 l 1,15,-1
 120 120 l 1,16,-1
 120 0 l 1,17,-1
 0 0 l 1,14,-1
120 120 m 1,18,-1
 120 240 l 1,19,-1
 120 360 l 1,20,-1
 240 360 l 1,21,-1
 240 240 l 1,22,-1
 240 120 l 1,23,-1
 120 120 l 1,18,-1
600 240 m 1,24,-1
 600 360 l 1,25,-1
 480 360 l 1,26,-1
 480 240 l 1,27,-1
 600 240 l 1,24,-1
360 360 m 1,28,-1
 240 360 l 1,29,-1
 240 480 l 1,30,-1
 360 480 l 1,31,-1
 360 360 l 1,28,-1
480 480 m 1,32,-1
 360 480 l 1,33,-1
 360 600 l 1,34,-1
 360 720 l 1,35,-1
 480 720 l 1,36,-1
 480 600 l 1,37,-1
 480 480 l 1,32,-1
240 480 m 1,38,-1
 120 480 l 1,39,-1
 120 600 l 1,40,-1
 120 720 l 1,41,-1
 0 720 l 1,42,-1
 0 840 l 1,43,-1
 120 840 l 1,44,-1
 120 960 l 1,45,-1
 240 960 l 1,46,-1
 240 840 l 1,47,-1
 240 720 l 1,48,-1
 240 600 l 1,49,-1
 240 480 l 1,38,-1
480 720 m 1,50,-1
 480 840 l 1,51,-1
 600 840 l 1,52,-1
 600 720 l 1,53,-1
 480 720 l 1,50,-1
EndSplineSet
Validated: 5
EndChar

StartChar: onehalf
Encoding: 123 189 124
Width: 720
VWidth: 960
GlyphClass: 2
Flags: W
LayerCount: 2
Fore
SplineSet
0 0 m 1,0,-1
 0 120 l 1,1,-1
 120 120 l 1,2,-1
 120 0 l 1,3,-1
 0 0 l 1,0,-1
600 0 m 1,4,-1
 480 0 l 1,5,-1
 480 120 l 1,6,-1
 480 240 l 1,7,-1
 600 240 l 1,8,-1
 600 120 l 1,9,-1
 720 120 l 1,10,-1
 720 0 l 1,11,-1
 600 0 l 1,4,-1
120 120 m 1,12,-1
 120 240 l 1,13,-1
 120 360 l 1,14,-1
 240 360 l 1,15,-1
 240 240 l 1,16,-1
 240 120 l 1,17,-1
 120 120 l 1,12,-1
600 240 m 1,18,-1
 600 360 l 1,19,-1
 480 360 l 1,20,-1
 480 480 l 1,21,-1
 600 480 l 1,22,-1
 720 480 l 1,23,-1
 720 360 l 1,24,-1
 720 240 l 1,25,-1
 600 240 l 1,18,-1
240 360 m 1,26,-1
 240 480 l 1,27,-1
 360 480 l 1,28,-1
 360 360 l 1,29,-1
 240 360 l 1,26,-1
480 480 m 1,30,-1
 360 480 l 1,31,-1
 360 600 l 1,32,-1
 360 720 l 1,33,-1
 480 720 l 1,34,-1
 480 600 l 1,35,-1
 480 480 l 1,30,-1
240 480 m 1,36,-1
 120 480 l 1,37,-1
 120 600 l 1,38,-1
 120 720 l 1,39,-1
 0 720 l 1,40,-1
 0 840 l 1,41,-1
 120 840 l 1,42,-1
 120 960 l 1,43,-1
 240 960 l 1,44,-1
 240 840 l 1,45,-1
 240 720 l 1,46,-1
 240 600 l 1,47,-1
 240 480 l 1,36,-1
480 720 m 1,48,-1
 480 840 l 1,49,-1
 600 840 l 1,50,-1
 600 720 l 1,51,-1
 480 720 l 1,48,-1
EndSplineSet
Validated: 5
EndChar

StartChar: threequarters
Encoding: 124 190 125
Width: 720
VWidth: 960
GlyphClass: 2
Flags: W
LayerCount: 2
Fore
SplineSet
600 0 m 1,0,-1
 600 120 l 1,1,-1
 480 120 l 1,2,-1
 360 120 l 1,3,-1
 360 240 l 1,4,-1
 360 360 l 1,5,-1
 480 360 l 1,6,-1
 480 480 l 1,7,-1
 600 480 l 1,8,-1
 720 480 l 1,9,-1
 720 360 l 1,10,-1
 720 240 l 1,11,-1
 720 120 l 1,12,-1
 720 0 l 1,13,-1
 600 0 l 1,0,-1
0 0 m 1,14,-1
 0 120 l 1,15,-1
 120 120 l 1,16,-1
 120 0 l 1,17,-1
 0 0 l 1,14,-1
120 120 m 1,18,-1
 120 240 l 1,19,-1
 120 360 l 1,20,-1
 240 360 l 1,21,-1
 240 240 l 1,22,-1
 240 120 l 1,23,-1
 120 120 l 1,18,-1
600 240 m 1,24,-1
 600 360 l 1,25,-1
 480 360 l 1,26,-1
 480 240 l 1,27,-1
 600 240 l 1,24,-1
360 360 m 1,28,-1
 240 360 l 1,29,-1
 240 480 l 1,30,-1
 360 480 l 1,31,-1
 360 360 l 1,28,-1
480 480 m 1,32,-1
 360 480 l 1,33,-1
 360 600 l 1,34,-1
 240 600 l 1,35,-1
 240 480 l 1,36,-1
 120 480 l 1,37,-1
 0 480 l 1,38,-1
 0 600 l 1,39,-1
 120 600 l 1,40,-1
 240 600 l 1,41,-1
 240 720 l 1,42,-1
 360 720 l 1,43,-1
 480 720 l 1,44,-1
 480 600 l 1,45,-1
 480 480 l 1,32,-1
480 720 m 1,46,-1
 480 840 l 1,47,-1
 600 840 l 1,48,-1
 600 720 l 1,49,-1
 480 720 l 1,46,-1
240 720 m 1,50,-1
 120 720 l 1,51,-1
 120 840 l 1,52,-1
 0 840 l 1,53,-1
 0 960 l 1,54,-1
 120 960 l 1,55,-1
 240 960 l 1,56,-1
 360 960 l 1,57,-1
 360 840 l 1,58,-1
 240 840 l 1,59,-1
 240 720 l 1,50,-1
EndSplineSet
Validated: 5
EndChar

StartChar: questiondown
Encoding: 125 191 126
Width: 720
VWidth: 960
GlyphClass: 2
Flags: W
LayerCount: 2
Fore
SplineSet
240 600 m 1,0,-1
 240 720 l 1,1,-1
 360 720 l 1,2,-1
 360 600 l 1,3,-1
 240 600 l 1,0,-1
360 0 m 1,4,-1
 480 0 l 1,5,-1
 480 -120 l 1,6,-1
 360 -120 l 1,7,-1
 240 -120 l 1,8,-1
 120 -120 l 1,9,-1
 120 0 l 1,10,-1
 240 0 l 1,11,-1
 360 0 l 1,4,-1
480 0 m 1,12,-1
 480 120 l 1,13,-1
 600 120 l 1,14,-1
 600 0 l 1,15,-1
 480 0 l 1,12,-1
120 0 m 1,16,-1
 0 0 l 1,17,-1
 0 120 l 1,18,-1
 0 240 l 1,19,-1
 120 240 l 1,20,-1
 120 120 l 1,21,-1
 120 0 l 1,16,-1
120 240 m 1,22,-1
 120 360 l 1,23,-1
 240 360 l 1,24,-1
 240 240 l 1,25,-1
 120 240 l 1,22,-1
240 360 m 1,26,-1
 240 480 l 1,27,-1
 360 480 l 1,28,-1
 360 360 l 1,29,-1
 240 360 l 1,26,-1
EndSplineSet
Validated: 5
EndChar

StartChar: Agrave
Encoding: 126 192 127
Width: 720
VWidth: 960
GlyphClass: 2
Flags: W
LayerCount: 2
Fore
SplineSet
480 0 m 1,0,-1
 480 120 l 1,1,-1
 480 240 l 1,2,-1
 480 360 l 1,3,-1
 480 480 l 1,4,-1
 360 480 l 1,5,-1
 240 480 l 1,6,-1
 120 480 l 1,7,-1
 120 360 l 1,8,-1
 120 240 l 1,9,-1
 120 120 l 1,10,-1
 120 0 l 1,11,-1
 0 0 l 1,12,-1
 0 120 l 1,13,-1
 0 240 l 1,14,-1
 0 360 l 1,15,-1
 0 480 l 1,16,-1
 0 600 l 1,17,-1
 0 720 l 1,18,-1
 120 720 l 1,19,-1
 120 600 l 1,20,-1
 240 600 l 1,21,-1
 360 600 l 1,22,-1
 480 600 l 1,23,-1
 480 720 l 1,24,-1
 600 720 l 1,25,-1
 600 600 l 1,26,-1
 600 480 l 1,27,-1
 600 360 l 1,28,-1
 600 240 l 1,29,-1
 600 120 l 1,30,-1
 600 0 l 1,31,-1
 480 0 l 1,0,-1
240 960 m 1,32,-1
 240 1080 l 1,33,-1
 360 1080 l 1,34,-1
 360 960 l 1,35,-1
 240 960 l 1,32,-1
480 720 m 1,36,-1
 360 720 l 1,37,-1
 240 720 l 1,38,-1
 120 720 l 1,39,-1
 120 840 l 1,40,-1
 240 840 l 1,41,-1
 360 840 l 1,42,-1
 480 840 l 1,43,-1
 480 720 l 1,36,-1
240 1080 m 1,44,-1
 120 1080 l 1,45,-1
 120 1200 l 1,46,-1
 240 1200 l 1,47,-1
 240 1080 l 1,44,-1
EndSplineSet
Validated: 5
EndChar

StartChar: Aacute
Encoding: 127 193 128
Width: 720
VWidth: 960
GlyphClass: 2
Flags: W
LayerCount: 2
Fore
SplineSet
480 0 m 1,0,-1
 480 120 l 1,1,-1
 480 240 l 1,2,-1
 480 360 l 1,3,-1
 480 480 l 1,4,-1
 360 480 l 1,5,-1
 240 480 l 1,6,-1
 120 480 l 1,7,-1
 120 360 l 1,8,-1
 120 240 l 1,9,-1
 120 120 l 1,10,-1
 120 0 l 1,11,-1
 0 0 l 1,12,-1
 0 120 l 1,13,-1
 0 240 l 1,14,-1
 0 360 l 1,15,-1
 0 480 l 1,16,-1
 0 600 l 1,17,-1
 0 720 l 1,18,-1
 120 720 l 1,19,-1
 120 600 l 1,20,-1
 240 600 l 1,21,-1
 360 600 l 1,22,-1
 480 600 l 1,23,-1
 480 720 l 1,24,-1
 600 720 l 1,25,-1
 600 600 l 1,26,-1
 600 480 l 1,27,-1
 600 360 l 1,28,-1
 600 240 l 1,29,-1
 600 120 l 1,30,-1
 600 0 l 1,31,-1
 480 0 l 1,0,-1
240 960 m 1,32,-1
 240 1080 l 1,33,-1
 360 1080 l 1,34,-1
 360 960 l 1,35,-1
 240 960 l 1,32,-1
480 720 m 1,36,-1
 360 720 l 1,37,-1
 240 720 l 1,38,-1
 120 720 l 1,39,-1
 120 840 l 1,40,-1
 240 840 l 1,41,-1
 360 840 l 1,42,-1
 480 840 l 1,43,-1
 480 720 l 1,36,-1
360 1080 m 1,44,-1
 360 1200 l 1,45,-1
 480 1200 l 1,46,-1
 480 1080 l 1,47,-1
 360 1080 l 1,44,-1
EndSplineSet
Validated: 5
EndChar

StartChar: Acircumflex
Encoding: 128 194 129
Width: 720
VWidth: 960
GlyphClass: 2
Flags: W
LayerCount: 2
Fore
SplineSet
480 0 m 1,0,-1
 480 120 l 1,1,-1
 480 240 l 1,2,-1
 480 360 l 1,3,-1
 480 480 l 1,4,-1
 360 480 l 1,5,-1
 240 480 l 1,6,-1
 120 480 l 1,7,-1
 120 360 l 1,8,-1
 120 240 l 1,9,-1
 120 120 l 1,10,-1
 120 0 l 1,11,-1
 0 0 l 1,12,-1
 0 120 l 1,13,-1
 0 240 l 1,14,-1
 0 360 l 1,15,-1
 0 480 l 1,16,-1
 0 600 l 1,17,-1
 0 720 l 1,18,-1
 120 720 l 1,19,-1
 120 600 l 1,20,-1
 240 600 l 1,21,-1
 360 600 l 1,22,-1
 480 600 l 1,23,-1
 480 720 l 1,24,-1
 600 720 l 1,25,-1
 600 600 l 1,26,-1
 600 480 l 1,27,-1
 600 360 l 1,28,-1
 600 240 l 1,29,-1
 600 120 l 1,30,-1
 600 0 l 1,31,-1
 480 0 l 1,0,-1
360 960 m 1,32,-1
 360 1080 l 1,33,-1
 480 1080 l 1,34,-1
 480 960 l 1,35,-1
 360 960 l 1,32,-1
120 960 m 1,36,-1
 120 1080 l 1,37,-1
 240 1080 l 1,38,-1
 240 960 l 1,39,-1
 120 960 l 1,36,-1
480 720 m 1,40,-1
 360 720 l 1,41,-1
 240 720 l 1,42,-1
 120 720 l 1,43,-1
 120 840 l 1,44,-1
 240 840 l 1,45,-1
 360 840 l 1,46,-1
 480 840 l 1,47,-1
 480 720 l 1,40,-1
360 1080 m 1,48,-1
 240 1080 l 1,49,-1
 240 1200 l 1,50,-1
 360 1200 l 1,51,-1
 360 1080 l 1,48,-1
EndSplineSet
Validated: 5
EndChar

StartChar: Atilde
Encoding: 129 195 130
Width: 720
VWidth: 960
GlyphClass: 2
Flags: W
LayerCount: 2
Fore
SplineSet
480 0 m 1,0,-1
 480 120 l 1,1,-1
 480 240 l 1,2,-1
 480 360 l 1,3,-1
 480 480 l 1,4,-1
 360 480 l 1,5,-1
 240 480 l 1,6,-1
 120 480 l 1,7,-1
 120 360 l 1,8,-1
 120 240 l 1,9,-1
 120 120 l 1,10,-1
 120 0 l 1,11,-1
 0 0 l 1,12,-1
 0 120 l 1,13,-1
 0 240 l 1,14,-1
 0 360 l 1,15,-1
 0 480 l 1,16,-1
 0 600 l 1,17,-1
 0 720 l 1,18,-1
 120 720 l 1,19,-1
 120 600 l 1,20,-1
 240 600 l 1,21,-1
 360 600 l 1,22,-1
 480 600 l 1,23,-1
 480 720 l 1,24,-1
 600 720 l 1,25,-1
 600 600 l 1,26,-1
 600 480 l 1,27,-1
 600 360 l 1,28,-1
 600 240 l 1,29,-1
 600 120 l 1,30,-1
 600 0 l 1,31,-1
 480 0 l 1,0,-1
360 960 m 1,32,-1
 360 1080 l 1,33,-1
 480 1080 l 1,34,-1
 480 960 l 1,35,-1
 360 960 l 1,32,-1
120 960 m 1,36,-1
 120 1080 l 1,37,-1
 240 1080 l 1,38,-1
 240 960 l 1,39,-1
 120 960 l 1,36,-1
480 720 m 1,40,-1
 360 720 l 1,41,-1
 240 720 l 1,42,-1
 120 720 l 1,43,-1
 120 840 l 1,44,-1
 240 840 l 1,45,-1
 360 840 l 1,46,-1
 480 840 l 1,47,-1
 480 720 l 1,40,-1
480 1080 m 1,48,-1
 480 1200 l 1,49,-1
 600 1200 l 1,50,-1
 600 1080 l 1,51,-1
 480 1080 l 1,48,-1
360 1080 m 1,52,-1
 240 1080 l 1,53,-1
 240 1200 l 1,54,-1
 360 1200 l 1,55,-1
 360 1080 l 1,52,-1
EndSplineSet
Validated: 5
EndChar

StartChar: Adieresis
Encoding: 130 196 131
Width: 720
VWidth: 960
GlyphClass: 2
Flags: W
LayerCount: 2
Fore
SplineSet
480 0 m 1,0,-1
 480 120 l 1,1,-1
 480 240 l 1,2,-1
 480 360 l 1,3,-1
 480 480 l 1,4,-1
 360 480 l 1,5,-1
 240 480 l 1,6,-1
 120 480 l 1,7,-1
 120 360 l 1,8,-1
 120 240 l 1,9,-1
 120 120 l 1,10,-1
 120 0 l 1,11,-1
 0 0 l 1,12,-1
 0 120 l 1,13,-1
 0 240 l 1,14,-1
 0 360 l 1,15,-1
 0 480 l 1,16,-1
 0 600 l 1,17,-1
 0 720 l 1,18,-1
 120 720 l 1,19,-1
 120 600 l 1,20,-1
 240 600 l 1,21,-1
 360 600 l 1,22,-1
 480 600 l 1,23,-1
 480 720 l 1,24,-1
 600 720 l 1,25,-1
 600 600 l 1,26,-1
 600 480 l 1,27,-1
 600 360 l 1,28,-1
 600 240 l 1,29,-1
 600 120 l 1,30,-1
 600 0 l 1,31,-1
 480 0 l 1,0,-1
360 960 m 1,32,-1
 360 1080 l 1,33,-1
 480 1080 l 1,34,-1
 480 960 l 1,35,-1
 360 960 l 1,32,-1
120 960 m 1,36,-1
 120 1080 l 1,37,-1
 240 1080 l 1,38,-1
 240 960 l 1,39,-1
 120 960 l 1,36,-1
480 720 m 1,40,-1
 360 720 l 1,41,-1
 240 720 l 1,42,-1
 120 720 l 1,43,-1
 120 840 l 1,44,-1
 240 840 l 1,45,-1
 360 840 l 1,46,-1
 480 840 l 1,47,-1
 480 720 l 1,40,-1
EndSplineSet
Validated: 5
EndChar

StartChar: Aring
Encoding: 131 197 132
Width: 720
VWidth: 960
GlyphClass: 2
Flags: W
LayerCount: 2
Fore
SplineSet
480 0 m 1,0,-1
 480 120 l 1,1,-1
 480 240 l 1,2,-1
 480 360 l 1,3,-1
 480 480 l 1,4,-1
 360 480 l 1,5,-1
 240 480 l 1,6,-1
 120 480 l 1,7,-1
 120 360 l 1,8,-1
 120 240 l 1,9,-1
 120 120 l 1,10,-1
 120 0 l 1,11,-1
 0 0 l 1,12,-1
 0 120 l 1,13,-1
 0 240 l 1,14,-1
 0 360 l 1,15,-1
 0 480 l 1,16,-1
 0 600 l 1,17,-1
 0 720 l 1,18,-1
 120 720 l 5,19,-1
 120 600 l 1,20,-1
 240 600 l 1,21,-1
 360 600 l 1,22,-1
 480 600 l 1,23,-1
 480 720 l 1,24,-1
 600 720 l 1,25,-1
 600 600 l 1,26,-1
 600 480 l 1,27,-1
 600 360 l 1,28,-1
 600 240 l 1,29,-1
 600 120 l 1,30,-1
 600 0 l 1,31,-1
 480 0 l 1,0,-1
480 720 m 1,32,-1
 360 720 l 1,33,-1
 240 720 l 1,34,-1
 120 720 l 1,35,-1
 120 840 l 1,36,-1
 240 840 l 1,37,-1
 240 960 l 1,38,-1
 360 960 l 1,39,-1
 360 840 l 1,40,-1
 480 840 l 1,41,-1
 480 720 l 1,32,-1
360 960 m 1,42,-1
 360 1080 l 1,43,-1
 480 1080 l 1,44,-1
 480 960 l 1,45,-1
 360 960 l 1,42,-1
240 960 m 1,46,-1
 120 960 l 1,47,-1
 120 1080 l 1,48,-1
 240 1080 l 1,49,-1
 240 960 l 1,46,-1
360 1080 m 1,50,-1
 240 1080 l 1,51,-1
 240 1200 l 1,52,-1
 360 1200 l 1,53,-1
 360 1080 l 1,50,-1
EndSplineSet
Validated: 5
EndChar

StartChar: AE
Encoding: 132 198 133
Width: 720
VWidth: 960
GlyphClass: 2
Flags: W
LayerCount: 2
Fore
SplineSet
0 0 m 1,0,-1
 0 120 l 1,1,-1
 0 240 l 1,2,-1
 0 360 l 1,3,-1
 0 480 l 1,4,-1
 0 600 l 1,5,-1
 0 720 l 1,6,-1
 120 720 l 1,7,-1
 120 840 l 1,8,-1
 240 840 l 1,9,-1
 360 840 l 1,10,-1
 480 840 l 1,11,-1
 600 840 l 1,12,-1
 600 720 l 1,13,-1
 480 720 l 1,14,-1
 360 720 l 1,15,-1
 360 600 l 1,16,-1
 480 600 l 1,17,-1
 480 480 l 1,18,-1
 360 480 l 1,19,-1
 360 360 l 1,20,-1
 360 240 l 1,21,-1
 360 120 l 1,22,-1
 480 120 l 1,23,-1
 600 120 l 1,24,-1
 600 0 l 1,25,-1
 480 0 l 1,26,-1
 360 0 l 1,27,-1
 240 0 l 1,28,-1
 240 120 l 1,29,-1
 240 240 l 1,30,-1
 240 360 l 1,31,-1
 240 480 l 1,32,-1
 120 480 l 1,33,-1
 120 360 l 1,34,-1
 120 240 l 1,35,-1
 120 120 l 1,36,-1
 120 0 l 1,37,-1
 0 0 l 1,0,-1
240 600 m 1,38,-1
 240 720 l 1,39,-1
 120 720 l 1,40,-1
 120 600 l 1,41,-1
 240 600 l 1,38,-1
EndSplineSet
Validated: 5
EndChar

StartChar: Ccedilla
Encoding: 133 199 134
Width: 720
VWidth: 960
GlyphClass: 2
Flags: W
LayerCount: 2
Fore
SplineSet
240 -240 m 1,0,-1
 240 -120 l 1,1,-1
 360 -120 l 1,2,-1
 360 -240 l 1,3,-1
 240 -240 l 1,0,-1
480 600 m 1,4,-1
 480 720 l 1,5,-1
 600 720 l 1,6,-1
 600 600 l 1,7,-1
 480 600 l 1,4,-1
360 -120 m 1,8,-1
 360 0 l 1,9,-1
 240 0 l 1,10,-1
 120 0 l 1,11,-1
 120 120 l 1,12,-1
 240 120 l 1,13,-1
 360 120 l 1,14,-1
 480 120 l 1,15,-1
 480 0 l 1,16,-1
 480 -120 l 1,17,-1
 360 -120 l 1,8,-1
480 120 m 1,18,-1
 480 240 l 1,19,-1
 600 240 l 1,20,-1
 600 120 l 1,21,-1
 480 120 l 1,18,-1
120 120 m 1,22,-1
 0 120 l 1,23,-1
 0 240 l 1,24,-1
 0 360 l 1,25,-1
 0 480 l 1,26,-1
 0 600 l 1,27,-1
 0 720 l 1,28,-1
 120 720 l 1,29,-1
 120 600 l 1,30,-1
 120 480 l 1,31,-1
 120 360 l 1,32,-1
 120 240 l 1,33,-1
 120 120 l 1,22,-1
480 720 m 1,34,-1
 360 720 l 1,35,-1
 240 720 l 1,36,-1
 120 720 l 1,37,-1
 120 840 l 1,38,-1
 240 840 l 1,39,-1
 360 840 l 1,40,-1
 480 840 l 1,41,-1
 480 720 l 1,34,-1
EndSplineSet
Validated: 5
EndChar

StartChar: Egrave
Encoding: 134 200 135
Width: 720
VWidth: 960
GlyphClass: 2
Flags: W
LayerCount: 2
Fore
SplineSet
240 960 m 1,0,-1
 240 1080 l 1,1,-1
 360 1080 l 1,2,-1
 360 960 l 1,3,-1
 240 960 l 1,0,-1
480 120 m 1,4,-1
 600 120 l 1,5,-1
 600 0 l 1,6,-1
 480 0 l 1,7,-1
 360 0 l 1,8,-1
 240 0 l 1,9,-1
 120 0 l 1,10,-1
 0 0 l 1,11,-1
 0 120 l 1,12,-1
 0 240 l 1,13,-1
 0 360 l 1,14,-1
 0 480 l 1,15,-1
 0 600 l 1,16,-1
 0 720 l 1,17,-1
 0 840 l 1,18,-1
 120 840 l 1,19,-1
 240 840 l 1,20,-1
 360 840 l 1,21,-1
 480 840 l 1,22,-1
 600 840 l 1,23,-1
 600 720 l 1,24,-1
 480 720 l 1,25,-1
 360 720 l 1,26,-1
 240 720 l 1,27,-1
 120 720 l 1,28,-1
 120 600 l 1,29,-1
 240 600 l 1,30,-1
 360 600 l 1,31,-1
 360 480 l 1,32,-1
 240 480 l 1,33,-1
 120 480 l 1,34,-1
 120 360 l 1,35,-1
 120 240 l 1,36,-1
 120 120 l 1,37,-1
 240 120 l 1,38,-1
 360 120 l 1,39,-1
 480 120 l 1,4,-1
240 1080 m 1,40,-1
 120 1080 l 1,41,-1
 120 1200 l 1,42,-1
 240 1200 l 1,43,-1
 240 1080 l 1,40,-1
EndSplineSet
Validated: 5
EndChar

StartChar: Eacute
Encoding: 135 201 136
Width: 720
VWidth: 960
GlyphClass: 2
Flags: W
LayerCount: 2
Fore
SplineSet
240 960 m 5,0,-1
 240 1080 l 5,1,-1
 360 1080 l 5,2,-1
 360 960 l 5,3,-1
 240 960 l 5,0,-1
480 120 m 1,4,-1
 600 120 l 1,5,-1
 600 0 l 1,6,-1
 480 0 l 1,7,-1
 360 0 l 1,8,-1
 240 0 l 1,9,-1
 120 0 l 1,10,-1
 0 0 l 1,11,-1
 0 120 l 1,12,-1
 0 240 l 1,13,-1
 0 360 l 1,14,-1
 0 480 l 1,15,-1
 0 600 l 1,16,-1
 0 720 l 1,17,-1
 0 840 l 1,18,-1
 120 840 l 1,19,-1
 240 840 l 1,20,-1
 360 840 l 1,21,-1
 480 840 l 1,22,-1
 600 840 l 1,23,-1
 600 720 l 1,24,-1
 480 720 l 1,25,-1
 360 720 l 1,26,-1
 240 720 l 1,27,-1
 120 720 l 1,28,-1
 120 600 l 1,29,-1
 240 600 l 1,30,-1
 360 600 l 1,31,-1
 360 480 l 1,32,-1
 240 480 l 1,33,-1
 120 480 l 1,34,-1
 120 360 l 1,35,-1
 120 240 l 1,36,-1
 120 120 l 1,37,-1
 240 120 l 1,38,-1
 360 120 l 1,39,-1
 480 120 l 1,4,-1
360 1080 m 5,40,-1
 360 1200 l 5,41,-1
 480 1200 l 5,42,-1
 480 1080 l 5,43,-1
 360 1080 l 5,40,-1
EndSplineSet
Validated: 5
EndChar

StartChar: Ecircumflex
Encoding: 136 202 137
Width: 720
VWidth: 960
GlyphClass: 2
Flags: W
LayerCount: 2
Fore
SplineSet
360 960 m 1,0,-1
 360 1080 l 1,1,-1
 480 1080 l 1,2,-1
 480 960 l 1,3,-1
 360 960 l 1,0,-1
120 960 m 1,4,-1
 120 1080 l 1,5,-1
 240 1080 l 1,6,-1
 240 960 l 1,7,-1
 120 960 l 1,4,-1
480 120 m 1,8,-1
 600 120 l 1,9,-1
 600 0 l 1,10,-1
 480 0 l 1,11,-1
 360 0 l 1,12,-1
 240 0 l 1,13,-1
 120 0 l 1,14,-1
 0 0 l 1,15,-1
 0 120 l 1,16,-1
 0 240 l 1,17,-1
 0 360 l 1,18,-1
 0 480 l 1,19,-1
 0 600 l 1,20,-1
 0 720 l 1,21,-1
 0 840 l 1,22,-1
 120 840 l 1,23,-1
 240 840 l 1,24,-1
 360 840 l 1,25,-1
 480 840 l 1,26,-1
 600 840 l 1,27,-1
 600 720 l 1,28,-1
 480 720 l 1,29,-1
 360 720 l 1,30,-1
 240 720 l 1,31,-1
 120 720 l 1,32,-1
 120 600 l 1,33,-1
 240 600 l 1,34,-1
 360 600 l 1,35,-1
 360 480 l 1,36,-1
 240 480 l 1,37,-1
 120 480 l 1,38,-1
 120 360 l 1,39,-1
 120 240 l 1,40,-1
 120 120 l 1,41,-1
 240 120 l 1,42,-1
 360 120 l 1,43,-1
 480 120 l 1,8,-1
360 1080 m 1,44,-1
 240 1080 l 1,45,-1
 240 1200 l 1,46,-1
 360 1200 l 1,47,-1
 360 1080 l 1,44,-1
EndSplineSet
Validated: 5
EndChar

StartChar: Edieresis
Encoding: 137 203 138
Width: 720
VWidth: 960
GlyphClass: 2
Flags: W
LayerCount: 2
Fore
SplineSet
360 960 m 1,0,-1
 360 1080 l 1,1,-1
 480 1080 l 1,2,-1
 480 960 l 1,3,-1
 360 960 l 1,0,-1
120 960 m 1,4,-1
 120 1080 l 1,5,-1
 240 1080 l 1,6,-1
 240 960 l 1,7,-1
 120 960 l 1,4,-1
480 120 m 1,8,-1
 600 120 l 1,9,-1
 600 0 l 1,10,-1
 480 0 l 1,11,-1
 360 0 l 1,12,-1
 240 0 l 1,13,-1
 120 0 l 1,14,-1
 0 0 l 1,15,-1
 0 120 l 1,16,-1
 0 240 l 1,17,-1
 0 360 l 1,18,-1
 0 480 l 1,19,-1
 0 600 l 1,20,-1
 0 720 l 1,21,-1
 0 840 l 1,22,-1
 120 840 l 1,23,-1
 240 840 l 1,24,-1
 360 840 l 1,25,-1
 480 840 l 1,26,-1
 600 840 l 1,27,-1
 600 720 l 1,28,-1
 480 720 l 1,29,-1
 360 720 l 1,30,-1
 240 720 l 1,31,-1
 120 720 l 1,32,-1
 120 600 l 1,33,-1
 240 600 l 1,34,-1
 360 600 l 1,35,-1
 360 480 l 1,36,-1
 240 480 l 1,37,-1
 120 480 l 1,38,-1
 120 360 l 1,39,-1
 120 240 l 1,40,-1
 120 120 l 1,41,-1
 240 120 l 1,42,-1
 360 120 l 1,43,-1
 480 120 l 1,8,-1
EndSplineSet
Validated: 1
EndChar

StartChar: Igrave
Encoding: 138 204 139
Width: 720
VWidth: 960
GlyphClass: 2
Flags: W
LayerCount: 2
Fore
SplineSet
240 960 m 1,0,-1
 240 1080 l 1,1,-1
 360 1080 l 1,2,-1
 360 960 l 1,3,-1
 240 960 l 1,0,-1
360 0 m 1,4,-1
 240 0 l 1,5,-1
 120 0 l 1,6,-1
 120 120 l 1,7,-1
 240 120 l 1,8,-1
 240 240 l 1,9,-1
 240 360 l 1,10,-1
 240 480 l 1,11,-1
 240 600 l 1,12,-1
 240 720 l 1,13,-1
 120 720 l 1,14,-1
 120 840 l 1,15,-1
 240 840 l 1,16,-1
 360 840 l 1,17,-1
 480 840 l 1,18,-1
 480 720 l 1,19,-1
 360 720 l 1,20,-1
 360 600 l 1,21,-1
 360 480 l 1,22,-1
 360 360 l 1,23,-1
 360 240 l 1,24,-1
 360 120 l 1,25,-1
 480 120 l 1,26,-1
 480 0 l 1,27,-1
 360 0 l 1,4,-1
240 1080 m 1,28,-1
 120 1080 l 1,29,-1
 120 1200 l 1,30,-1
 240 1200 l 1,31,-1
 240 1080 l 1,28,-1
EndSplineSet
Validated: 5
EndChar

StartChar: Iacute
Encoding: 139 205 140
Width: 720
VWidth: 960
GlyphClass: 2
Flags: W
LayerCount: 2
Fore
SplineSet
240 960 m 1,0,-1
 240 1080 l 1,1,-1
 360 1080 l 1,2,-1
 360 960 l 1,3,-1
 240 960 l 1,0,-1
360 0 m 1,4,-1
 240 0 l 1,5,-1
 120 0 l 1,6,-1
 120 120 l 1,7,-1
 240 120 l 1,8,-1
 240 240 l 1,9,-1
 240 360 l 1,10,-1
 240 480 l 1,11,-1
 240 600 l 1,12,-1
 240 720 l 1,13,-1
 120 720 l 1,14,-1
 120 840 l 1,15,-1
 240 840 l 1,16,-1
 360 840 l 1,17,-1
 480 840 l 1,18,-1
 480 720 l 1,19,-1
 360 720 l 1,20,-1
 360 600 l 1,21,-1
 360 480 l 1,22,-1
 360 360 l 1,23,-1
 360 240 l 1,24,-1
 360 120 l 1,25,-1
 480 120 l 1,26,-1
 480 0 l 1,27,-1
 360 0 l 1,4,-1
360 1080 m 1,28,-1
 360 1200 l 1,29,-1
 480 1200 l 1,30,-1
 480 1080 l 1,31,-1
 360 1080 l 1,28,-1
EndSplineSet
Validated: 5
EndChar

StartChar: Icircumflex
Encoding: 140 206 141
Width: 720
VWidth: 960
GlyphClass: 2
Flags: W
LayerCount: 2
Fore
SplineSet
360 960 m 1,0,-1
 360 1080 l 1,1,-1
 480 1080 l 1,2,-1
 480 960 l 1,3,-1
 360 960 l 1,0,-1
120 960 m 1,4,-1
 120 1080 l 1,5,-1
 240 1080 l 1,6,-1
 240 960 l 1,7,-1
 120 960 l 1,4,-1
360 0 m 1,8,-1
 240 0 l 1,9,-1
 120 0 l 1,10,-1
 120 120 l 1,11,-1
 240 120 l 1,12,-1
 240 240 l 1,13,-1
 240 360 l 1,14,-1
 240 480 l 1,15,-1
 240 600 l 1,16,-1
 240 720 l 1,17,-1
 120 720 l 1,18,-1
 120 840 l 1,19,-1
 240 840 l 1,20,-1
 360 840 l 1,21,-1
 480 840 l 1,22,-1
 480 720 l 1,23,-1
 360 720 l 1,24,-1
 360 600 l 1,25,-1
 360 480 l 1,26,-1
 360 360 l 1,27,-1
 360 240 l 1,28,-1
 360 120 l 1,29,-1
 480 120 l 1,30,-1
 480 0 l 1,31,-1
 360 0 l 1,8,-1
360 1080 m 1,32,-1
 240 1080 l 1,33,-1
 240 1200 l 1,34,-1
 360 1200 l 1,35,-1
 360 1080 l 1,32,-1
EndSplineSet
Validated: 5
EndChar

StartChar: Idieresis
Encoding: 141 207 142
Width: 720
VWidth: 960
GlyphClass: 2
Flags: W
LayerCount: 2
Fore
SplineSet
360 960 m 1,0,-1
 360 1080 l 1,1,-1
 480 1080 l 1,2,-1
 480 960 l 1,3,-1
 360 960 l 1,0,-1
120 960 m 1,4,-1
 120 1080 l 1,5,-1
 240 1080 l 1,6,-1
 240 960 l 1,7,-1
 120 960 l 1,4,-1
360 0 m 1,8,-1
 240 0 l 1,9,-1
 120 0 l 1,10,-1
 120 120 l 1,11,-1
 240 120 l 1,12,-1
 240 240 l 1,13,-1
 240 360 l 1,14,-1
 240 480 l 1,15,-1
 240 600 l 1,16,-1
 240 720 l 1,17,-1
 120 720 l 1,18,-1
 120 840 l 1,19,-1
 240 840 l 1,20,-1
 360 840 l 1,21,-1
 480 840 l 1,22,-1
 480 720 l 1,23,-1
 360 720 l 1,24,-1
 360 600 l 1,25,-1
 360 480 l 1,26,-1
 360 360 l 1,27,-1
 360 240 l 1,28,-1
 360 120 l 1,29,-1
 480 120 l 1,30,-1
 480 0 l 1,31,-1
 360 0 l 1,8,-1
EndSplineSet
Validated: 1
EndChar

StartChar: Eth
Encoding: 142 208 143
Width: 720
VWidth: 960
GlyphClass: 2
Flags: W
LayerCount: 2
Fore
SplineSet
480 120 m 1,0,-1
 600 120 l 1,1,-1
 600 240 l 1,2,-1
 600 360 l 1,3,-1
 600 480 l 1,4,-1
 600 600 l 1,5,-1
 600 720 l 1,6,-1
 480 720 l 1,7,-1
 360 720 l 1,8,-1
 240 720 l 1,9,-1
 240 600 l 1,10,-1
 360 600 l 1,11,-1
 360 480 l 1,12,-1
 240 480 l 1,13,-1
 240 360 l 1,14,-1
 240 240 l 1,15,-1
 240 120 l 1,16,-1
 360 120 l 1,17,-1
 480 120 l 1,0,-1
480 0 m 1,18,-1
 360 0 l 1,19,-1
 240 0 l 1,20,-1
 120 0 l 1,21,-1
 120 120 l 1,22,-1
 120 240 l 1,23,-1
 120 360 l 1,24,-1
 120 480 l 1,25,-1
 0 480 l 1,26,-1
 0 600 l 1,27,-1
 120 600 l 1,28,-1
 120 720 l 1,29,-1
 120 840 l 1,30,-1
 240 840 l 1,31,-1
 360 840 l 1,32,-1
 480 840 l 1,33,-1
 600 840 l 1,34,-1
 600 720 l 1,35,-1
 720 720 l 1,36,-1
 720 600 l 1,37,-1
 720 480 l 1,38,-1
 720 360 l 1,39,-1
 720 240 l 1,40,-1
 720 120 l 1,41,-1
 600 120 l 1,42,-1
 600 0 l 1,43,-1
 480 0 l 1,18,-1
EndSplineSet
Validated: 5
EndChar

StartChar: Ntilde
Encoding: 143 209 144
Width: 720
VWidth: 960
GlyphClass: 2
Flags: W
LayerCount: 2
Fore
SplineSet
480 0 m 1,0,-1
 480 120 l 1,1,-1
 480 240 l 1,2,-1
 480 360 l 1,3,-1
 360 360 l 1,4,-1
 360 480 l 1,5,-1
 480 480 l 1,6,-1
 480 600 l 1,7,-1
 480 720 l 1,8,-1
 480 840 l 1,9,-1
 600 840 l 1,10,-1
 600 720 l 1,11,-1
 600 600 l 1,12,-1
 600 480 l 1,13,-1
 600 360 l 1,14,-1
 600 240 l 1,15,-1
 600 120 l 1,16,-1
 600 0 l 1,17,-1
 480 0 l 1,0,-1
0 0 m 1,18,-1
 0 120 l 1,19,-1
 0 240 l 1,20,-1
 0 360 l 1,21,-1
 0 480 l 1,22,-1
 0 600 l 1,23,-1
 0 720 l 1,24,-1
 0 840 l 1,25,-1
 120 840 l 1,26,-1
 120 720 l 1,27,-1
 240 720 l 1,28,-1
 240 600 l 1,29,-1
 360 600 l 1,30,-1
 360 480 l 1,31,-1
 240 480 l 1,32,-1
 240 600 l 1,33,-1
 120 600 l 1,34,-1
 120 480 l 1,35,-1
 120 360 l 1,36,-1
 120 240 l 1,37,-1
 120 120 l 1,38,-1
 120 0 l 1,39,-1
 0 0 l 1,18,-1
360 960 m 1,40,-1
 360 1080 l 1,41,-1
 480 1080 l 1,42,-1
 480 960 l 1,43,-1
 360 960 l 1,40,-1
120 960 m 1,44,-1
 120 1080 l 1,45,-1
 240 1080 l 1,46,-1
 240 960 l 1,47,-1
 120 960 l 1,44,-1
480 1080 m 1,48,-1
 480 1200 l 1,49,-1
 600 1200 l 1,50,-1
 600 1080 l 1,51,-1
 480 1080 l 1,48,-1
360 1080 m 1,52,-1
 240 1080 l 1,53,-1
 240 1200 l 1,54,-1
 360 1200 l 1,55,-1
 360 1080 l 1,52,-1
EndSplineSet
Validated: 5
EndChar

StartChar: Ograve
Encoding: 144 210 145
Width: 720
VWidth: 960
GlyphClass: 2
Flags: W
LayerCount: 2
Fore
SplineSet
240 960 m 1,0,-1
 240 1080 l 1,1,-1
 360 1080 l 1,2,-1
 360 960 l 1,3,-1
 240 960 l 1,0,-1
360 120 m 1,4,-1
 480 120 l 1,5,-1
 480 0 l 1,6,-1
 360 0 l 1,7,-1
 240 0 l 1,8,-1
 120 0 l 1,9,-1
 120 120 l 1,10,-1
 240 120 l 1,11,-1
 360 120 l 1,4,-1
480 120 m 1,12,-1
 480 240 l 1,13,-1
 480 360 l 1,14,-1
 480 480 l 1,15,-1
 480 600 l 1,16,-1
 480 720 l 1,17,-1
 600 720 l 1,18,-1
 600 600 l 1,19,-1
 600 480 l 1,20,-1
 600 360 l 1,21,-1
 600 240 l 1,22,-1
 600 120 l 1,23,-1
 480 120 l 1,12,-1
120 120 m 1,24,-1
 0 120 l 1,25,-1
 0 240 l 1,26,-1
 0 360 l 1,27,-1
 0 480 l 1,28,-1
 0 600 l 1,29,-1
 0 720 l 1,30,-1
 120 720 l 1,31,-1
 120 600 l 1,32,-1
 120 480 l 1,33,-1
 120 360 l 1,34,-1
 120 240 l 1,35,-1
 120 120 l 1,24,-1
480 720 m 1,36,-1
 360 720 l 1,37,-1
 240 720 l 1,38,-1
 120 720 l 1,39,-1
 120 840 l 1,40,-1
 240 840 l 1,41,-1
 360 840 l 1,42,-1
 480 840 l 1,43,-1
 480 720 l 1,36,-1
240 1080 m 1,44,-1
 120 1080 l 1,45,-1
 120 1200 l 1,46,-1
 240 1200 l 1,47,-1
 240 1080 l 1,44,-1
EndSplineSet
Validated: 5
EndChar

StartChar: Oacute
Encoding: 145 211 146
Width: 720
VWidth: 960
GlyphClass: 2
Flags: W
LayerCount: 2
Fore
SplineSet
240 960 m 1,0,-1
 240 1080 l 1,1,-1
 360 1080 l 1,2,-1
 360 960 l 1,3,-1
 240 960 l 1,0,-1
360 120 m 1,4,-1
 480 120 l 1,5,-1
 480 0 l 1,6,-1
 360 0 l 1,7,-1
 240 0 l 1,8,-1
 120 0 l 1,9,-1
 120 120 l 1,10,-1
 240 120 l 1,11,-1
 360 120 l 1,4,-1
480 120 m 1,12,-1
 480 240 l 1,13,-1
 480 360 l 1,14,-1
 480 480 l 1,15,-1
 480 600 l 1,16,-1
 480 720 l 1,17,-1
 600 720 l 1,18,-1
 600 600 l 1,19,-1
 600 480 l 1,20,-1
 600 360 l 1,21,-1
 600 240 l 1,22,-1
 600 120 l 1,23,-1
 480 120 l 1,12,-1
120 120 m 1,24,-1
 0 120 l 1,25,-1
 0 240 l 1,26,-1
 0 360 l 1,27,-1
 0 480 l 1,28,-1
 0 600 l 1,29,-1
 0 720 l 1,30,-1
 120 720 l 1,31,-1
 120 600 l 1,32,-1
 120 480 l 1,33,-1
 120 360 l 1,34,-1
 120 240 l 1,35,-1
 120 120 l 1,24,-1
480 720 m 1,36,-1
 360 720 l 1,37,-1
 240 720 l 1,38,-1
 120 720 l 1,39,-1
 120 840 l 1,40,-1
 240 840 l 1,41,-1
 360 840 l 1,42,-1
 480 840 l 1,43,-1
 480 720 l 1,36,-1
360 1080 m 1,44,-1
 360 1200 l 1,45,-1
 480 1200 l 1,46,-1
 480 1080 l 1,47,-1
 360 1080 l 1,44,-1
EndSplineSet
Validated: 5
EndChar

StartChar: Ocircumflex
Encoding: 146 212 147
Width: 720
VWidth: 960
GlyphClass: 2
Flags: W
LayerCount: 2
Fore
SplineSet
360 960 m 1,0,-1
 360 1080 l 1,1,-1
 480 1080 l 1,2,-1
 480 960 l 1,3,-1
 360 960 l 1,0,-1
120 960 m 1,4,-1
 120 1080 l 1,5,-1
 240 1080 l 1,6,-1
 240 960 l 1,7,-1
 120 960 l 1,4,-1
360 120 m 1,8,-1
 480 120 l 1,9,-1
 480 0 l 1,10,-1
 360 0 l 1,11,-1
 240 0 l 1,12,-1
 120 0 l 1,13,-1
 120 120 l 1,14,-1
 240 120 l 1,15,-1
 360 120 l 1,8,-1
480 120 m 1,16,-1
 480 240 l 1,17,-1
 480 360 l 1,18,-1
 480 480 l 1,19,-1
 480 600 l 1,20,-1
 480 720 l 1,21,-1
 600 720 l 1,22,-1
 600 600 l 1,23,-1
 600 480 l 1,24,-1
 600 360 l 1,25,-1
 600 240 l 1,26,-1
 600 120 l 1,27,-1
 480 120 l 1,16,-1
120 120 m 1,28,-1
 0 120 l 1,29,-1
 0 240 l 1,30,-1
 0 360 l 1,31,-1
 0 480 l 1,32,-1
 0 600 l 1,33,-1
 0 720 l 1,34,-1
 120 720 l 1,35,-1
 120 600 l 1,36,-1
 120 480 l 1,37,-1
 120 360 l 1,38,-1
 120 240 l 1,39,-1
 120 120 l 1,28,-1
480 720 m 1,40,-1
 360 720 l 1,41,-1
 240 720 l 1,42,-1
 120 720 l 1,43,-1
 120 840 l 1,44,-1
 240 840 l 1,45,-1
 360 840 l 1,46,-1
 480 840 l 1,47,-1
 480 720 l 1,40,-1
360 1080 m 1,48,-1
 240 1080 l 1,49,-1
 240 1200 l 1,50,-1
 360 1200 l 1,51,-1
 360 1080 l 1,48,-1
EndSplineSet
Validated: 5
EndChar

StartChar: Otilde
Encoding: 147 213 148
Width: 720
VWidth: 960
GlyphClass: 2
Flags: W
LayerCount: 2
Fore
SplineSet
360 960 m 1,0,-1
 360 1080 l 1,1,-1
 480 1080 l 1,2,-1
 480 960 l 1,3,-1
 360 960 l 1,0,-1
120 960 m 1,4,-1
 120 1080 l 1,5,-1
 240 1080 l 1,6,-1
 240 960 l 1,7,-1
 120 960 l 1,4,-1
360 120 m 1,8,-1
 480 120 l 1,9,-1
 480 0 l 1,10,-1
 360 0 l 1,11,-1
 240 0 l 1,12,-1
 120 0 l 1,13,-1
 120 120 l 1,14,-1
 240 120 l 1,15,-1
 360 120 l 1,8,-1
480 120 m 1,16,-1
 480 240 l 1,17,-1
 480 360 l 1,18,-1
 480 480 l 1,19,-1
 480 600 l 1,20,-1
 480 720 l 1,21,-1
 600 720 l 1,22,-1
 600 600 l 1,23,-1
 600 480 l 1,24,-1
 600 360 l 1,25,-1
 600 240 l 1,26,-1
 600 120 l 1,27,-1
 480 120 l 1,16,-1
120 120 m 1,28,-1
 0 120 l 1,29,-1
 0 240 l 1,30,-1
 0 360 l 1,31,-1
 0 480 l 1,32,-1
 0 600 l 1,33,-1
 0 720 l 1,34,-1
 120 720 l 1,35,-1
 120 600 l 1,36,-1
 120 480 l 1,37,-1
 120 360 l 1,38,-1
 120 240 l 1,39,-1
 120 120 l 1,28,-1
480 720 m 1,40,-1
 360 720 l 1,41,-1
 240 720 l 1,42,-1
 120 720 l 1,43,-1
 120 840 l 1,44,-1
 240 840 l 1,45,-1
 360 840 l 1,46,-1
 480 840 l 1,47,-1
 480 720 l 1,40,-1
480 1080 m 1,48,-1
 480 1200 l 1,49,-1
 600 1200 l 1,50,-1
 600 1080 l 1,51,-1
 480 1080 l 1,48,-1
360 1080 m 1,52,-1
 240 1080 l 1,53,-1
 240 1200 l 1,54,-1
 360 1200 l 1,55,-1
 360 1080 l 1,52,-1
EndSplineSet
Validated: 5
EndChar

StartChar: Odieresis
Encoding: 148 214 149
Width: 720
VWidth: 960
GlyphClass: 2
Flags: W
LayerCount: 2
Fore
SplineSet
360 960 m 1,0,-1
 360 1080 l 1,1,-1
 480 1080 l 1,2,-1
 480 960 l 1,3,-1
 360 960 l 1,0,-1
120 960 m 1,4,-1
 120 1080 l 1,5,-1
 240 1080 l 1,6,-1
 240 960 l 1,7,-1
 120 960 l 1,4,-1
360 120 m 1,8,-1
 480 120 l 1,9,-1
 480 0 l 1,10,-1
 360 0 l 1,11,-1
 240 0 l 1,12,-1
 120 0 l 1,13,-1
 120 120 l 1,14,-1
 240 120 l 1,15,-1
 360 120 l 1,8,-1
480 120 m 1,16,-1
 480 240 l 1,17,-1
 480 360 l 1,18,-1
 480 480 l 1,19,-1
 480 600 l 1,20,-1
 480 720 l 1,21,-1
 600 720 l 1,22,-1
 600 600 l 1,23,-1
 600 480 l 1,24,-1
 600 360 l 1,25,-1
 600 240 l 1,26,-1
 600 120 l 1,27,-1
 480 120 l 1,16,-1
120 120 m 1,28,-1
 0 120 l 1,29,-1
 0 240 l 1,30,-1
 0 360 l 1,31,-1
 0 480 l 1,32,-1
 0 600 l 1,33,-1
 0 720 l 1,34,-1
 120 720 l 1,35,-1
 120 600 l 1,36,-1
 120 480 l 1,37,-1
 120 360 l 1,38,-1
 120 240 l 1,39,-1
 120 120 l 1,28,-1
480 720 m 1,40,-1
 360 720 l 1,41,-1
 240 720 l 1,42,-1
 120 720 l 1,43,-1
 120 840 l 1,44,-1
 240 840 l 1,45,-1
 360 840 l 1,46,-1
 480 840 l 1,47,-1
 480 720 l 1,40,-1
EndSplineSet
Validated: 5
EndChar

StartChar: multiply
Encoding: 149 215 150
Width: 720
VWidth: 960
GlyphClass: 2
Flags: W
LayerCount: 2
Fore
SplineSet
480 120 m 1,0,-1
 480 240 l 1,1,-1
 600 240 l 1,2,-1
 600 120 l 1,3,-1
 480 120 l 1,0,-1
0 120 m 1,4,-1
 0 240 l 1,5,-1
 120 240 l 1,6,-1
 120 120 l 1,7,-1
 0 120 l 1,4,-1
480 240 m 1,8,-1
 360 240 l 1,9,-1
 360 360 l 1,10,-1
 480 360 l 1,11,-1
 480 240 l 1,8,-1
120 240 m 1,12,-1
 120 360 l 1,13,-1
 240 360 l 1,14,-1
 240 240 l 1,15,-1
 120 240 l 1,12,-1
360 360 m 1,16,-1
 240 360 l 1,17,-1
 240 480 l 1,18,-1
 360 480 l 1,19,-1
 360 360 l 1,16,-1
360 480 m 1,20,-1
 360 600 l 1,21,-1
 480 600 l 1,22,-1
 480 480 l 1,23,-1
 360 480 l 1,20,-1
240 480 m 1,24,-1
 120 480 l 1,25,-1
 120 600 l 1,26,-1
 240 600 l 1,27,-1
 240 480 l 1,24,-1
480 600 m 1,28,-1
 480 720 l 1,29,-1
 600 720 l 1,30,-1
 600 600 l 1,31,-1
 480 600 l 1,28,-1
120 600 m 1,32,-1
 0 600 l 1,33,-1
 0 720 l 1,34,-1
 120 720 l 1,35,-1
 120 600 l 1,32,-1
EndSplineSet
Validated: 5
EndChar

StartChar: Oslash
Encoding: 150 216 151
Width: 720
VWidth: 960
GlyphClass: 2
Flags: W
LayerCount: 2
Fore
SplineSet
360 120 m 1,0,-1
 480 120 l 1,1,-1
 480 0 l 1,2,-1
 360 0 l 1,3,-1
 240 0 l 1,4,-1
 120 0 l 1,5,-1
 120 120 l 1,6,-1
 0 120 l 1,7,-1
 0 240 l 1,8,-1
 0 360 l 1,9,-1
 0 480 l 1,10,-1
 0 600 l 1,11,-1
 0 720 l 1,12,-1
 120 720 l 1,13,-1
 120 600 l 1,14,-1
 120 480 l 1,15,-1
 120 360 l 1,16,-1
 240 360 l 1,17,-1
 240 240 l 1,18,-1
 240 120 l 1,19,-1
 360 120 l 1,0,-1
480 120 m 1,20,-1
 480 240 l 1,21,-1
 480 360 l 1,22,-1
 480 480 l 1,23,-1
 360 480 l 1,24,-1
 360 360 l 1,25,-1
 240 360 l 1,26,-1
 240 480 l 1,27,-1
 360 480 l 1,28,-1
 360 600 l 1,29,-1
 360 720 l 1,30,-1
 240 720 l 1,31,-1
 120 720 l 1,32,-1
 120 840 l 1,33,-1
 240 840 l 1,34,-1
 360 840 l 1,35,-1
 480 840 l 1,36,-1
 480 720 l 1,37,-1
 600 720 l 1,38,-1
 600 600 l 1,39,-1
 600 480 l 1,40,-1
 600 360 l 1,41,-1
 600 240 l 1,42,-1
 600 120 l 1,43,-1
 480 120 l 1,20,-1
EndSplineSet
Validated: 5
EndChar

StartChar: Ugrave
Encoding: 151 217 152
Width: 720
VWidth: 960
GlyphClass: 2
Flags: W
LayerCount: 2
Fore
SplineSet
240 960 m 1,0,-1
 240 1080 l 1,1,-1
 360 1080 l 1,2,-1
 360 960 l 1,3,-1
 240 960 l 1,0,-1
360 120 m 1,4,-1
 480 120 l 1,5,-1
 480 0 l 1,6,-1
 360 0 l 1,7,-1
 240 0 l 1,8,-1
 120 0 l 1,9,-1
 120 120 l 1,10,-1
 240 120 l 1,11,-1
 360 120 l 1,4,-1
480 120 m 1,12,-1
 480 240 l 1,13,-1
 480 360 l 1,14,-1
 480 480 l 1,15,-1
 480 600 l 1,16,-1
 480 720 l 1,17,-1
 480 840 l 1,18,-1
 600 840 l 1,19,-1
 600 720 l 1,20,-1
 600 600 l 1,21,-1
 600 480 l 1,22,-1
 600 360 l 1,23,-1
 600 240 l 1,24,-1
 600 120 l 1,25,-1
 480 120 l 1,12,-1
120 120 m 1,26,-1
 0 120 l 1,27,-1
 0 240 l 1,28,-1
 0 360 l 1,29,-1
 0 480 l 1,30,-1
 0 600 l 1,31,-1
 0 720 l 1,32,-1
 0 840 l 1,33,-1
 120 840 l 1,34,-1
 120 720 l 1,35,-1
 120 600 l 1,36,-1
 120 480 l 1,37,-1
 120 360 l 1,38,-1
 120 240 l 1,39,-1
 120 120 l 1,26,-1
240 1080 m 1,40,-1
 120 1080 l 1,41,-1
 120 1200 l 1,42,-1
 240 1200 l 1,43,-1
 240 1080 l 1,40,-1
EndSplineSet
Validated: 5
EndChar

StartChar: Uacute
Encoding: 152 218 153
Width: 720
VWidth: 960
GlyphClass: 2
Flags: W
LayerCount: 2
Fore
SplineSet
240 960 m 1,0,-1
 240 1080 l 1,1,-1
 360 1080 l 1,2,-1
 360 960 l 1,3,-1
 240 960 l 1,0,-1
360 120 m 1,4,-1
 480 120 l 1,5,-1
 480 0 l 1,6,-1
 360 0 l 1,7,-1
 240 0 l 1,8,-1
 120 0 l 1,9,-1
 120 120 l 1,10,-1
 240 120 l 1,11,-1
 360 120 l 1,4,-1
480 120 m 1,12,-1
 480 240 l 1,13,-1
 480 360 l 1,14,-1
 480 480 l 1,15,-1
 480 600 l 1,16,-1
 480 720 l 1,17,-1
 480 840 l 1,18,-1
 600 840 l 1,19,-1
 600 720 l 1,20,-1
 600 600 l 1,21,-1
 600 480 l 1,22,-1
 600 360 l 1,23,-1
 600 240 l 1,24,-1
 600 120 l 1,25,-1
 480 120 l 1,12,-1
120 120 m 1,26,-1
 0 120 l 1,27,-1
 0 240 l 1,28,-1
 0 360 l 1,29,-1
 0 480 l 1,30,-1
 0 600 l 1,31,-1
 0 720 l 1,32,-1
 0 840 l 1,33,-1
 120 840 l 1,34,-1
 120 720 l 1,35,-1
 120 600 l 1,36,-1
 120 480 l 1,37,-1
 120 360 l 1,38,-1
 120 240 l 1,39,-1
 120 120 l 1,26,-1
360 1080 m 1,40,-1
 360 1200 l 1,41,-1
 480 1200 l 1,42,-1
 480 1080 l 1,43,-1
 360 1080 l 1,40,-1
EndSplineSet
Validated: 5
EndChar

StartChar: Ucircumflex
Encoding: 153 219 154
Width: 720
VWidth: 960
GlyphClass: 2
Flags: W
LayerCount: 2
Fore
SplineSet
360 960 m 1,0,-1
 360 1080 l 1,1,-1
 480 1080 l 1,2,-1
 480 960 l 1,3,-1
 360 960 l 1,0,-1
120 960 m 1,4,-1
 120 1080 l 1,5,-1
 240 1080 l 1,6,-1
 240 960 l 1,7,-1
 120 960 l 1,4,-1
360 120 m 1,8,-1
 480 120 l 1,9,-1
 480 0 l 1,10,-1
 360 0 l 1,11,-1
 240 0 l 1,12,-1
 120 0 l 1,13,-1
 120 120 l 1,14,-1
 240 120 l 1,15,-1
 360 120 l 1,8,-1
480 120 m 1,16,-1
 480 240 l 1,17,-1
 480 360 l 1,18,-1
 480 480 l 1,19,-1
 480 600 l 1,20,-1
 480 720 l 1,21,-1
 480 840 l 1,22,-1
 600 840 l 1,23,-1
 600 720 l 1,24,-1
 600 600 l 1,25,-1
 600 480 l 1,26,-1
 600 360 l 1,27,-1
 600 240 l 1,28,-1
 600 120 l 1,29,-1
 480 120 l 1,16,-1
120 120 m 1,30,-1
 0 120 l 1,31,-1
 0 240 l 1,32,-1
 0 360 l 1,33,-1
 0 480 l 1,34,-1
 0 600 l 1,35,-1
 0 720 l 1,36,-1
 0 840 l 1,37,-1
 120 840 l 1,38,-1
 120 720 l 1,39,-1
 120 600 l 1,40,-1
 120 480 l 1,41,-1
 120 360 l 1,42,-1
 120 240 l 1,43,-1
 120 120 l 1,30,-1
360 1080 m 1,44,-1
 240 1080 l 1,45,-1
 240 1200 l 1,46,-1
 360 1200 l 1,47,-1
 360 1080 l 1,44,-1
EndSplineSet
Validated: 5
EndChar

StartChar: Udieresis
Encoding: 154 220 155
Width: 720
VWidth: 960
GlyphClass: 2
Flags: W
LayerCount: 2
Fore
SplineSet
360 960 m 1,0,-1
 360 1080 l 1,1,-1
 480 1080 l 1,2,-1
 480 960 l 1,3,-1
 360 960 l 1,0,-1
120 960 m 1,4,-1
 120 1080 l 1,5,-1
 240 1080 l 1,6,-1
 240 960 l 1,7,-1
 120 960 l 1,4,-1
360 120 m 1,8,-1
 480 120 l 1,9,-1
 480 0 l 1,10,-1
 360 0 l 1,11,-1
 240 0 l 1,12,-1
 120 0 l 1,13,-1
 120 120 l 1,14,-1
 240 120 l 1,15,-1
 360 120 l 1,8,-1
480 120 m 1,16,-1
 480 240 l 1,17,-1
 480 360 l 1,18,-1
 480 480 l 1,19,-1
 480 600 l 1,20,-1
 480 720 l 1,21,-1
 480 840 l 1,22,-1
 600 840 l 1,23,-1
 600 720 l 1,24,-1
 600 600 l 1,25,-1
 600 480 l 1,26,-1
 600 360 l 1,27,-1
 600 240 l 1,28,-1
 600 120 l 1,29,-1
 480 120 l 1,16,-1
120 120 m 1,30,-1
 0 120 l 1,31,-1
 0 240 l 1,32,-1
 0 360 l 1,33,-1
 0 480 l 1,34,-1
 0 600 l 1,35,-1
 0 720 l 1,36,-1
 0 840 l 1,37,-1
 120 840 l 1,38,-1
 120 720 l 1,39,-1
 120 600 l 1,40,-1
 120 480 l 1,41,-1
 120 360 l 1,42,-1
 120 240 l 1,43,-1
 120 120 l 1,30,-1
EndSplineSet
Validated: 5
EndChar

StartChar: Yacute
Encoding: 155 221 156
Width: 720
VWidth: 960
GlyphClass: 2
Flags: W
LayerCount: 2
Fore
SplineSet
240 0 m 1,0,-1
 240 120 l 1,1,-1
 240 240 l 1,2,-1
 240 360 l 1,3,-1
 240 480 l 1,4,-1
 240 600 l 1,5,-1
 360 600 l 1,6,-1
 360 480 l 1,7,-1
 360 360 l 1,8,-1
 360 240 l 1,9,-1
 360 120 l 1,10,-1
 360 0 l 1,11,-1
 240 0 l 1,0,-1
240 960 m 1,12,-1
 240 1080 l 1,13,-1
 360 1080 l 1,14,-1
 360 960 l 1,15,-1
 240 960 l 1,12,-1
360 600 m 1,16,-1
 360 720 l 1,17,-1
 480 720 l 1,18,-1
 480 600 l 1,19,-1
 360 600 l 1,16,-1
240 600 m 1,20,-1
 120 600 l 1,21,-1
 120 720 l 1,22,-1
 240 720 l 1,23,-1
 240 600 l 1,20,-1
480 720 m 1,24,-1
 480 840 l 1,25,-1
 600 840 l 1,26,-1
 600 720 l 1,27,-1
 480 720 l 1,24,-1
120 720 m 1,28,-1
 0 720 l 1,29,-1
 0 840 l 1,30,-1
 120 840 l 1,31,-1
 120 720 l 1,28,-1
360 1080 m 1,32,-1
 360 1200 l 1,33,-1
 480 1200 l 1,34,-1
 480 1080 l 1,35,-1
 360 1080 l 1,32,-1
EndSplineSet
Validated: 5
EndChar

StartChar: Thorn
Encoding: 156 222 157
Width: 720
VWidth: 960
GlyphClass: 2
Flags: W
LayerCount: 2
Fore
SplineSet
0 0 m 1,0,-1
 0 120 l 1,1,-1
 0 240 l 1,2,-1
 0 360 l 1,3,-1
 0 480 l 1,4,-1
 0 600 l 1,5,-1
 0 720 l 1,6,-1
 0 840 l 1,7,-1
 120 840 l 1,8,-1
 120 720 l 1,9,-1
 120 600 l 1,10,-1
 240 600 l 1,11,-1
 360 600 l 1,12,-1
 480 600 l 1,13,-1
 480 480 l 1,14,-1
 600 480 l 1,15,-1
 600 360 l 1,16,-1
 480 360 l 1,17,-1
 480 480 l 1,18,-1
 360 480 l 1,19,-1
 240 480 l 1,20,-1
 120 480 l 1,21,-1
 120 360 l 1,22,-1
 240 360 l 1,23,-1
 360 360 l 1,24,-1
 480 360 l 1,25,-1
 480 240 l 1,26,-1
 360 240 l 1,27,-1
 240 240 l 1,28,-1
 120 240 l 1,29,-1
 120 120 l 1,30,-1
 120 0 l 1,31,-1
 0 0 l 1,0,-1
EndSplineSet
Validated: 5
EndChar

StartChar: germandbls
Encoding: 157 223 158
Width: 720
VWidth: 960
GlyphClass: 2
Flags: W
LayerCount: 2
Fore
SplineSet
0 -120 m 1,0,-1
 0 0 l 1,1,-1
 0 120 l 1,2,-1
 0 240 l 1,3,-1
 0 360 l 1,4,-1
 0 480 l 1,5,-1
 0 600 l 1,6,-1
 0 720 l 1,7,-1
 120 720 l 1,8,-1
 120 600 l 1,9,-1
 120 480 l 1,10,-1
 120 360 l 1,11,-1
 120 240 l 1,12,-1
 120 120 l 1,13,-1
 120 0 l 1,14,-1
 120 -120 l 1,15,-1
 0 -120 l 1,0,-1
360 120 m 1,16,-1
 480 120 l 1,17,-1
 480 0 l 1,18,-1
 360 0 l 1,19,-1
 240 0 l 1,20,-1
 240 120 l 1,21,-1
 360 120 l 1,16,-1
480 120 m 1,22,-1
 480 240 l 1,23,-1
 480 360 l 1,24,-1
 480 480 l 1,25,-1
 600 480 l 1,26,-1
 600 360 l 1,27,-1
 600 240 l 1,28,-1
 600 120 l 1,29,-1
 480 120 l 1,22,-1
480 480 m 1,30,-1
 360 480 l 1,31,-1
 240 480 l 1,32,-1
 240 600 l 1,33,-1
 360 600 l 1,34,-1
 480 600 l 1,35,-1
 480 480 l 1,30,-1
480 600 m 1,36,-1
 480 720 l 1,37,-1
 600 720 l 1,38,-1
 600 600 l 1,39,-1
 480 600 l 1,36,-1
480 720 m 1,40,-1
 360 720 l 1,41,-1
 240 720 l 1,42,-1
 120 720 l 1,43,-1
 120 840 l 1,44,-1
 240 840 l 1,45,-1
 360 840 l 1,46,-1
 480 840 l 1,47,-1
 480 720 l 1,40,-1
EndSplineSet
Validated: 5
EndChar

StartChar: agrave
Encoding: 158 224 159
Width: 720
VWidth: 960
GlyphClass: 2
Flags: W
LayerCount: 2
Fore
SplineSet
240 720 m 5,0,-1
 240 840 l 5,1,-1
 360 840 l 5,2,-1
 360 720 l 5,3,-1
 240 720 l 5,0,-1
480 0 m 1,4,-1
 360 0 l 1,5,-1
 240 0 l 1,6,-1
 120 0 l 1,7,-1
 120 120 l 1,8,-1
 0 120 l 1,9,-1
 0 240 l 1,10,-1
 120 240 l 1,11,-1
 120 360 l 1,12,-1
 240 360 l 1,13,-1
 360 360 l 1,14,-1
 480 360 l 1,15,-1
 480 480 l 1,16,-1
 600 480 l 1,17,-1
 600 360 l 1,18,-1
 600 240 l 1,19,-1
 600 120 l 1,20,-1
 600 0 l 1,21,-1
 480 0 l 1,4,-1
360 120 m 1,22,-1
 480 120 l 1,23,-1
 480 240 l 1,24,-1
 360 240 l 1,25,-1
 240 240 l 1,26,-1
 120 240 l 1,27,-1
 120 120 l 1,28,-1
 240 120 l 1,29,-1
 360 120 l 1,22,-1
480 480 m 1,30,-1
 360 480 l 1,31,-1
 240 480 l 1,32,-1
 120 480 l 1,33,-1
 120 600 l 1,34,-1
 240 600 l 1,35,-1
 360 600 l 1,36,-1
 480 600 l 1,37,-1
 480 480 l 1,30,-1
240 840 m 5,38,-1
 120 840 l 5,39,-1
 120 960 l 5,40,-1
 240 960 l 5,41,-1
 240 840 l 5,38,-1
EndSplineSet
Validated: 5
EndChar

StartChar: aacute
Encoding: 159 225 160
Width: 720
VWidth: 960
GlyphClass: 2
Flags: W
LayerCount: 2
Fore
SplineSet
240 720 m 5,0,-1
 240 840 l 5,1,-1
 360 840 l 5,2,-1
 360 720 l 5,3,-1
 240 720 l 5,0,-1
480 0 m 1,4,-1
 360 0 l 1,5,-1
 240 0 l 1,6,-1
 120 0 l 1,7,-1
 120 120 l 1,8,-1
 0 120 l 1,9,-1
 0 240 l 1,10,-1
 120 240 l 1,11,-1
 120 360 l 1,12,-1
 240 360 l 1,13,-1
 360 360 l 1,14,-1
 480 360 l 1,15,-1
 480 480 l 1,16,-1
 600 480 l 1,17,-1
 600 360 l 1,18,-1
 600 240 l 1,19,-1
 600 120 l 1,20,-1
 600 0 l 1,21,-1
 480 0 l 1,4,-1
360 120 m 1,22,-1
 480 120 l 1,23,-1
 480 240 l 1,24,-1
 360 240 l 1,25,-1
 240 240 l 1,26,-1
 120 240 l 1,27,-1
 120 120 l 1,28,-1
 240 120 l 1,29,-1
 360 120 l 1,22,-1
480 480 m 1,30,-1
 360 480 l 1,31,-1
 240 480 l 1,32,-1
 120 480 l 1,33,-1
 120 600 l 1,34,-1
 240 600 l 1,35,-1
 360 600 l 1,36,-1
 480 600 l 1,37,-1
 480 480 l 1,30,-1
360 840 m 5,38,-1
 360 960 l 5,39,-1
 480 960 l 5,40,-1
 480 840 l 5,41,-1
 360 840 l 5,38,-1
EndSplineSet
Validated: 5
EndChar

StartChar: acircumflex
Encoding: 160 226 161
Width: 720
VWidth: 960
GlyphClass: 2
Flags: W
LayerCount: 2
Fore
SplineSet
360 720 m 1,0,-1
 360 840 l 1,1,-1
 480 840 l 1,2,-1
 480 720 l 1,3,-1
 360 720 l 1,0,-1
120 720 m 1,4,-1
 120 840 l 1,5,-1
 240 840 l 1,6,-1
 240 720 l 1,7,-1
 120 720 l 1,4,-1
480 0 m 1,8,-1
 360 0 l 1,9,-1
 240 0 l 1,10,-1
 120 0 l 1,11,-1
 120 120 l 1,12,-1
 0 120 l 1,13,-1
 0 240 l 1,14,-1
 120 240 l 1,15,-1
 120 360 l 1,16,-1
 240 360 l 1,17,-1
 360 360 l 1,18,-1
 480 360 l 1,19,-1
 480 480 l 1,20,-1
 600 480 l 1,21,-1
 600 360 l 1,22,-1
 600 240 l 1,23,-1
 600 120 l 1,24,-1
 600 0 l 1,25,-1
 480 0 l 1,8,-1
360 120 m 1,26,-1
 480 120 l 1,27,-1
 480 240 l 1,28,-1
 360 240 l 1,29,-1
 240 240 l 1,30,-1
 120 240 l 1,31,-1
 120 120 l 1,32,-1
 240 120 l 1,33,-1
 360 120 l 1,26,-1
480 480 m 1,34,-1
 360 480 l 1,35,-1
 240 480 l 1,36,-1
 120 480 l 1,37,-1
 120 600 l 1,38,-1
 240 600 l 1,39,-1
 360 600 l 1,40,-1
 480 600 l 1,41,-1
 480 480 l 1,34,-1
360 840 m 1,42,-1
 240 840 l 1,43,-1
 240 960 l 1,44,-1
 360 960 l 1,45,-1
 360 840 l 1,42,-1
EndSplineSet
Validated: 5
EndChar

StartChar: atilde
Encoding: 161 227 162
Width: 720
VWidth: 960
GlyphClass: 2
Flags: W
LayerCount: 2
Fore
SplineSet
360 720 m 1,0,-1
 360 840 l 1,1,-1
 480 840 l 1,2,-1
 480 720 l 1,3,-1
 360 720 l 1,0,-1
120 720 m 1,4,-1
 120 840 l 1,5,-1
 240 840 l 1,6,-1
 240 720 l 1,7,-1
 120 720 l 1,4,-1
480 0 m 1,8,-1
 360 0 l 1,9,-1
 240 0 l 1,10,-1
 120 0 l 1,11,-1
 120 120 l 1,12,-1
 0 120 l 1,13,-1
 0 240 l 1,14,-1
 120 240 l 1,15,-1
 120 360 l 1,16,-1
 240 360 l 1,17,-1
 360 360 l 1,18,-1
 480 360 l 1,19,-1
 480 480 l 1,20,-1
 600 480 l 1,21,-1
 600 360 l 1,22,-1
 600 240 l 1,23,-1
 600 120 l 1,24,-1
 600 0 l 1,25,-1
 480 0 l 1,8,-1
360 120 m 1,26,-1
 480 120 l 1,27,-1
 480 240 l 1,28,-1
 360 240 l 1,29,-1
 240 240 l 1,30,-1
 120 240 l 1,31,-1
 120 120 l 1,32,-1
 240 120 l 1,33,-1
 360 120 l 1,26,-1
480 480 m 1,34,-1
 360 480 l 1,35,-1
 240 480 l 1,36,-1
 120 480 l 1,37,-1
 120 600 l 1,38,-1
 240 600 l 1,39,-1
 360 600 l 1,40,-1
 480 600 l 1,41,-1
 480 480 l 1,34,-1
480 840 m 1,42,-1
 480 960 l 1,43,-1
 600 960 l 1,44,-1
 600 840 l 1,45,-1
 480 840 l 1,42,-1
360 840 m 1,46,-1
 240 840 l 1,47,-1
 240 960 l 1,48,-1
 360 960 l 1,49,-1
 360 840 l 1,46,-1
EndSplineSet
Validated: 5
EndChar

StartChar: adieresis
Encoding: 162 228 163
Width: 720
VWidth: 960
GlyphClass: 2
Flags: W
LayerCount: 2
Fore
SplineSet
360 720 m 1,0,-1
 360 840 l 1,1,-1
 480 840 l 1,2,-1
 480 720 l 1,3,-1
 360 720 l 1,0,-1
120 720 m 1,4,-1
 120 840 l 1,5,-1
 240 840 l 1,6,-1
 240 720 l 1,7,-1
 120 720 l 1,4,-1
480 0 m 1,8,-1
 360 0 l 1,9,-1
 240 0 l 1,10,-1
 120 0 l 1,11,-1
 120 120 l 1,12,-1
 0 120 l 1,13,-1
 0 240 l 1,14,-1
 120 240 l 1,15,-1
 120 360 l 1,16,-1
 240 360 l 1,17,-1
 360 360 l 1,18,-1
 480 360 l 1,19,-1
 480 480 l 1,20,-1
 600 480 l 1,21,-1
 600 360 l 1,22,-1
 600 240 l 1,23,-1
 600 120 l 1,24,-1
 600 0 l 1,25,-1
 480 0 l 1,8,-1
360 120 m 1,26,-1
 480 120 l 1,27,-1
 480 240 l 1,28,-1
 360 240 l 1,29,-1
 240 240 l 1,30,-1
 120 240 l 1,31,-1
 120 120 l 1,32,-1
 240 120 l 1,33,-1
 360 120 l 1,26,-1
480 480 m 1,34,-1
 360 480 l 1,35,-1
 240 480 l 1,36,-1
 120 480 l 1,37,-1
 120 600 l 1,38,-1
 240 600 l 1,39,-1
 360 600 l 1,40,-1
 480 600 l 1,41,-1
 480 480 l 1,34,-1
EndSplineSet
Validated: 5
EndChar

StartChar: aring
Encoding: 163 229 164
Width: 720
VWidth: 960
GlyphClass: 2
Flags: W
LayerCount: 2
Fore
SplineSet
240 720 m 1,0,-1
 240 840 l 1,1,-1
 360 840 l 1,2,-1
 360 720 l 1,3,-1
 240 720 l 1,0,-1
480 0 m 1,4,-1
 360 0 l 1,5,-1
 240 0 l 1,6,-1
 120 0 l 1,7,-1
 120 120 l 1,8,-1
 0 120 l 1,9,-1
 0 240 l 1,10,-1
 120 240 l 1,11,-1
 120 360 l 1,12,-1
 240 360 l 1,13,-1
 360 360 l 1,14,-1
 480 360 l 1,15,-1
 480 480 l 1,16,-1
 600 480 l 1,17,-1
 600 360 l 1,18,-1
 600 240 l 1,19,-1
 600 120 l 1,20,-1
 600 0 l 1,21,-1
 480 0 l 1,4,-1
360 120 m 1,22,-1
 480 120 l 1,23,-1
 480 240 l 1,24,-1
 360 240 l 1,25,-1
 240 240 l 1,26,-1
 120 240 l 1,27,-1
 120 120 l 1,28,-1
 240 120 l 1,29,-1
 360 120 l 1,22,-1
480 480 m 1,30,-1
 360 480 l 1,31,-1
 240 480 l 1,32,-1
 120 480 l 1,33,-1
 120 600 l 1,34,-1
 240 600 l 1,35,-1
 360 600 l 1,36,-1
 480 600 l 1,37,-1
 480 480 l 1,30,-1
360 840 m 1,38,-1
 360 960 l 1,39,-1
 480 960 l 1,40,-1
 480 840 l 1,41,-1
 360 840 l 1,38,-1
240 840 m 1,42,-1
 120 840 l 1,43,-1
 120 960 l 1,44,-1
 240 960 l 1,45,-1
 240 840 l 1,42,-1
360 960 m 1,46,-1
 240 960 l 1,47,-1
 240 1080 l 1,48,-1
 360 1080 l 1,49,-1
 360 960 l 1,46,-1
EndSplineSet
Validated: 5
EndChar

StartChar: ae
Encoding: 164 230 165
Width: 720
VWidth: 960
GlyphClass: 2
Flags: W
LayerCount: 2
Fore
SplineSet
600 120 m 1,0,-1
 720 120 l 1,1,-1
 720 0 l 1,2,-1
 600 0 l 1,3,-1
 480 0 l 1,4,-1
 360 0 l 1,5,-1
 240 0 l 1,6,-1
 120 0 l 1,7,-1
 120 120 l 1,8,-1
 0 120 l 1,9,-1
 0 240 l 1,10,-1
 120 240 l 1,11,-1
 120 360 l 1,12,-1
 240 360 l 1,13,-1
 360 360 l 1,14,-1
 360 480 l 1,15,-1
 480 480 l 1,16,-1
 480 360 l 1,17,-1
 600 360 l 1,18,-1
 600 480 l 1,19,-1
 720 480 l 1,20,-1
 720 360 l 1,21,-1
 720 240 l 1,22,-1
 600 240 l 1,23,-1
 480 240 l 1,24,-1
 480 120 l 1,25,-1
 600 120 l 1,0,-1
240 120 m 1,26,-1
 360 120 l 1,27,-1
 360 240 l 1,28,-1
 240 240 l 1,29,-1
 120 240 l 1,30,-1
 120 120 l 1,31,-1
 240 120 l 1,26,-1
600 480 m 1,32,-1
 480 480 l 1,33,-1
 480 600 l 1,34,-1
 600 600 l 1,35,-1
 600 480 l 1,32,-1
360 480 m 1,36,-1
 240 480 l 1,37,-1
 120 480 l 1,38,-1
 120 600 l 1,39,-1
 240 600 l 1,40,-1
 360 600 l 1,41,-1
 360 480 l 1,36,-1
EndSplineSet
Validated: 5
EndChar

StartChar: ccedilla
Encoding: 165 231 166
Width: 720
VWidth: 960
GlyphClass: 2
Flags: W
LayerCount: 2
Fore
SplineSet
240 -240 m 1,0,-1
 240 -120 l 1,1,-1
 360 -120 l 1,2,-1
 360 -240 l 1,3,-1
 240 -240 l 1,0,-1
480 360 m 1,4,-1
 480 480 l 1,5,-1
 600 480 l 1,6,-1
 600 360 l 1,7,-1
 480 360 l 1,4,-1
360 -120 m 1,8,-1
 360 0 l 1,9,-1
 240 0 l 1,10,-1
 120 0 l 1,11,-1
 120 120 l 1,12,-1
 240 120 l 1,13,-1
 360 120 l 1,14,-1
 480 120 l 1,15,-1
 480 0 l 1,16,-1
 480 -120 l 1,17,-1
 360 -120 l 1,8,-1
480 120 m 1,18,-1
 480 240 l 1,19,-1
 600 240 l 1,20,-1
 600 120 l 1,21,-1
 480 120 l 1,18,-1
120 120 m 1,22,-1
 0 120 l 1,23,-1
 0 240 l 1,24,-1
 0 360 l 1,25,-1
 0 480 l 1,26,-1
 120 480 l 1,27,-1
 120 360 l 1,28,-1
 120 240 l 1,29,-1
 120 120 l 1,22,-1
480 480 m 1,30,-1
 360 480 l 1,31,-1
 240 480 l 1,32,-1
 120 480 l 1,33,-1
 120 600 l 1,34,-1
 240 600 l 1,35,-1
 360 600 l 1,36,-1
 480 600 l 1,37,-1
 480 480 l 1,30,-1
EndSplineSet
Validated: 5
EndChar

StartChar: egrave
Encoding: 166 232 167
Width: 720
VWidth: 960
GlyphClass: 2
Flags: W
LayerCount: 2
Fore
SplineSet
240 720 m 1,0,-1
 240 840 l 1,1,-1
 360 840 l 1,2,-1
 360 720 l 1,3,-1
 240 720 l 1,0,-1
480 120 m 1,4,-1
 600 120 l 1,5,-1
 600 0 l 1,6,-1
 480 0 l 1,7,-1
 360 0 l 1,8,-1
 240 0 l 1,9,-1
 120 0 l 1,10,-1
 120 120 l 1,11,-1
 240 120 l 1,12,-1
 360 120 l 1,13,-1
 480 120 l 1,4,-1
120 120 m 1,14,-1
 0 120 l 1,15,-1
 0 240 l 1,16,-1
 0 360 l 1,17,-1
 0 480 l 1,18,-1
 120 480 l 1,19,-1
 120 360 l 1,20,-1
 240 360 l 1,21,-1
 360 360 l 1,22,-1
 480 360 l 1,23,-1
 480 480 l 1,24,-1
 600 480 l 1,25,-1
 600 360 l 1,26,-1
 600 240 l 1,27,-1
 480 240 l 1,28,-1
 360 240 l 1,29,-1
 240 240 l 1,30,-1
 120 240 l 1,31,-1
 120 120 l 1,14,-1
480 480 m 1,32,-1
 360 480 l 1,33,-1
 240 480 l 1,34,-1
 120 480 l 1,35,-1
 120 600 l 1,36,-1
 240 600 l 1,37,-1
 360 600 l 1,38,-1
 480 600 l 1,39,-1
 480 480 l 1,32,-1
240 840 m 1,40,-1
 120 840 l 1,41,-1
 120 960 l 1,42,-1
 240 960 l 1,43,-1
 240 840 l 1,40,-1
EndSplineSet
Validated: 5
EndChar

StartChar: eacute
Encoding: 167 233 168
Width: 720
VWidth: 960
GlyphClass: 2
Flags: W
LayerCount: 2
Fore
SplineSet
240 720 m 1,0,-1
 240 840 l 1,1,-1
 360 840 l 1,2,-1
 360 720 l 1,3,-1
 240 720 l 1,0,-1
480 120 m 1,4,-1
 600 120 l 1,5,-1
 600 0 l 1,6,-1
 480 0 l 1,7,-1
 360 0 l 1,8,-1
 240 0 l 1,9,-1
 120 0 l 1,10,-1
 120 120 l 1,11,-1
 240 120 l 1,12,-1
 360 120 l 1,13,-1
 480 120 l 1,4,-1
120 120 m 1,14,-1
 0 120 l 1,15,-1
 0 240 l 1,16,-1
 0 360 l 1,17,-1
 0 480 l 1,18,-1
 120 480 l 1,19,-1
 120 360 l 1,20,-1
 240 360 l 1,21,-1
 360 360 l 1,22,-1
 480 360 l 1,23,-1
 480 480 l 1,24,-1
 600 480 l 1,25,-1
 600 360 l 1,26,-1
 600 240 l 1,27,-1
 480 240 l 1,28,-1
 360 240 l 1,29,-1
 240 240 l 1,30,-1
 120 240 l 1,31,-1
 120 120 l 1,14,-1
480 480 m 1,32,-1
 360 480 l 1,33,-1
 240 480 l 1,34,-1
 120 480 l 1,35,-1
 120 600 l 1,36,-1
 240 600 l 1,37,-1
 360 600 l 1,38,-1
 480 600 l 1,39,-1
 480 480 l 1,32,-1
360 840 m 1,40,-1
 360 960 l 1,41,-1
 480 960 l 1,42,-1
 480 840 l 1,43,-1
 360 840 l 1,40,-1
EndSplineSet
Validated: 5
EndChar

StartChar: ecircumflex
Encoding: 168 234 169
Width: 720
VWidth: 960
GlyphClass: 2
Flags: W
LayerCount: 2
Fore
SplineSet
360 720 m 1,0,-1
 360 840 l 1,1,-1
 480 840 l 1,2,-1
 480 720 l 1,3,-1
 360 720 l 1,0,-1
120 720 m 1,4,-1
 120 840 l 1,5,-1
 240 840 l 1,6,-1
 240 720 l 1,7,-1
 120 720 l 1,4,-1
480 120 m 1,8,-1
 600 120 l 1,9,-1
 600 0 l 1,10,-1
 480 0 l 1,11,-1
 360 0 l 1,12,-1
 240 0 l 1,13,-1
 120 0 l 1,14,-1
 120 120 l 1,15,-1
 240 120 l 1,16,-1
 360 120 l 1,17,-1
 480 120 l 1,8,-1
120 120 m 1,18,-1
 0 120 l 1,19,-1
 0 240 l 1,20,-1
 0 360 l 1,21,-1
 0 480 l 1,22,-1
 120 480 l 1,23,-1
 120 360 l 1,24,-1
 240 360 l 1,25,-1
 360 360 l 1,26,-1
 480 360 l 1,27,-1
 480 480 l 1,28,-1
 600 480 l 1,29,-1
 600 360 l 1,30,-1
 600 240 l 1,31,-1
 480 240 l 1,32,-1
 360 240 l 1,33,-1
 240 240 l 1,34,-1
 120 240 l 1,35,-1
 120 120 l 1,18,-1
480 480 m 1,36,-1
 360 480 l 1,37,-1
 240 480 l 1,38,-1
 120 480 l 1,39,-1
 120 600 l 1,40,-1
 240 600 l 1,41,-1
 360 600 l 1,42,-1
 480 600 l 1,43,-1
 480 480 l 1,36,-1
360 840 m 1,44,-1
 240 840 l 1,45,-1
 240 960 l 1,46,-1
 360 960 l 1,47,-1
 360 840 l 1,44,-1
EndSplineSet
Validated: 5
EndChar

StartChar: edieresis
Encoding: 169 235 170
Width: 720
VWidth: 960
GlyphClass: 2
Flags: W
LayerCount: 2
Fore
SplineSet
360 720 m 1,0,-1
 360 840 l 1,1,-1
 480 840 l 1,2,-1
 480 720 l 1,3,-1
 360 720 l 1,0,-1
120 720 m 1,4,-1
 120 840 l 1,5,-1
 240 840 l 1,6,-1
 240 720 l 1,7,-1
 120 720 l 1,4,-1
480 120 m 1,8,-1
 600 120 l 1,9,-1
 600 0 l 1,10,-1
 480 0 l 1,11,-1
 360 0 l 1,12,-1
 240 0 l 1,13,-1
 120 0 l 1,14,-1
 120 120 l 1,15,-1
 240 120 l 1,16,-1
 360 120 l 1,17,-1
 480 120 l 1,8,-1
120 120 m 1,18,-1
 0 120 l 1,19,-1
 0 240 l 1,20,-1
 0 360 l 1,21,-1
 0 480 l 1,22,-1
 120 480 l 1,23,-1
 120 360 l 1,24,-1
 240 360 l 1,25,-1
 360 360 l 1,26,-1
 480 360 l 1,27,-1
 480 480 l 1,28,-1
 600 480 l 1,29,-1
 600 360 l 1,30,-1
 600 240 l 1,31,-1
 480 240 l 1,32,-1
 360 240 l 1,33,-1
 240 240 l 1,34,-1
 120 240 l 1,35,-1
 120 120 l 1,18,-1
480 480 m 1,36,-1
 360 480 l 1,37,-1
 240 480 l 1,38,-1
 120 480 l 1,39,-1
 120 600 l 1,40,-1
 240 600 l 1,41,-1
 360 600 l 1,42,-1
 480 600 l 1,43,-1
 480 480 l 1,36,-1
EndSplineSet
Validated: 5
EndChar

StartChar: igrave
Encoding: 170 236 171
Width: 720
VWidth: 960
GlyphClass: 2
Flags: W
LayerCount: 2
Fore
SplineSet
240 720 m 1,0,-1
 240 840 l 1,1,-1
 360 840 l 1,2,-1
 360 720 l 1,3,-1
 240 720 l 1,0,-1
480 120 m 1,4,-1
 600 120 l 1,5,-1
 600 0 l 1,6,-1
 480 0 l 1,7,-1
 360 0 l 1,8,-1
 360 120 l 1,9,-1
 480 120 l 1,4,-1
360 120 m 1,10,-1
 240 120 l 1,11,-1
 240 240 l 1,12,-1
 240 360 l 1,13,-1
 240 480 l 1,14,-1
 120 480 l 1,15,-1
 120 600 l 1,16,-1
 240 600 l 1,17,-1
 360 600 l 1,18,-1
 360 480 l 1,19,-1
 360 360 l 1,20,-1
 360 240 l 1,21,-1
 360 120 l 1,10,-1
240 840 m 1,22,-1
 120 840 l 1,23,-1
 120 960 l 1,24,-1
 240 960 l 1,25,-1
 240 840 l 1,22,-1
EndSplineSet
Validated: 5
EndChar

StartChar: iacute
Encoding: 171 237 172
Width: 720
VWidth: 960
GlyphClass: 2
Flags: W
LayerCount: 2
Fore
SplineSet
240 720 m 1,0,-1
 240 840 l 1,1,-1
 360 840 l 1,2,-1
 360 720 l 1,3,-1
 240 720 l 1,0,-1
480 120 m 1,4,-1
 600 120 l 1,5,-1
 600 0 l 1,6,-1
 480 0 l 1,7,-1
 360 0 l 1,8,-1
 360 120 l 1,9,-1
 480 120 l 1,4,-1
360 120 m 1,10,-1
 240 120 l 1,11,-1
 240 240 l 1,12,-1
 240 360 l 1,13,-1
 240 480 l 1,14,-1
 120 480 l 1,15,-1
 120 600 l 1,16,-1
 240 600 l 1,17,-1
 360 600 l 1,18,-1
 360 480 l 1,19,-1
 360 360 l 1,20,-1
 360 240 l 1,21,-1
 360 120 l 1,10,-1
360 840 m 1,22,-1
 360 960 l 1,23,-1
 480 960 l 1,24,-1
 480 840 l 1,25,-1
 360 840 l 1,22,-1
EndSplineSet
Validated: 5
EndChar

StartChar: icircumflex
Encoding: 172 238 173
Width: 720
VWidth: 960
GlyphClass: 2
Flags: W
LayerCount: 2
Fore
SplineSet
360 720 m 1,0,-1
 360 840 l 1,1,-1
 480 840 l 1,2,-1
 480 720 l 1,3,-1
 360 720 l 1,0,-1
120 720 m 1,4,-1
 120 840 l 1,5,-1
 240 840 l 1,6,-1
 240 720 l 1,7,-1
 120 720 l 1,4,-1
480 120 m 1,8,-1
 600 120 l 1,9,-1
 600 0 l 1,10,-1
 480 0 l 1,11,-1
 360 0 l 1,12,-1
 360 120 l 1,13,-1
 480 120 l 1,8,-1
360 120 m 1,14,-1
 240 120 l 1,15,-1
 240 240 l 1,16,-1
 240 360 l 1,17,-1
 240 480 l 1,18,-1
 120 480 l 1,19,-1
 120 600 l 1,20,-1
 240 600 l 1,21,-1
 360 600 l 1,22,-1
 360 480 l 1,23,-1
 360 360 l 1,24,-1
 360 240 l 1,25,-1
 360 120 l 1,14,-1
360 840 m 1,26,-1
 240 840 l 1,27,-1
 240 960 l 1,28,-1
 360 960 l 1,29,-1
 360 840 l 1,26,-1
EndSplineSet
Validated: 5
EndChar

StartChar: idieresis
Encoding: 173 239 174
Width: 720
VWidth: 960
GlyphClass: 2
Flags: W
LayerCount: 2
Fore
SplineSet
360 720 m 1,0,-1
 360 840 l 1,1,-1
 480 840 l 1,2,-1
 480 720 l 1,3,-1
 360 720 l 1,0,-1
120 720 m 1,4,-1
 120 840 l 1,5,-1
 240 840 l 1,6,-1
 240 720 l 1,7,-1
 120 720 l 1,4,-1
480 120 m 1,8,-1
 600 120 l 1,9,-1
 600 0 l 1,10,-1
 480 0 l 1,11,-1
 360 0 l 1,12,-1
 360 120 l 1,13,-1
 480 120 l 1,8,-1
360 120 m 1,14,-1
 240 120 l 1,15,-1
 240 240 l 1,16,-1
 240 360 l 1,17,-1
 240 480 l 1,18,-1
 120 480 l 1,19,-1
 120 600 l 1,20,-1
 240 600 l 1,21,-1
 360 600 l 1,22,-1
 360 480 l 1,23,-1
 360 360 l 1,24,-1
 360 240 l 1,25,-1
 360 120 l 1,14,-1
EndSplineSet
Validated: 5
EndChar

StartChar: eth
Encoding: 174 240 175
Width: 720
VWidth: 960
GlyphClass: 2
Flags: W
LayerCount: 2
Fore
SplineSet
240 480 m 1,0,-1
 240 600 l 1,1,-1
 360 600 l 1,2,-1
 360 480 l 1,3,-1
 240 480 l 1,0,-1
360 120 m 1,4,-1
 480 120 l 1,5,-1
 480 0 l 1,6,-1
 360 0 l 1,7,-1
 240 0 l 1,8,-1
 120 0 l 1,9,-1
 120 120 l 1,10,-1
 240 120 l 1,11,-1
 360 120 l 1,4,-1
480 120 m 1,12,-1
 480 240 l 1,13,-1
 360 240 l 1,14,-1
 240 240 l 1,15,-1
 120 240 l 1,16,-1
 120 120 l 1,17,-1
 0 120 l 1,18,-1
 0 240 l 1,19,-1
 120 240 l 1,20,-1
 120 360 l 1,21,-1
 240 360 l 1,22,-1
 360 360 l 1,23,-1
 480 360 l 1,24,-1
 480 480 l 1,25,-1
 480 600 l 1,26,-1
 600 600 l 1,27,-1
 600 480 l 1,28,-1
 600 360 l 1,29,-1
 600 240 l 1,30,-1
 600 120 l 1,31,-1
 480 120 l 1,12,-1
480 600 m 1,32,-1
 360 600 l 1,33,-1
 360 720 l 1,34,-1
 480 720 l 1,35,-1
 480 600 l 1,32,-1
480 720 m 1,36,-1
 480 840 l 1,37,-1
 600 840 l 1,38,-1
 600 720 l 1,39,-1
 480 720 l 1,36,-1
360 720 m 1,40,-1
 240 720 l 1,41,-1
 120 720 l 1,42,-1
 120 840 l 1,43,-1
 240 840 l 1,44,-1
 360 840 l 1,45,-1
 360 720 l 1,40,-1
EndSplineSet
Validated: 5
EndChar

StartChar: ntilde
Encoding: 175 241 176
Width: 720
VWidth: 960
GlyphClass: 2
Flags: W
LayerCount: 2
Fore
SplineSet
480 0 m 1,0,-1
 480 120 l 1,1,-1
 480 240 l 1,2,-1
 480 360 l 1,3,-1
 480 480 l 1,4,-1
 600 480 l 1,5,-1
 600 360 l 1,6,-1
 600 240 l 1,7,-1
 600 120 l 1,8,-1
 600 0 l 1,9,-1
 480 0 l 1,0,-1
0 0 m 1,10,-1
 0 120 l 1,11,-1
 0 240 l 1,12,-1
 0 360 l 1,13,-1
 0 480 l 1,14,-1
 0 600 l 1,15,-1
 120 600 l 1,16,-1
 240 600 l 1,17,-1
 360 600 l 1,18,-1
 480 600 l 1,19,-1
 480 480 l 1,20,-1
 360 480 l 1,21,-1
 240 480 l 1,22,-1
 120 480 l 1,23,-1
 120 360 l 1,24,-1
 120 240 l 1,25,-1
 120 120 l 1,26,-1
 120 0 l 1,27,-1
 0 0 l 1,10,-1
360 720 m 1,28,-1
 360 840 l 1,29,-1
 480 840 l 1,30,-1
 480 720 l 1,31,-1
 360 720 l 1,28,-1
120 720 m 1,32,-1
 120 840 l 1,33,-1
 240 840 l 1,34,-1
 240 720 l 1,35,-1
 120 720 l 1,32,-1
480 840 m 1,36,-1
 480 960 l 1,37,-1
 600 960 l 1,38,-1
 600 840 l 1,39,-1
 480 840 l 1,36,-1
360 840 m 1,40,-1
 240 840 l 1,41,-1
 240 960 l 1,42,-1
 360 960 l 1,43,-1
 360 840 l 1,40,-1
EndSplineSet
Validated: 5
EndChar

StartChar: ograve
Encoding: 176 242 177
Width: 720
VWidth: 960
GlyphClass: 2
Flags: W
LayerCount: 2
Fore
SplineSet
240 720 m 1,0,-1
 240 840 l 1,1,-1
 360 840 l 1,2,-1
 360 720 l 1,3,-1
 240 720 l 1,0,-1
360 120 m 1,4,-1
 480 120 l 1,5,-1
 480 0 l 1,6,-1
 360 0 l 1,7,-1
 240 0 l 1,8,-1
 120 0 l 1,9,-1
 120 120 l 1,10,-1
 240 120 l 1,11,-1
 360 120 l 1,4,-1
480 120 m 1,12,-1
 480 240 l 1,13,-1
 480 360 l 1,14,-1
 480 480 l 1,15,-1
 600 480 l 1,16,-1
 600 360 l 1,17,-1
 600 240 l 1,18,-1
 600 120 l 1,19,-1
 480 120 l 1,12,-1
120 120 m 1,20,-1
 0 120 l 1,21,-1
 0 240 l 1,22,-1
 0 360 l 1,23,-1
 0 480 l 1,24,-1
 120 480 l 1,25,-1
 120 360 l 1,26,-1
 120 240 l 1,27,-1
 120 120 l 1,20,-1
480 480 m 1,28,-1
 360 480 l 1,29,-1
 240 480 l 1,30,-1
 120 480 l 1,31,-1
 120 600 l 1,32,-1
 240 600 l 1,33,-1
 360 600 l 1,34,-1
 480 600 l 1,35,-1
 480 480 l 1,28,-1
240 840 m 1,36,-1
 120 840 l 1,37,-1
 120 960 l 1,38,-1
 240 960 l 1,39,-1
 240 840 l 1,36,-1
EndSplineSet
Validated: 5
EndChar

StartChar: oacute
Encoding: 177 243 178
Width: 720
VWidth: 960
GlyphClass: 2
Flags: W
LayerCount: 2
Fore
SplineSet
240 720 m 1,0,-1
 240 840 l 1,1,-1
 360 840 l 1,2,-1
 360 720 l 1,3,-1
 240 720 l 1,0,-1
360 120 m 1,4,-1
 480 120 l 1,5,-1
 480 0 l 1,6,-1
 360 0 l 1,7,-1
 240 0 l 1,8,-1
 120 0 l 1,9,-1
 120 120 l 1,10,-1
 240 120 l 1,11,-1
 360 120 l 1,4,-1
480 120 m 1,12,-1
 480 240 l 1,13,-1
 480 360 l 1,14,-1
 480 480 l 1,15,-1
 600 480 l 1,16,-1
 600 360 l 1,17,-1
 600 240 l 1,18,-1
 600 120 l 1,19,-1
 480 120 l 1,12,-1
120 120 m 1,20,-1
 0 120 l 1,21,-1
 0 240 l 1,22,-1
 0 360 l 1,23,-1
 0 480 l 1,24,-1
 120 480 l 1,25,-1
 120 360 l 1,26,-1
 120 240 l 1,27,-1
 120 120 l 1,20,-1
480 480 m 1,28,-1
 360 480 l 1,29,-1
 240 480 l 1,30,-1
 120 480 l 1,31,-1
 120 600 l 1,32,-1
 240 600 l 1,33,-1
 360 600 l 1,34,-1
 480 600 l 1,35,-1
 480 480 l 1,28,-1
360 840 m 1,36,-1
 360 960 l 1,37,-1
 480 960 l 1,38,-1
 480 840 l 1,39,-1
 360 840 l 1,36,-1
EndSplineSet
Validated: 5
EndChar

StartChar: ocircumflex
Encoding: 178 244 179
Width: 720
VWidth: 960
GlyphClass: 2
Flags: W
LayerCount: 2
Fore
SplineSet
360 720 m 1,0,-1
 360 840 l 1,1,-1
 480 840 l 1,2,-1
 480 720 l 1,3,-1
 360 720 l 1,0,-1
120 720 m 1,4,-1
 120 840 l 1,5,-1
 240 840 l 1,6,-1
 240 720 l 1,7,-1
 120 720 l 1,4,-1
360 120 m 1,8,-1
 480 120 l 1,9,-1
 480 0 l 1,10,-1
 360 0 l 1,11,-1
 240 0 l 1,12,-1
 120 0 l 1,13,-1
 120 120 l 1,14,-1
 240 120 l 1,15,-1
 360 120 l 1,8,-1
480 120 m 1,16,-1
 480 240 l 1,17,-1
 480 360 l 1,18,-1
 480 480 l 1,19,-1
 600 480 l 1,20,-1
 600 360 l 1,21,-1
 600 240 l 1,22,-1
 600 120 l 1,23,-1
 480 120 l 1,16,-1
120 120 m 1,24,-1
 0 120 l 1,25,-1
 0 240 l 1,26,-1
 0 360 l 1,27,-1
 0 480 l 1,28,-1
 120 480 l 1,29,-1
 120 360 l 1,30,-1
 120 240 l 1,31,-1
 120 120 l 1,24,-1
480 480 m 1,32,-1
 360 480 l 1,33,-1
 240 480 l 1,34,-1
 120 480 l 1,35,-1
 120 600 l 1,36,-1
 240 600 l 1,37,-1
 360 600 l 1,38,-1
 480 600 l 1,39,-1
 480 480 l 1,32,-1
360 840 m 1,40,-1
 240 840 l 1,41,-1
 240 960 l 1,42,-1
 360 960 l 1,43,-1
 360 840 l 1,40,-1
EndSplineSet
Validated: 5
EndChar

StartChar: otilde
Encoding: 179 245 180
Width: 720
VWidth: 960
GlyphClass: 2
Flags: W
LayerCount: 2
Fore
SplineSet
360 720 m 1,0,-1
 360 840 l 1,1,-1
 480 840 l 1,2,-1
 480 720 l 1,3,-1
 360 720 l 1,0,-1
120 720 m 1,4,-1
 120 840 l 1,5,-1
 240 840 l 1,6,-1
 240 720 l 1,7,-1
 120 720 l 1,4,-1
360 120 m 1,8,-1
 480 120 l 1,9,-1
 480 0 l 1,10,-1
 360 0 l 1,11,-1
 240 0 l 1,12,-1
 120 0 l 1,13,-1
 120 120 l 1,14,-1
 240 120 l 1,15,-1
 360 120 l 1,8,-1
480 120 m 1,16,-1
 480 240 l 1,17,-1
 480 360 l 1,18,-1
 480 480 l 1,19,-1
 600 480 l 1,20,-1
 600 360 l 1,21,-1
 600 240 l 1,22,-1
 600 120 l 1,23,-1
 480 120 l 1,16,-1
120 120 m 1,24,-1
 0 120 l 1,25,-1
 0 240 l 1,26,-1
 0 360 l 1,27,-1
 0 480 l 1,28,-1
 120 480 l 1,29,-1
 120 360 l 1,30,-1
 120 240 l 1,31,-1
 120 120 l 1,24,-1
480 480 m 1,32,-1
 360 480 l 1,33,-1
 240 480 l 1,34,-1
 120 480 l 1,35,-1
 120 600 l 1,36,-1
 240 600 l 1,37,-1
 360 600 l 1,38,-1
 480 600 l 1,39,-1
 480 480 l 1,32,-1
480 840 m 1,40,-1
 480 960 l 1,41,-1
 600 960 l 1,42,-1
 600 840 l 1,43,-1
 480 840 l 1,40,-1
360 840 m 1,44,-1
 240 840 l 1,45,-1
 240 960 l 1,46,-1
 360 960 l 1,47,-1
 360 840 l 1,44,-1
EndSplineSet
Validated: 5
EndChar

StartChar: odieresis
Encoding: 180 246 181
Width: 720
VWidth: 960
GlyphClass: 2
Flags: W
LayerCount: 2
Fore
SplineSet
360 720 m 1,0,-1
 360 840 l 1,1,-1
 480 840 l 1,2,-1
 480 720 l 1,3,-1
 360 720 l 1,0,-1
120 720 m 1,4,-1
 120 840 l 1,5,-1
 240 840 l 1,6,-1
 240 720 l 1,7,-1
 120 720 l 1,4,-1
360 120 m 1,8,-1
 480 120 l 1,9,-1
 480 0 l 1,10,-1
 360 0 l 1,11,-1
 240 0 l 1,12,-1
 120 0 l 1,13,-1
 120 120 l 1,14,-1
 240 120 l 1,15,-1
 360 120 l 1,8,-1
480 120 m 1,16,-1
 480 240 l 1,17,-1
 480 360 l 1,18,-1
 480 480 l 1,19,-1
 600 480 l 1,20,-1
 600 360 l 1,21,-1
 600 240 l 1,22,-1
 600 120 l 1,23,-1
 480 120 l 1,16,-1
120 120 m 1,24,-1
 0 120 l 1,25,-1
 0 240 l 1,26,-1
 0 360 l 1,27,-1
 0 480 l 1,28,-1
 120 480 l 1,29,-1
 120 360 l 1,30,-1
 120 240 l 1,31,-1
 120 120 l 1,24,-1
480 480 m 1,32,-1
 360 480 l 1,33,-1
 240 480 l 1,34,-1
 120 480 l 1,35,-1
 120 600 l 1,36,-1
 240 600 l 1,37,-1
 360 600 l 1,38,-1
 480 600 l 1,39,-1
 480 480 l 1,32,-1
EndSplineSet
Validated: 5
EndChar

StartChar: divide
Encoding: 181 247 182
Width: 720
VWidth: 960
GlyphClass: 2
Flags: W
LayerCount: 2
Fore
SplineSet
240 120 m 1,0,-1
 240 240 l 1,1,-1
 360 240 l 1,2,-1
 360 120 l 1,3,-1
 240 120 l 1,0,-1
240 600 m 1,4,-1
 240 720 l 1,5,-1
 360 720 l 1,6,-1
 360 600 l 1,7,-1
 240 600 l 1,4,-1
480 480 m 1,8,-1
 600 480 l 1,9,-1
 600 360 l 1,10,-1
 480 360 l 1,11,-1
 360 360 l 1,12,-1
 240 360 l 1,13,-1
 120 360 l 1,14,-1
 0 360 l 1,15,-1
 0 480 l 1,16,-1
 120 480 l 1,17,-1
 240 480 l 1,18,-1
 360 480 l 1,19,-1
 480 480 l 1,8,-1
EndSplineSet
Validated: 1
EndChar

StartChar: oslash
Encoding: 182 248 183
Width: 720
VWidth: 960
GlyphClass: 2
Flags: W
LayerCount: 2
Fore
SplineSet
360 120 m 1,0,-1
 480 120 l 1,1,-1
 480 0 l 1,2,-1
 360 0 l 1,3,-1
 240 0 l 1,4,-1
 120 0 l 1,5,-1
 120 120 l 1,6,-1
 0 120 l 1,7,-1
 0 240 l 1,8,-1
 0 360 l 1,9,-1
 0 480 l 1,10,-1
 120 480 l 1,11,-1
 120 360 l 1,12,-1
 120 240 l 1,13,-1
 240 240 l 1,14,-1
 240 120 l 1,15,-1
 360 120 l 1,0,-1
480 120 m 1,16,-1
 480 240 l 1,17,-1
 480 360 l 1,18,-1
 360 360 l 1,19,-1
 360 240 l 1,20,-1
 240 240 l 1,21,-1
 240 360 l 1,22,-1
 360 360 l 1,23,-1
 360 480 l 1,24,-1
 240 480 l 1,25,-1
 120 480 l 1,26,-1
 120 600 l 1,27,-1
 240 600 l 1,28,-1
 360 600 l 1,29,-1
 480 600 l 1,30,-1
 480 480 l 1,31,-1
 600 480 l 1,32,-1
 600 360 l 1,33,-1
 600 240 l 1,34,-1
 600 120 l 1,35,-1
 480 120 l 1,16,-1
EndSplineSet
Validated: 5
EndChar

StartChar: ugrave
Encoding: 183 249 184
Width: 720
VWidth: 960
GlyphClass: 2
Flags: W
LayerCount: 2
Fore
SplineSet
240 720 m 1,0,-1
 240 840 l 1,1,-1
 360 840 l 1,2,-1
 360 720 l 1,3,-1
 240 720 l 1,0,-1
480 0 m 1,4,-1
 360 0 l 1,5,-1
 240 0 l 1,6,-1
 120 0 l 1,7,-1
 120 120 l 1,8,-1
 240 120 l 1,9,-1
 360 120 l 1,10,-1
 480 120 l 1,11,-1
 480 240 l 1,12,-1
 480 360 l 1,13,-1
 480 480 l 1,14,-1
 480 600 l 1,15,-1
 600 600 l 1,16,-1
 600 480 l 1,17,-1
 600 360 l 1,18,-1
 600 240 l 1,19,-1
 600 120 l 1,20,-1
 600 0 l 1,21,-1
 480 0 l 1,4,-1
120 120 m 1,22,-1
 0 120 l 1,23,-1
 0 240 l 1,24,-1
 0 360 l 1,25,-1
 0 480 l 1,26,-1
 0 600 l 1,27,-1
 120 600 l 1,28,-1
 120 480 l 1,29,-1
 120 360 l 1,30,-1
 120 240 l 1,31,-1
 120 120 l 1,22,-1
240 840 m 1,32,-1
 120 840 l 1,33,-1
 120 960 l 1,34,-1
 240 960 l 1,35,-1
 240 840 l 1,32,-1
EndSplineSet
Validated: 5
EndChar

StartChar: uacute
Encoding: 184 250 185
Width: 720
VWidth: 960
GlyphClass: 2
Flags: W
LayerCount: 2
Fore
SplineSet
240 720 m 1,0,-1
 240 840 l 1,1,-1
 360 840 l 1,2,-1
 360 720 l 1,3,-1
 240 720 l 1,0,-1
480 0 m 1,4,-1
 360 0 l 1,5,-1
 240 0 l 1,6,-1
 120 0 l 1,7,-1
 120 120 l 1,8,-1
 240 120 l 1,9,-1
 360 120 l 1,10,-1
 480 120 l 1,11,-1
 480 240 l 1,12,-1
 480 360 l 1,13,-1
 480 480 l 1,14,-1
 480 600 l 1,15,-1
 600 600 l 1,16,-1
 600 480 l 1,17,-1
 600 360 l 1,18,-1
 600 240 l 1,19,-1
 600 120 l 1,20,-1
 600 0 l 1,21,-1
 480 0 l 1,4,-1
120 120 m 1,22,-1
 0 120 l 1,23,-1
 0 240 l 1,24,-1
 0 360 l 1,25,-1
 0 480 l 1,26,-1
 0 600 l 1,27,-1
 120 600 l 1,28,-1
 120 480 l 1,29,-1
 120 360 l 1,30,-1
 120 240 l 1,31,-1
 120 120 l 1,22,-1
360 840 m 1,32,-1
 360 960 l 1,33,-1
 480 960 l 1,34,-1
 480 840 l 1,35,-1
 360 840 l 1,32,-1
EndSplineSet
Validated: 5
EndChar

StartChar: ucircumflex
Encoding: 185 251 186
Width: 720
VWidth: 960
GlyphClass: 2
Flags: W
LayerCount: 2
Fore
SplineSet
360 720 m 1,0,-1
 360 840 l 1,1,-1
 480 840 l 1,2,-1
 480 720 l 1,3,-1
 360 720 l 1,0,-1
120 720 m 1,4,-1
 120 840 l 1,5,-1
 240 840 l 1,6,-1
 240 720 l 1,7,-1
 120 720 l 1,4,-1
480 0 m 1,8,-1
 360 0 l 1,9,-1
 240 0 l 1,10,-1
 120 0 l 1,11,-1
 120 120 l 1,12,-1
 240 120 l 1,13,-1
 360 120 l 1,14,-1
 480 120 l 1,15,-1
 480 240 l 1,16,-1
 480 360 l 1,17,-1
 480 480 l 1,18,-1
 480 600 l 1,19,-1
 600 600 l 1,20,-1
 600 480 l 1,21,-1
 600 360 l 1,22,-1
 600 240 l 1,23,-1
 600 120 l 1,24,-1
 600 0 l 1,25,-1
 480 0 l 1,8,-1
120 120 m 1,26,-1
 0 120 l 1,27,-1
 0 240 l 1,28,-1
 0 360 l 1,29,-1
 0 480 l 1,30,-1
 0 600 l 1,31,-1
 120 600 l 1,32,-1
 120 480 l 1,33,-1
 120 360 l 1,34,-1
 120 240 l 1,35,-1
 120 120 l 1,26,-1
360 840 m 1,36,-1
 240 840 l 1,37,-1
 240 960 l 1,38,-1
 360 960 l 1,39,-1
 360 840 l 1,36,-1
EndSplineSet
Validated: 5
EndChar

StartChar: udieresis
Encoding: 186 252 187
Width: 720
VWidth: 960
GlyphClass: 2
Flags: W
LayerCount: 2
Fore
SplineSet
360 720 m 1,0,-1
 360 840 l 1,1,-1
 480 840 l 1,2,-1
 480 720 l 1,3,-1
 360 720 l 1,0,-1
120 720 m 1,4,-1
 120 840 l 1,5,-1
 240 840 l 1,6,-1
 240 720 l 1,7,-1
 120 720 l 1,4,-1
480 0 m 1,8,-1
 360 0 l 1,9,-1
 240 0 l 1,10,-1
 120 0 l 1,11,-1
 120 120 l 1,12,-1
 240 120 l 1,13,-1
 360 120 l 1,14,-1
 480 120 l 1,15,-1
 480 240 l 1,16,-1
 480 360 l 1,17,-1
 480 480 l 1,18,-1
 480 600 l 1,19,-1
 600 600 l 1,20,-1
 600 480 l 1,21,-1
 600 360 l 1,22,-1
 600 240 l 1,23,-1
 600 120 l 1,24,-1
 600 0 l 1,25,-1
 480 0 l 1,8,-1
120 120 m 1,26,-1
 0 120 l 1,27,-1
 0 240 l 1,28,-1
 0 360 l 1,29,-1
 0 480 l 1,30,-1
 0 600 l 1,31,-1
 120 600 l 1,32,-1
 120 480 l 1,33,-1
 120 360 l 1,34,-1
 120 240 l 1,35,-1
 120 120 l 1,26,-1
EndSplineSet
Validated: 5
EndChar

StartChar: yacute
Encoding: 187 253 188
Width: 720
VWidth: 960
GlyphClass: 2
Flags: W
LayerCount: 2
Fore
SplineSet
240 720 m 1,0,-1
 240 840 l 1,1,-1
 360 840 l 1,2,-1
 360 720 l 1,3,-1
 240 720 l 1,0,-1
360 0 m 1,4,-1
 480 0 l 1,5,-1
 480 -120 l 1,6,-1
 360 -120 l 1,7,-1
 240 -120 l 1,8,-1
 120 -120 l 1,9,-1
 0 -120 l 1,10,-1
 0 0 l 1,11,-1
 120 0 l 1,12,-1
 240 0 l 1,13,-1
 360 0 l 1,4,-1
480 0 m 1,14,-1
 480 120 l 1,15,-1
 360 120 l 1,16,-1
 240 120 l 1,17,-1
 120 120 l 1,18,-1
 120 240 l 1,19,-1
 240 240 l 1,20,-1
 360 240 l 1,21,-1
 480 240 l 1,22,-1
 480 360 l 1,23,-1
 480 480 l 1,24,-1
 480 600 l 1,25,-1
 600 600 l 1,26,-1
 600 480 l 1,27,-1
 600 360 l 1,28,-1
 600 240 l 1,29,-1
 600 120 l 1,30,-1
 600 0 l 1,31,-1
 480 0 l 1,14,-1
120 240 m 1,32,-1
 0 240 l 1,33,-1
 0 360 l 1,34,-1
 0 480 l 1,35,-1
 0 600 l 1,36,-1
 120 600 l 1,37,-1
 120 480 l 1,38,-1
 120 360 l 1,39,-1
 120 240 l 1,32,-1
360 840 m 1,40,-1
 360 960 l 1,41,-1
 480 960 l 1,42,-1
 480 840 l 1,43,-1
 360 840 l 1,40,-1
EndSplineSet
Validated: 5
EndChar

StartChar: Euro
Encoding: 188 8364 189
Width: 720
VWidth: 960
GlyphClass: 2
Flags: W
LayerCount: 2
Fore
SplineSet
480 600 m 1,0,-1
 480 720 l 1,1,-1
 600 720 l 1,2,-1
 600 600 l 1,3,-1
 480 600 l 1,0,-1
360 120 m 1,4,-1
 480 120 l 1,5,-1
 480 0 l 1,6,-1
 360 0 l 1,7,-1
 240 0 l 1,8,-1
 240 120 l 1,9,-1
 360 120 l 1,4,-1
480 120 m 1,10,-1
 480 240 l 1,11,-1
 600 240 l 1,12,-1
 600 120 l 1,13,-1
 480 120 l 1,10,-1
240 120 m 1,14,-1
 120 120 l 1,15,-1
 120 240 l 1,16,-1
 0 240 l 1,17,-1
 0 360 l 1,18,-1
 120 360 l 1,19,-1
 120 480 l 1,20,-1
 0 480 l 1,21,-1
 0 600 l 1,22,-1
 120 600 l 1,23,-1
 120 720 l 1,24,-1
 240 720 l 1,25,-1
 240 600 l 1,26,-1
 360 600 l 1,27,-1
 360 480 l 1,28,-1
 240 480 l 1,29,-1
 240 360 l 1,30,-1
 360 360 l 1,31,-1
 360 240 l 1,32,-1
 240 240 l 1,33,-1
 240 120 l 1,14,-1
480 720 m 1,34,-1
 360 720 l 1,35,-1
 240 720 l 1,36,-1
 240 840 l 1,37,-1
 360 840 l 1,38,-1
 480 840 l 1,39,-1
 480 720 l 1,34,-1
EndSplineSet
Validated: 5
EndChar

StartChar: smileface
Encoding: 189 9786 190
Width: 720
VWidth: 960
GlyphClass: 2
Flags: W
LayerCount: 2
Fore
SplineSet
360 480 m 1,0,-1
 360 600 l 1,1,-1
 360 720 l 1,2,-1
 480 720 l 1,3,-1
 480 600 l 1,4,-1
 480 480 l 1,5,-1
 360 480 l 1,0,-1
120 480 m 1,6,-1
 120 600 l 1,7,-1
 120 720 l 1,8,-1
 240 720 l 1,9,-1
 240 600 l 1,10,-1
 240 480 l 1,11,-1
 120 480 l 1,6,-1
360 240 m 1,12,-1
 480 240 l 1,13,-1
 480 120 l 1,14,-1
 360 120 l 1,15,-1
 240 120 l 1,16,-1
 120 120 l 1,17,-1
 120 240 l 1,18,-1
 240 240 l 1,19,-1
 360 240 l 1,12,-1
480 240 m 1,20,-1
 480 360 l 1,21,-1
 600 360 l 1,22,-1
 600 240 l 1,23,-1
 480 240 l 1,20,-1
120 240 m 1,24,-1
 0 240 l 1,25,-1
 0 360 l 1,26,-1
 120 360 l 1,27,-1
 120 240 l 1,24,-1
EndSplineSet
Validated: 5
EndChar

StartChar: invsmileface
Encoding: 190 9787 191
Width: 720
VWidth: 960
GlyphClass: 2
Flags: W
LayerCount: 2
Fore
SplineSet
480 0 m 1,0,-1
 360 0 l 1,1,-1
 240 0 l 1,2,-1
 120 0 l 1,3,-1
 120 120 l 1,4,-1
 0 120 l 1,5,-1
 0 240 l 1,6,-1
 0 360 l 1,7,-1
 0 480 l 1,8,-1
 0 600 l 1,9,-1
 0 720 l 1,10,-1
 120 720 l 1,11,-1
 120 840 l 1,12,-1
 240 840 l 1,13,-1
 360 840 l 1,14,-1
 480 840 l 1,15,-1
 600 840 l 1,16,-1
 600 720 l 1,17,-1
 720 720 l 5,18,-1
 720 600 l 1,19,-1
 720 480 l 1,20,-1
 720 360 l 1,21,-1
 720 240 l 1,22,-1
 720 120 l 1,23,-1
 600 120 l 1,24,-1
 600 0 l 1,25,-1
 480 0 l 1,0,-1
360 120 m 1,26,-1
 480 120 l 1,27,-1
 480 240 l 1,28,-1
 360 240 l 1,29,-1
 240 240 l 1,30,-1
 240 360 l 1,31,-1
 120 360 l 1,32,-1
 120 240 l 1,33,-1
 240 240 l 1,34,-1
 240 120 l 1,35,-1
 360 120 l 1,26,-1
600 240 m 1,36,-1
 600 360 l 1,37,-1
 480 360 l 1,38,-1
 480 240 l 1,39,-1
 600 240 l 1,36,-1
600 480 m 1,40,-1
 600 600 l 1,41,-1
 480 600 l 1,42,-1
 480 480 l 1,43,-1
 600 480 l 1,40,-1
360 600 m 1,44,-1
 360 720 l 1,45,-1
 240 720 l 1,46,-1
 240 600 l 1,47,-1
 360 600 l 1,44,-1
EndSplineSet
Validated: 5
EndChar

StartChar: heart
Encoding: 191 9829 192
Width: 720
VWidth: 960
GlyphClass: 2
Flags: W
LayerCount: 2
Fore
SplineSet
240 0 m 1,0,-1
 240 120 l 1,1,-1
 120 120 l 1,2,-1
 120 240 l 1,3,-1
 0 240 l 1,4,-1
 0 360 l 1,5,-1
 0 480 l 1,6,-1
 0 600 l 1,7,-1
 120 600 l 1,8,-1
 120 720 l 1,9,-1
 240 720 l 1,10,-1
 240 600 l 1,11,-1
 360 600 l 1,12,-1
 360 720 l 1,13,-1
 480 720 l 1,14,-1
 480 600 l 1,15,-1
 600 600 l 1,16,-1
 600 480 l 1,17,-1
 600 360 l 1,18,-1
 600 240 l 1,19,-1
 480 240 l 1,20,-1
 480 120 l 1,21,-1
 360 120 l 1,22,-1
 360 0 l 1,23,-1
 240 0 l 1,0,-1
EndSplineSet
Validated: 1
EndChar

StartChar: doubleequal
Encoding: 194 -1 194
Width: 1440
VWidth: 960
Flags: W
LayerCount: 2
Fore
SplineSet
480 240 m 1,0,-1
 1320 240 l 1,1,-1
 1320 120 l 1,2,-1
 480 120 l 1,3,-1
 360 120 l 1,4,-1
 240 120 l 1,5,-1
 120 120 l 1,6,-1
 0 120 l 1,7,-1
 0 240 l 1,8,-1
 120 240 l 1,9,-1
 240 240 l 1,10,-1
 360 240 l 1,11,-1
 480 240 l 1,0,-1
480 600 m 1,12,-1
 1320 600 l 1,13,-1
 1320 480 l 1,14,-1
 480 480 l 1,15,-1
 360 480 l 1,16,-1
 240 480 l 1,17,-1
 120 480 l 1,18,-1
 0 480 l 1,19,-1
 0 600 l 1,20,-1
 120 600 l 1,21,-1
 240 600 l 1,22,-1
 360 600 l 1,23,-1
 480 600 l 1,12,-1
EndSplineSet
Validated: 1
Ligature2: "liga-subtable" equal equal
LCarets2: 1 0
EndChar

StartChar: tripleequal
Encoding: 195 -1 195
Width: 2160
VWidth: 960
Flags: W
LayerCount: 2
Fore
SplineSet
480 480 m 1,0,-1
 2040 480 l 5,1,-1
 2040 360 l 5,2,-1
 480 360 l 1,3,-1
 360 360 l 1,4,-1
 240 360 l 1,5,-1
 120 360 l 1,6,-1
 0 360 l 1,7,-1
 0 480 l 1,8,-1
 120 480 l 1,9,-1
 240 480 l 1,10,-1
 360 480 l 1,11,-1
 480 480 l 1,0,-1
480 240 m 1,12,-1
 2040 240 l 5,13,-1
 2040 120 l 5,14,-1
 480 120 l 1,15,-1
 360 120 l 1,16,-1
 240 120 l 1,17,-1
 120 120 l 1,18,-1
 0 120 l 1,19,-1
 0 240 l 1,20,-1
 120 240 l 1,21,-1
 240 240 l 1,22,-1
 360 240 l 1,23,-1
 480 240 l 1,12,-1
480 720 m 1,24,-1
 2040 720 l 5,25,-1
 2040 600 l 5,26,-1
 480 600 l 1,27,-1
 360 600 l 1,28,-1
 240 600 l 1,29,-1
 120 600 l 1,30,-1
 0 600 l 1,31,-1
 0 720 l 1,32,-1
 120 720 l 1,33,-1
 240 720 l 1,34,-1
 360 720 l 1,35,-1
 480 720 l 1,24,-1
EndSplineSet
Validated: 1
LCarets2: 2 0 0
Ligature2: "liga-subtable" equal equal equal
EndChar

StartChar: notdoubleequal
Encoding: 196 -1 196
Width: 1440
VWidth: 960
Flags: W
LayerCount: 2
Fore
SplineSet
480 -120 m 25,0,-1
 480 120 l 25,1,-1
 600 120 l 25,2,-1
 600 -120 l 25,3,-1
 480 -120 l 25,0,-1
600 -120 m 25,4,-1
 480 -120 l 25,5,-1
 600 -120 l 25,4,-1
720 840 m 25,6,-1
 840 840 l 25,7,-1
 840 600 l 29,8,-1
 720 600 l 29,9,-1
 720 840 l 25,6,-1
600 480 m 25,10,-1
 720 480 l 25,11,-1
 720 240 l 25,12,-1
 600 240 l 25,13,-1
 600 480 l 25,10,-1
480 240 m 1,14,-1
 600 240 l 1,15,16
 600 240 600 240 720 240 c 1,17,18
 720 240 720 240 1320 240 c 1,19,-1
 1320 120 l 1,20,-1
 600 120 l 1,21,22
 600 120 600 120 480 120 c 1,23,-1
 360 120 l 1,24,-1
 240 120 l 1,25,-1
 120 120 l 1,26,-1
 0 120 l 1,27,-1
 0 240 l 1,28,-1
 120 240 l 1,29,-1
 240 240 l 1,30,-1
 360 240 l 1,31,-1
 480 240 l 1,14,-1
480 600 m 1,32,-1
 720 600 l 5,33,34
 720 600 720 600 840 600 c 5,35,36
 840 600 840 600 1320 600 c 1,37,-1
 1320 480 l 1,38,-1
 720 480 l 1,39,40
 720 480 720 480 600 480 c 1,41,42
 600 480 600 480 480 480 c 1,43,-1
 360 480 l 1,44,-1
 240 480 l 1,45,-1
 120 480 l 1,46,-1
 0 480 l 1,47,-1
 0 600 l 1,48,-1
 120 600 l 1,49,-1
 240 600 l 1,50,-1
 360 600 l 1,51,-1
 480 600 l 1,32,-1
EndSplineSet
Validated: 5
LCarets2: 2 0 0
Ligature2: "liga-subtable" exclam equal
EndChar

StartChar: nottripleequal
Encoding: 197 -1 197
Width: 2160
VWidth: 960
Flags: W
LayerCount: 2
Fore
SplineSet
1080 960 m 25,0,-1
 1200 960 l 25,1,-1
 1200 720 l 25,2,-1
 1080 720 l 25,3,-1
 1080 960 l 25,0,-1
960 -120 m 25,4,-1
 840 -120 l 25,5,-1
 840 120 l 25,6,-1
 960 120 l 25,7,-1
 960 -120 l 25,4,-1
960 600 m 25,8,-1
 1080 600 l 25,9,-1
 1080 240 l 25,10,-1
 960 240 l 25,11,-1
 960 600 l 25,8,-1
840 480 m 1,12,-1
 2040 480 l 1,13,-1
 2040 360 l 1,14,-1
 840 360 l 1,15,-1
 360 360 l 1,16,-1
 240 360 l 1,17,-1
 120 360 l 1,18,-1
 0 360 l 1,19,-1
 0 480 l 1,20,-1
 120 480 l 1,21,-1
 240 480 l 1,22,-1
 360 480 l 1,23,-1
 840 480 l 1,12,-1
840 240 m 1,24,-1
 960 240 l 1,25,26
 960 240 960 240 1080 240 c 1,27,28
 1080 240 1080 240 2040 240 c 1,29,-1
 2040 120 l 1,30,-1
 960 120 l 1,31,32
 960 120 960 120 840 120 c 1,33,-1
 360 120 l 1,34,-1
 240 120 l 1,35,-1
 120 120 l 1,36,-1
 0 120 l 1,37,-1
 0 240 l 1,38,-1
 120 240 l 1,39,-1
 240 240 l 1,40,-1
 360 240 l 1,41,-1
 840 240 l 1,24,-1
840 720 m 1,42,-1
 1080 720 l 1,43,44
 1080 720 1080 720 1200 720 c 1,45,46
 1200 720 1200 720 2040 720 c 1,47,-1
 2040 600 l 1,48,-1
 1080 600 l 1,49,50
 1080 600 1080 600 960 600 c 1,51,52
 960 600 960 600 840 600 c 1,53,-1
 360 600 l 1,54,-1
 240 600 l 1,55,-1
 120 600 l 1,56,-1
 0 600 l 1,57,-1
 0 720 l 1,58,-1
 120 720 l 1,59,-1
 240 720 l 1,60,-1
 360 720 l 1,61,-1
 840 720 l 1,42,-1
EndSplineSet
Validated: 5
LCarets2: 2 0 0
Ligature2: "liga-subtable" exclam equal equal
EndChar

StartChar: leftarrow
Encoding: 198 -1 198
Width: 1440
VWidth: 960
Flags: W
LayerCount: 2
Fore
SplineSet
480 840 m 1,0,-1
 480 720 l 1,1,-1
 360 720 l 1,2,-1
 360 840 l 1,3,-1
 480 840 l 1,0,-1
360 720 m 1,4,-1
 360 600 l 1,5,-1
 240 600 l 1,6,-1
 240 720 l 1,7,-1
 360 720 l 1,4,-1
240 600 m 1,8,-1
 240 480 l 1,9,-1
 120 480 l 1,10,-1
 120 600 l 1,11,-1
 240 600 l 1,8,-1
1320 480 m 1,12,-1
 1320 360 l 1,13,-1
 0 360 l 1,14,-1
 0 480 l 1,15,-1
 1320 480 l 1,12,-1
120 360 m 1,16,-1
 240 360 l 1,17,-1
 240 240 l 1,18,-1
 120 240 l 1,19,-1
 120 360 l 1,16,-1
240 240 m 1,20,-1
 360 240 l 1,21,-1
 360 120 l 1,22,-1
 240 120 l 1,23,-1
 240 240 l 1,20,-1
360 120 m 1,24,-1
 480 120 l 1,25,-1
 480 0 l 1,26,-1
 360 0 l 1,27,-1
 360 120 l 1,24,-1
EndSplineSet
Validated: 5
Ligature2: "liga-subtable" less hyphen
EndChar

StartChar: rightarrow
Encoding: 199 -1 199
Width: 1440
VWidth: 960
Flags: W
LayerCount: 2
Fore
SplineSet
840 0 m 1,0,-1
 840 120 l 1,1,-1
 960 120 l 1,2,-1
 960 0 l 1,3,-1
 840 0 l 1,0,-1
960 120 m 1,4,-1
 960 240 l 1,5,-1
 1080 240 l 1,6,-1
 1080 120 l 1,7,-1
 960 120 l 1,4,-1
1080 240 m 1,8,-1
 1080 360 l 1,9,-1
 1200 360 l 1,10,-1
 1200 240 l 1,11,-1
 1080 240 l 1,8,-1
0 360 m 1,12,-1
 0 480 l 1,13,-1
 1320 480 l 1,14,-1
 1320 360 l 1,15,-1
 0 360 l 1,12,-1
1200 480 m 1,16,-1
 1080 480 l 1,17,-1
 1080 600 l 1,18,-1
 1200 600 l 1,19,-1
 1200 480 l 1,16,-1
1080 600 m 1,20,-1
 960 600 l 1,21,-1
 960 720 l 1,22,-1
 1080 720 l 1,23,-1
 1080 600 l 1,20,-1
960 720 m 1,24,-1
 840 720 l 1,25,-1
 840 840 l 1,26,-1
 960 840 l 1,27,-1
 960 720 l 1,24,-1
EndSplineSet
Validated: 5
LCarets2: 1 0
Ligature2: "liga-subtable" hyphen greater
EndChar

StartChar: rightthickarrow
Encoding: 200 -1 200
Width: 1440
VWidth: 960
Flags: W
LayerCount: 2
Fore
SplineSet
960 840 m 5,0,-1
 960 720 l 5,1,-1
 840 720 l 5,2,-1
 840 840 l 5,3,-1
 960 840 l 5,0,-1
960 720 m 5,4,-1
 1080 720 l 5,5,-1
 1080 600 l 5,6,-1
 960 600 l 5,7,-1
 960 720 l 5,4,-1
0 600 m 5,8,-1
 1200 600 l 5,9,-1
 1200 480 l 5,10,-1
 0 480 l 5,11,-1
 0 600 l 5,8,-1
1200 480 m 5,12,-1
 1320 480 l 5,13,-1
 1320 360 l 5,14,-1
 1200 360 l 5,15,-1
 1200 480 l 5,12,-1
1200 360 m 5,16,-1
 1200 240 l 5,17,-1
 0 240 l 5,18,-1
 0 360 l 5,19,-1
 1200 360 l 5,16,-1
1080 240 m 5,20,-1
 1080 120 l 5,21,-1
 960 120 l 5,22,-1
 960 240 l 5,23,-1
 1080 240 l 5,20,-1
960 120 m 5,24,-1
 960 0 l 5,25,-1
 840 0 l 5,26,-1
 840 120 l 5,27,-1
 960 120 l 5,24,-1
EndSplineSet
Validated: 5
Ligature2: "liga-subtable" equal greater
LCarets2: 1 0
EndChar

StartChar: lessthanequalto
Encoding: 201 -1 201
Width: 1440
VWidth: 960
Flags: W
LayerCount: 2
Fore
SplineSet
300 0 m 25,0,-1
 1020 0 l 25,1,-1
 1020 -120 l 25,2,-1
 300 -120 l 25,3,-1
 300 0 l 25,0,-1
1020 120 m 1,4,-1
 780 120 l 1,5,-1
 780 240 l 1,6,-1
 1020 240 l 1,7,-1
 1020 120 l 1,4,-1
780 240 m 1,8,-1
 540 240 l 1,9,-1
 540 360 l 1,10,-1
 780 360 l 1,11,-1
 780 240 l 1,8,-1
540 360 m 1,12,-1
 300 360 l 1,13,-1
 300 480 l 1,14,-1
 540 480 l 1,15,-1
 540 360 l 1,12,-1
540 480 m 1,16,-1
 540 600 l 1,17,-1
 780 600 l 1,18,-1
 780 480 l 1,19,-1
 540 480 l 1,16,-1
780 600 m 1,20,-1
 780 720 l 1,21,-1
 1020 720 l 1,22,-1
 1020 600 l 1,23,-1
 780 600 l 1,20,-1
EndSplineSet
Validated: 5
Ligature2: "liga-subtable" less equal
EndChar

StartChar: greaterthanequalto
Encoding: 202 -1 202
Width: 1440
VWidth: 960
Flags: W
LayerCount: 2
Fore
SplineSet
1020 0 m 25,0,-1
 300 0 l 25,1,-1
 300 -120 l 25,2,-1
 1020 -120 l 25,3,-1
 1020 0 l 25,0,-1
300 120 m 1,4,-1
 540 120 l 1,5,-1
 540 240 l 1,6,-1
 300 240 l 1,7,-1
 300 120 l 1,4,-1
540 240 m 1,8,-1
 780 240 l 1,9,-1
 780 360 l 1,10,-1
 540 360 l 1,11,-1
 540 240 l 1,8,-1
780 360 m 1,12,-1
 1020 360 l 1,13,-1
 1020 480 l 1,14,-1
 780 480 l 1,15,-1
 780 360 l 1,12,-1
780 480 m 1,16,-1
 780 600 l 1,17,-1
 540 600 l 1,18,-1
 540 480 l 1,19,-1
 780 480 l 1,16,-1
540 600 m 1,20,-1
 540 720 l 1,21,-1
 300 720 l 1,22,-1
 300 600 l 1,23,-1
 540 600 l 1,20,-1
EndSplineSet
Validated: 5
Ligature2: "liga-subtable" greater equal
EndChar

StartChar: NameMe.203
Encoding: 203 1024 203
Width: 720
VWidth: 960
Flags: W
LayerCount: 2
Fore
SplineSet
240 960 m 5,0,-1
 240 1080 l 5,1,-1
 360 1080 l 5,2,-1
 360 960 l 5,3,-1
 240 960 l 5,0,-1
480 120 m 1,4,-1
 600 120 l 1,5,-1
 600 0 l 1,6,-1
 480 0 l 1,7,-1
 360 0 l 1,8,-1
 240 0 l 1,9,-1
 120 0 l 1,10,-1
 0 0 l 1,11,-1
 0 120 l 1,12,-1
 0 240 l 1,13,-1
 0 360 l 1,14,-1
 0 480 l 1,15,-1
 0 600 l 1,16,-1
 0 720 l 1,17,-1
 0 840 l 1,18,-1
 120 840 l 1,19,-1
 240 840 l 1,20,-1
 360 840 l 1,21,-1
 480 840 l 1,22,-1
 600 840 l 1,23,-1
 600 720 l 1,24,-1
 480 720 l 1,25,-1
 360 720 l 1,26,-1
 240 720 l 1,27,-1
 120 720 l 1,28,-1
 120 600 l 1,29,-1
 240 600 l 1,30,-1
 360 600 l 1,31,-1
 360 480 l 1,32,-1
 240 480 l 1,33,-1
 120 480 l 1,34,-1
 120 360 l 1,35,-1
 120 240 l 1,36,-1
 120 120 l 1,37,-1
 240 120 l 1,38,-1
 360 120 l 1,39,-1
 480 120 l 1,4,-1
240 1080 m 5,40,-1
 120 1080 l 5,41,-1
 120 1200 l 5,42,-1
 240 1200 l 5,43,-1
 240 1080 l 5,40,-1
EndSplineSet
Validated: 5
EndChar

StartChar: NameMe.204
Encoding: 204 1025 204
Width: 720
VWidth: 960
Flags: W
LayerCount: 2
Fore
SplineSet
360 960 m 1,0,-1
 360 1080 l 1,1,-1
 480 1080 l 1,2,-1
 480 960 l 1,3,-1
 360 960 l 1,0,-1
120 960 m 1,4,-1
 120 1080 l 1,5,-1
 240 1080 l 1,6,-1
 240 960 l 1,7,-1
 120 960 l 1,4,-1
480 120 m 1,8,-1
 600 120 l 1,9,-1
 600 0 l 1,10,-1
 480 0 l 1,11,-1
 360 0 l 1,12,-1
 240 0 l 1,13,-1
 120 0 l 1,14,-1
 0 0 l 1,15,-1
 0 120 l 1,16,-1
 0 240 l 1,17,-1
 0 360 l 1,18,-1
 0 480 l 1,19,-1
 0 600 l 1,20,-1
 0 720 l 1,21,-1
 0 840 l 1,22,-1
 120 840 l 1,23,-1
 240 840 l 1,24,-1
 360 840 l 1,25,-1
 480 840 l 1,26,-1
 600 840 l 1,27,-1
 600 720 l 1,28,-1
 480 720 l 1,29,-1
 360 720 l 1,30,-1
 240 720 l 1,31,-1
 120 720 l 1,32,-1
 120 600 l 1,33,-1
 240 600 l 1,34,-1
 360 600 l 1,35,-1
 360 480 l 1,36,-1
 240 480 l 1,37,-1
 120 480 l 1,38,-1
 120 360 l 1,39,-1
 120 240 l 1,40,-1
 120 120 l 1,41,-1
 240 120 l 1,42,-1
 360 120 l 1,43,-1
 480 120 l 1,8,-1
EndSplineSet
Validated: 1
EndChar

StartChar: NameMe.205
Encoding: 205 1026 205
Width: 720
VWidth: 960
Flags: W
LayerCount: 2
Fore
SplineSet
240 480 m 5
 360 480 l 1
 360 360 l 1
 240 360 l 1
 240 480 l 5
600 480 m 1,0,-1
 720 480 l 1,1,-1
 720 120 l 1,2,-1
 600 120 l 1,3,-1
 600 480 l 1,0,-1
480 120 m 1,4,-1
 600 120 l 1,5,-1
 600 0 l 1,6,-1
 480 0 l 1,7,-1
 480 120 l 1,4,-1
600 120 m 1025,8,-1
360 600 m 1,9,-1
 600 600 l 1,10,-1
 600 480 l 1,11,-1
 360 480 l 1,12,-1
 360 600 l 1,9,-1
120 720 m 25,13,-1
 0 720 l 1,14,-1
 0 840 l 1,15,-1
 480 840 l 1,16,-1
 480 720 l 1,17,-1
 240 720 l 1,18,-1
 240 0 l 1,19,-1
 120 0 l 1,20,-1
 120 720 l 25,13,-1
EndSplineSet
Validated: 5
EndChar

StartChar: NameMe.206
Encoding: 206 1027 206
Width: 720
VWidth: 960
Flags: W
LayerCount: 2
Fore
SplineSet
240 960 m 5,0,-1
 240 1080 l 5,1,-1
 360 1080 l 5,2,-1
 360 960 l 5,3,-1
 240 960 l 5,0,-1
120 480 m 1,26,-1
 120 360 l 1,5,-1
 120 240 l 1,6,-1
 120 -0 l 1,7,-1
 0 0 l 1,8,-1
 0 120 l 1,9,-1
 0 240 l 1,10,-1
 0 360 l 1,11,-1
 0 480 l 1,12,-1
 0 600 l 1,13,-1
 0 720 l 1,14,-1
 0 840 l 1,15,-1
 120 840 l 1,16,-1
 240 840 l 1,17,-1
 360 840 l 1,18,-1
 480 840 l 1,19,-1
 600 840 l 1,20,-1
 600 720 l 1,21,-1
 480 720 l 1,22,-1
 360 720 l 1,23,-1
 240 720 l 1,24,-1
 120 720 l 1,25,-1
 120 480 l 1,26,-1
360 1080 m 5,27,-1
 360 1200 l 5,28,-1
 480 1200 l 5,29,-1
 480 1080 l 5,30,-1
 360 1080 l 5,27,-1
EndSplineSet
Validated: 5
EndChar

StartChar: NameMe.207
Encoding: 207 1028 207
Width: 720
VWidth: 960
Flags: W
LayerCount: 2
Fore
SplineSet
480 720 m 5,0,-1
 600 720 l 1,1,-1
 600 600 l 1,2,-1
 480 600 l 1,3,-1
 480 720 l 5,0,-1
480 240 m 1,0,-1
 600 240 l 1,1,-1
 600 120 l 1,2,-1
 480 120 l 1,3,-1
 480 240 l 1,0,-1
480 0 m 17,4,-1
 360 0 l 1,5,-1
 240 0 l 1,6,-1
 120 0 l 1,7,-1
 120 120 l 1,8,-1
 0 120 l 1,9,-1
 0 240 l 1,10,-1
 0 360 l 1,11,-1
 0 480 l 1,12,-1
 0 600 l 1,13,-1
 0 720 l 1,14,-1
 120 720 l 1,15,-1
 120 840 l 1,16,-1
 240 840 l 1,17,-1
 360 840 l 1,18,-1
 480 840 l 1,19,-1
 480 720 l 1,20,-1
 360 720 l 1,21,-1
 240 720 l 1,22,-1
 120 720 l 1,23,-1
 120 480 l 1,24,-1
 360 480 l 1,25,-1
 360 360 l 1,26,-1
 240 360 l 1,27,-1
 120 360 l 1,28,-1
 120 240 l 1,29,-1
 120 120 l 1,30,-1
 240 120 l 1,31,-1
 360 120 l 1,32,-1
 480 120 l 1,33,-1
 480 0 l 17,4,-1
EndSplineSet
Validated: 5
EndChar

StartChar: NameMe.208
Encoding: 208 1029 208
Width: 720
VWidth: 960
Flags: W
LayerCount: 2
Fore
SplineSet
360 120 m 1,0,-1
 480 120 l 1,1,-1
 480 0 l 1,2,-1
 360 0 l 1,3,-1
 240 0 l 1,4,-1
 120 0 l 1,5,-1
 120 120 l 1,6,-1
 240 120 l 1,7,-1
 360 120 l 1,0,-1
480 120 m 1,8,-1
 480 240 l 1,9,-1
 480 360 l 1,10,-1
 480 480 l 1,11,-1
 600 480 l 1,12,-1
 600 360 l 1,13,-1
 600 240 l 1,14,-1
 600 120 l 1,15,-1
 480 120 l 1,8,-1
120 120 m 1,16,-1
 0 120 l 1,17,-1
 0 240 l 1,18,-1
 120 240 l 1,19,-1
 120 120 l 1,16,-1
480 480 m 1,20,-1
 360 480 l 1,21,-1
 240 480 l 1,22,-1
 120 480 l 1,23,-1
 120 600 l 1,24,-1
 240 600 l 1,25,-1
 360 600 l 1,26,-1
 480 600 l 1,27,-1
 480 480 l 1,20,-1
120 600 m 1,28,-1
 0 600 l 1,29,-1
 0 720 l 1,30,-1
 120 720 l 1,31,-1
 120 600 l 1,28,-1
480 840 m 1,32,-1
 600 840 l 1,33,-1
 600 720 l 1,34,-1
 480 720 l 1,35,-1
 360 720 l 1,36,-1
 240 720 l 1,37,-1
 120 720 l 1,38,-1
 120 840 l 1,39,-1
 240 840 l 1,40,-1
 360 840 l 1,41,-1
 480 840 l 1,32,-1
EndSplineSet
Validated: 5
EndChar

StartChar: NameMe.209
Encoding: 209 1030 209
Width: 720
VWidth: 960
Flags: W
LayerCount: 2
Fore
SplineSet
360 0 m 1,0,-1
 240 0 l 1,1,-1
 120 0 l 1,2,-1
 120 120 l 1,3,-1
 240 120 l 1,4,-1
 240 240 l 1,5,-1
 240 360 l 1,6,-1
 240 480 l 1,7,-1
 240 600 l 1,8,-1
 240 720 l 1,9,-1
 120 720 l 1,10,-1
 120 840 l 1,11,-1
 240 840 l 1,12,-1
 360 840 l 1,13,-1
 480 840 l 1,14,-1
 480 720 l 1,15,-1
 360 720 l 1,16,-1
 360 600 l 1,17,-1
 360 480 l 1,18,-1
 360 360 l 1,19,-1
 360 240 l 1,20,-1
 360 120 l 1,21,-1
 480 120 l 1,22,-1
 480 0 l 1,23,-1
 360 0 l 1,0,-1
EndSplineSet
Validated: 1
EndChar

StartChar: NameMe.210
Encoding: 210 1031 210
Width: 720
VWidth: 960
Flags: W
LayerCount: 2
Fore
SplineSet
360 960 m 1,0,-1
 360 1080 l 1,1,-1
 480 1080 l 1,2,-1
 480 960 l 1,3,-1
 360 960 l 1,0,-1
120 960 m 1,4,-1
 120 1080 l 1,5,-1
 240 1080 l 1,6,-1
 240 960 l 1,7,-1
 120 960 l 1,4,-1
360 0 m 1,8,-1
 240 0 l 1,9,-1
 120 0 l 1,10,-1
 120 120 l 1,11,-1
 240 120 l 1,12,-1
 240 240 l 1,13,-1
 240 360 l 1,14,-1
 240 480 l 1,15,-1
 240 600 l 1,16,-1
 240 720 l 1,17,-1
 120 720 l 1,18,-1
 120 840 l 1,19,-1
 240 840 l 1,20,-1
 360 840 l 1,21,-1
 480 840 l 1,22,-1
 480 720 l 1,23,-1
 360 720 l 1,24,-1
 360 600 l 1,25,-1
 360 480 l 1,26,-1
 360 360 l 1,27,-1
 360 240 l 1,28,-1
 360 120 l 1,29,-1
 480 120 l 1,30,-1
 480 0 l 1,31,-1
 360 0 l 1,8,-1
EndSplineSet
Validated: 1
EndChar

StartChar: NameMe.211
Encoding: 211 1032 211
Width: 720
VWidth: 960
Flags: W
LayerCount: 2
Fore
SplineSet
360 120 m 1,0,-1
 480 120 l 1,1,-1
 480 0 l 1,2,-1
 360 0 l 1,3,-1
 240 0 l 1,4,-1
 120 0 l 1,5,-1
 120 120 l 1,6,-1
 240 120 l 1,7,-1
 360 120 l 1,0,-1
480 120 m 1,8,-1
 480 240 l 1,9,-1
 480 360 l 1,10,-1
 480 480 l 1,11,-1
 480 600 l 1,12,-1
 480 720 l 1,13,-1
 480 840 l 1,14,-1
 600 840 l 1,15,-1
 600 720 l 1,16,-1
 600 600 l 1,17,-1
 600 480 l 1,18,-1
 600 360 l 1,19,-1
 600 240 l 1,20,-1
 600 120 l 1,21,-1
 480 120 l 1,8,-1
120 120 m 1,22,-1
 0 120 l 1,23,-1
 0 240 l 1,24,-1
 120 240 l 1,25,-1
 120 120 l 1,22,-1
EndSplineSet
Validated: 5
EndChar

StartChar: NameMe.212
Encoding: 212 1033 212
Width: 720
VWidth: 960
Flags: W
LayerCount: 2
Fore
SplineSet
600 480 m 5,0,-1
 720 480 l 1,1,-1
 720 120 l 1,2,-1
 600 120 l 1,3,-1
 600 480 l 5,0,-1
480 600 m 1,0,-1
 600 600 l 1,1,-1
 600 480 l 1,2,-1
 480 480 l 1,3,-1
 480 600 l 1,0,-1
480 120 m 1,4,-1
 600 120 l 1,5,-1
 600 0 l 1,6,-1
 480 0 l 1,7,-1
 480 120 l 1,4,-1
0 120 m 1,8,-1
 120 120 l 1,9,-1
 120 0 l 1,10,-1
 0 0 l 1,11,-1
 0 120 l 1,8,-1
240 720 m 17,12,-1
 240 480 l 1,13,-1
 240 360 l 1,14,-1
 240 240 l 1,15,-1
 240 120 l 1,16,-1
 120 120 l 1,17,-1
 120 240 l 1,18,-1
 120 360 l 1,19,-1
 120 480 l 1,20,-1
 120 600 l 1,21,-1
 120 720 l 1,22,-1
 120 840 l 1,23,-1
 360 840 l 1,24,-1
 480 840 l 1,25,-1
 480 0 l 1,26,-1
 360 0 l 1,27,-1
 360 720 l 1,28,-1
 240 720 l 17,12,-1
EndSplineSet
Validated: 5
EndChar

StartChar: NameMe.213
Encoding: 213 1034 213
Width: 720
VWidth: 960
Flags: W
LayerCount: 2
Fore
SplineSet
120 600 m 5,0,-1
 240 600 l 1,1,-1
 240 480 l 1,2,-1
 120 480 l 1,3,-1
 120 600 l 5,0,-1
480 480 m 1,0,-1
 600 480 l 1,1,-1
 600 120 l 1,2,-1
 480 120 l 1,3,-1
 480 480 l 1,0,-1
360 600 m 1,4,-1
 480 600 l 1,5,-1
 480 480 l 1,6,-1
 360 480 l 1,7,-1
 360 600 l 1,4,-1
360 120 m 1,8,-1
 480 120 l 1,9,-1
 480 0 l 1,10,-1
 360 0 l 1,11,-1
 360 120 l 1,8,-1
0 0 m 1025,12,-1
120 480 m 17,13,-1
 120 360 l 1,14,-1
 120 240 l 1,15,-1
 120 0 l 1,16,-1
 0 0 l 1,17,-1
 0 240 l 1,18,-1
 0 360 l 1,19,-1
 0 480 l 1,20,-1
 0 600 l 1,21,-1
 0 720 l 1,22,-1
 0 840 l 1,23,-1
 120 840 l 1,24,-1
 120 480 l 17,13,-1
360 840 m 17,25,-1
 360 0 l 1,26,-1
 240 0 l 1,27,-1
 240 840 l 1,28,-1
 360 840 l 17,25,-1
EndSplineSet
Validated: 5
EndChar

StartChar: NameMe.214
Encoding: 214 1035 214
Width: 720
VWidth: 960
Flags: W
LayerCount: 2
Fore
SplineSet
240 360 m 5
 360 360 l 1
 360 240 l 1
 240 240 l 1
 240 360 l 5
600 360 m 1,0,-1
 720 360 l 1,1,-1
 720 0 l 1,2,-1
 600 0 l 1,3,-1
 600 360 l 1,0,-1
360 480 m 1,4,-1
 600 480 l 1,5,-1
 600 360 l 1,6,-1
 360 360 l 1,7,-1
 360 480 l 1,4,-1
120 840 m 17,8,-1
 240 840 l 1,9,-1
 240 720 l 1,10,-1
 600 720 l 1,11,-1
 600 600 l 1,12,-1
 240 600 l 1,13,-1
 240 240 l 1,14,-1
 240 120 l 1,15,-1
 240 0 l 1,16,-1
 120 0 l 1,17,-1
 120 120 l 1,18,-1
 120 240 l 1,19,-1
 120 360 l 1,20,-1
 120 480 l 1,21,-1
 120 600 l 1,22,-1
 0 600 l 1,23,-1
 0 720 l 1,24,-1
 120 720 l 1,25,-1
 120 840 l 17,8,-1
EndSplineSet
Validated: 5
EndChar

StartChar: NameMe.215
Encoding: 215 1036 215
Width: 720
VWidth: 960
Flags: W
LayerCount: 2
Fore
SplineSet
240 960 m 5,0,-1
 240 1080 l 5,1,-1
 360 1080 l 5,2,-1
 360 960 l 5,3,-1
 240 960 l 5,0,-1
360 1080 m 5,4,-1
 360 1200 l 5,5,-1
 480 1200 l 5,6,-1
 480 1080 l 5,7,-1
 360 1080 l 5,4,-1
480 0 m 1,8,-1
 480 120 l 1,9,-1
 480 240 l 1,10,-1
 480 360 l 1,11,-1
 600 360 l 1,12,-1
 600 240 l 1,13,-1
 600 120 l 1,14,-1
 600 0 l 1,15,-1
 480 0 l 1,8,-1
0 0 m 1,16,-1
 0 120 l 1,17,-1
 0 240 l 1,18,-1
 0 360 l 1,19,-1
 0 480 l 1,20,-1
 0 600 l 1,21,-1
 0 720 l 1,22,-1
 0 840 l 1,23,-1
 120 840 l 1,24,-1
 120 720 l 1,25,-1
 120 600 l 1,26,-1
 240 600 l 1,27,-1
 360 600 l 1,28,-1
 360 480 l 1,29,-1
 480 480 l 1,30,-1
 480 360 l 1,31,-1
 360 360 l 1,32,-1
 360 480 l 1,33,-1
 240 480 l 1,34,-1
 120 480 l 1,35,-1
 120 360 l 1,36,-1
 120 240 l 1,37,-1
 120 120 l 1,38,-1
 120 0 l 1,39,-1
 0 0 l 1,16,-1
360 600 m 1,40,-1
 360 720 l 1,41,-1
 480 720 l 1,42,-1
 480 600 l 1,43,-1
 360 600 l 1,40,-1
480 720 m 1,44,-1
 480 840 l 1,45,-1
 600 840 l 1,46,-1
 600 720 l 1,47,-1
 480 720 l 1,44,-1
EndSplineSet
Validated: 5
EndChar

StartChar: NameMe.216
Encoding: 216 1037 216
Width: 720
VWidth: 960
Flags: W
LayerCount: 2
Fore
SplineSet
240 960 m 5,0,-1
 240 1080 l 5,1,-1
 360 1080 l 5,2,-1
 360 960 l 5,3,-1
 240 960 l 5,0,-1
240 1080 m 5,4,-1
 120 1080 l 5,5,-1
 120 1200 l 5,6,-1
 240 1200 l 5,7,-1
 240 1080 l 5,4,-1
240 600 m 1,8,-1
 360 600 l 1,9,-1
 360 480 l 1,10,-1
 240 480 l 1,11,-1
 240 600 l 1,8,-1
480 840 m 17,12,-1
 600 840 l 1,13,-1
 600 720 l 1,14,-1
 600 600 l 1,15,-1
 600 480 l 1,16,-1
 600 360 l 1,17,-1
 600 240 l 1,18,-1
 600 120 l 1,19,-1
 600 0 l 1,20,-1
 480 0 l 1,21,-1
 480 120 l 1,22,-1
 480 240 l 1,23,-1
 480 600 l 9,24,-1
 360 600 l 25,25,-1
 360 720 l 25,26,-1
 480 720 l 25,27,-1
 480 840 l 17,12,-1
120 360 m 17,28,-1
 120 120 l 1,29,-1
 120 0 l 1,30,-1
 0 0 l 1,31,-1
 0 120 l 1,32,-1
 0 240 l 1,33,-1
 0 360 l 1,34,-1
 0 480 l 1,35,-1
 0 600 l 1,36,-1
 0 720 l 1,37,-1
 0 840 l 1,38,-1
 120 840 l 1,39,-1
 120 480 l 9,40,-1
 240 480 l 25,41,-1
 240 360 l 25,42,-1
 120 360 l 17,28,-1
EndSplineSet
Validated: 5
EndChar

StartChar: NameMe.217
Encoding: 217 1038 217
Width: 720
VWidth: 960
Flags: W
LayerCount: 2
Fore
SplineSet
360 960 m 5,0,-1
 360 1080 l 5,1,-1
 480 1080 l 5,2,-1
 480 960 l 5,3,-1
 360 960 l 5,0,-1
480 1080 m 5,4,-1
 480 1200 l 5,5,-1
 600 1200 l 5,6,-1
 600 1080 l 5,7,-1
 480 1080 l 5,4,-1
240 960 m 5,8,-1
 240 1080 l 5,9,-1
 360 1080 l 5,10,-1
 360 960 l 5,11,-1
 240 960 l 5,8,-1
240 1080 m 5,12,-1
 120 1080 l 5,13,-1
 120 1200 l 5,14,-1
 240 1200 l 5,15,-1
 240 1080 l 5,12,-1
360 120 m 1,16,-1
 480 120 l 1,17,-1
 480 0 l 1,18,-1
 360 0 l 1,19,-1
 240 0 l 1,20,-1
 120 0 l 1,21,-1
 0 0 l 1,22,-1
 0 120 l 1,23,-1
 120 120 l 1,24,-1
 240 120 l 1,25,-1
 360 120 l 1,16,-1
480 360 m 17,26,-1
 360 360 l 1,27,-1
 240 360 l 1,28,-1
 120 360 l 1,29,-1
 120 480 l 1,30,-1
 240 480 l 1,31,-1
 360 480 l 1,32,-1
 480 480 l 1,33,-1
 480 600 l 1,34,-1
 480 720 l 1,35,-1
 480 840 l 1,36,-1
 600 840 l 1,37,-1
 600 720 l 1,38,-1
 600 600 l 1,39,-1
 600 480 l 1,40,-1
 600 360 l 9,41,-1
 600 120 l 25,42,-1
 480 120 l 25,43,-1
 480 360 l 17,26,-1
120 480 m 1,44,-1
 0 480 l 1,45,-1
 0 600 l 1,46,-1
 0 720 l 1,47,-1
 0 840 l 1,48,-1
 120 840 l 1,49,-1
 120 720 l 1,50,-1
 120 600 l 1,51,-1
 120 480 l 1,44,-1
EndSplineSet
Validated: 5
EndChar

StartChar: NameMe.218
Encoding: 218 1039 218
Width: 720
VWidth: 960
Flags: W
LayerCount: 2
Fore
SplineSet
0 0 m 17,0,-1
 0 120 l 1,1,-1
 0 240 l 1,2,-1
 0 360 l 1,3,-1
 0 480 l 1,4,-1
 0 600 l 1,5,-1
 0 720 l 1,6,-1
 0 840 l 1,7,-1
 120 840 l 9,8,-1
 120 720 l 17,9,-1
 120 480 l 1,10,-1
 120 120 l 1,11,-1
 480 120 l 24,12,-1
 480 840 l 17,13,-1
 600 840 l 9,14,-1
 600 0 l 1,15,16
 600 0 600 0 480 0 c 24,17,-1
 360 0 l 1,18,-1
 360 -120 l 1,19,-1
 240 -120 l 29,20,-1
 240 0 l 1,21,-1
 0 0 l 17,0,-1
EndSplineSet
Validated: 1
EndChar

StartChar: NameMe.219
Encoding: 219 1040 219
Width: 720
VWidth: 960
Flags: W
LayerCount: 2
Fore
SplineSet
480 0 m 1,0,-1
 480 120 l 1,1,-1
 480 240 l 1,2,-1
 480 360 l 1,3,-1
 480 480 l 1,4,-1
 360 480 l 1,5,-1
 240 480 l 1,6,-1
 120 480 l 1,7,-1
 120 360 l 1,8,-1
 120 240 l 1,9,-1
 120 120 l 1,10,-1
 120 0 l 1,11,-1
 0 0 l 1,12,-1
 0 120 l 1,13,-1
 0 240 l 1,14,-1
 0 360 l 1,15,-1
 0 480 l 1,16,-1
 0 600 l 1,17,-1
 0 720 l 1,18,-1
 120 720 l 1,19,-1
 120 600 l 1,20,-1
 240 600 l 1,21,-1
 360 600 l 1,22,-1
 480 600 l 1,23,-1
 480 720 l 1,24,-1
 600 720 l 1,25,-1
 600 600 l 1,26,-1
 600 480 l 1,27,-1
 600 360 l 1,28,-1
 600 240 l 1,29,-1
 600 120 l 1,30,-1
 600 0 l 1,31,-1
 480 0 l 1,0,-1
480 720 m 1,32,-1
 360 720 l 1,33,-1
 240 720 l 1,34,-1
 120 720 l 1,35,-1
 120 840 l 1,36,-1
 240 840 l 1,37,-1
 360 840 l 1,38,-1
 480 840 l 1,39,-1
 480 720 l 1,32,-1
EndSplineSet
Validated: 5
EndChar

StartChar: NameMe.220
Encoding: 220 1041 220
Width: 720
VWidth: 960
Flags: W
LayerCount: 2
Fore
SplineSet
120 720 m 1,0,-1
 120 600 l 1,1,-1
 240 600 l 1,2,-1
 360 600 l 1,3,-1
 480 600 l 1,4,-1
 480 480 l 1,5,-1
 600 480 l 1,6,-1
 600 360 l 1,7,-1
 600 240 l 1,8,-1
 600 120 l 1,9,-1
 480 120 l 1,10,-1
 480 0 l 1,11,-1
 360 0 l 1,12,-1
 240 0 l 1,13,-1
 120 0 l 1,14,-1
 0 0 l 1,15,-1
 0 120 l 1,16,-1
 0 240 l 1,17,-1
 0 360 l 1,18,-1
 0 480 l 1,19,-1
 0 600 l 1,20,-1
 0 720 l 1,21,-1
 0 840 l 1,22,-1
 120 840 l 1,23,-1
 240 840 l 1,24,-1
 360 840 l 1,25,-1
 480 840 l 1,26,-1
 600 840 l 1,27,-1
 600 720 l 1,28,-1
 120 720 l 1,0,-1
360 120 m 1,29,-1
 480 120 l 1,30,-1
 480 240 l 1,31,-1
 480 360 l 1,32,-1
 480 480 l 1,33,-1
 360 480 l 1,34,-1
 240 480 l 1,35,-1
 120 480 l 1,36,-1
 120 360 l 1,37,-1
 120 240 l 1,38,-1
 120 120 l 1,39,-1
 240 120 l 1,40,-1
 360 120 l 1,29,-1
EndSplineSet
Validated: 5
EndChar

StartChar: NameMe.221
Encoding: 221 1042 221
Width: 720
VWidth: 960
Flags: W
LayerCount: 2
Fore
SplineSet
360 120 m 1,0,-1
 480 120 l 1,1,-1
 480 240 l 1,2,-1
 480 360 l 1,3,-1
 480 480 l 1,4,-1
 360 480 l 1,5,-1
 240 480 l 1,6,-1
 120 480 l 1,7,-1
 120 360 l 1,8,-1
 120 240 l 1,9,-1
 120 120 l 1,10,-1
 240 120 l 1,11,-1
 360 120 l 1,0,-1
360 0 m 1,12,-1
 240 0 l 1,13,-1
 120 0 l 1,14,-1
 0 0 l 1,15,-1
 0 120 l 1,16,-1
 0 240 l 1,17,-1
 0 360 l 1,18,-1
 0 480 l 1,19,-1
 0 600 l 1,20,-1
 0 720 l 1,21,-1
 0 840 l 1,22,-1
 120 840 l 1,23,-1
 240 840 l 1,24,-1
 360 840 l 1,25,-1
 480 840 l 1,26,-1
 480 720 l 1,27,-1
 600 720 l 1,28,-1
 600 600 l 1,29,-1
 480 600 l 1,30,-1
 480 720 l 1,31,-1
 360 720 l 1,32,-1
 240 720 l 1,33,-1
 120 720 l 1,34,-1
 120 600 l 1,35,-1
 240 600 l 1,36,-1
 360 600 l 1,37,-1
 480 600 l 1,38,-1
 480 480 l 1,39,-1
 600 480 l 1,40,-1
 600 360 l 1,41,-1
 600 240 l 1,42,-1
 600 120 l 1,43,-1
 480 120 l 1,44,-1
 480 0 l 1,45,-1
 360 0 l 1,12,-1
EndSplineSet
Validated: 5
EndChar

StartChar: NameMe.222
Encoding: 222 1043 222
Width: 720
VWidth: 960
Flags: W
LayerCount: 2
Fore
SplineSet
120 480 m 1,0,-1
 120 360 l 1,1,-1
 120 240 l 1,2,-1
 120 -0 l 1,3,-1
 0 0 l 1,4,-1
 0 120 l 1,5,-1
 0 240 l 1,6,-1
 0 360 l 1,7,-1
 0 480 l 1,8,-1
 0 600 l 1,9,-1
 0 720 l 1,10,-1
 0 840 l 1,11,-1
 120 840 l 1,12,-1
 240 840 l 1,13,-1
 360 840 l 1,14,-1
 480 840 l 1,15,-1
 600 840 l 1,16,-1
 600 720 l 1,17,-1
 480 720 l 1,18,-1
 360 720 l 1,19,-1
 240 720 l 1,20,-1
 120 720 l 1,21,-1
 120 480 l 1,0,-1
EndSplineSet
Validated: 1
EndChar

StartChar: NameMe.223
Encoding: 223 1044 223
Width: 720
VWidth: 960
Flags: W
LayerCount: 2
Fore
SplineSet
600 120 m 1,0,-1
 720 120 l 1,1,-1
 720 -120 l 5,2,-1
 600 -120 l 1,3,-1
 600 120 l 1,0,-1
120 -120 m 1025,4,-1
0 0 m 1,5,-1
 0 -120 l 1,6,-1
 120 -120 l 1,7,-1
 120 0 l 1,8,-1
 0 0 l 1,5,-1
480 120 m 25,9,-1
 480 720 l 1,10,-1
 360 720 l 1,11,-1
 360 480 l 1,12,-1
 240 480 l 1,13,-1
 240 360 l 1,14,-1
 240 240 l 1,15,-1
 240 120 l 1,16,-1
 480 120 l 25,9,-1
120 240 m 17,17,-1
 120 360 l 1,18,-1
 120 480 l 1,19,-1
 240 480 l 1,20,-1
 240 840 l 1,21,-1
 360 840 l 1,22,-1
 480 840 l 1,23,-1
 600 840 l 1,24,-1
 600 0 l 1,25,-1
 0 0 l 1,26,-1
 0 120 l 1,27,-1
 120 120 l 1,28,-1
 120 240 l 17,17,-1
EndSplineSet
Validated: 5
EndChar

StartChar: NameMe.224
Encoding: 224 1045 224
Width: 720
VWidth: 960
Flags: W
LayerCount: 2
Fore
SplineSet
480 120 m 1,0,-1
 600 120 l 1,1,-1
 600 0 l 1,2,-1
 480 0 l 1,3,-1
 360 0 l 1,4,-1
 240 0 l 1,5,-1
 120 0 l 1,6,-1
 0 0 l 1,7,-1
 0 120 l 1,8,-1
 0 240 l 1,9,-1
 0 360 l 1,10,-1
 0 480 l 1,11,-1
 0 600 l 1,12,-1
 0 720 l 1,13,-1
 0 840 l 1,14,-1
 120 840 l 1,15,-1
 240 840 l 1,16,-1
 360 840 l 1,17,-1
 480 840 l 1,18,-1
 600 840 l 1,19,-1
 600 720 l 1,20,-1
 480 720 l 1,21,-1
 360 720 l 1,22,-1
 240 720 l 1,23,-1
 120 720 l 1,24,-1
 120 600 l 1,25,-1
 240 600 l 1,26,-1
 360 600 l 1,27,-1
 360 480 l 1,28,-1
 240 480 l 1,29,-1
 120 480 l 1,30,-1
 120 360 l 1,31,-1
 120 240 l 1,32,-1
 120 120 l 1,33,-1
 240 120 l 1,34,-1
 360 120 l 1,35,-1
 480 120 l 1,0,-1
EndSplineSet
Validated: 1
EndChar

StartChar: NameMe.225
Encoding: 225 1046 225
Width: 720
VWidth: 960
Flags: W
LayerCount: 2
Fore
SplineSet
480 480 m 5,0,-1
 600 480 l 1,1,-1
 600 0 l 1,2,-1
 480 0 l 1,3,-1
 480 480 l 5,0,-1
480 840 m 1,0,-1
 600 840 l 1,1,-1
 600 600 l 1,2,-1
 480 600 l 1,3,-1
 480 840 l 1,0,-1
480 480 m 1025,4,-1
480 600 m 1025,5,-1
480 480 m 1025,6,-1
480 600 m 1025,7,-1
0 480 m 1,8,-1
 120 480 l 1,9,-1
 120 0 l 1,10,-1
 0 0 l 1,11,-1
 0 480 l 1,8,-1
0 840 m 1,12,-1
 120 840 l 1,13,-1
 120 600 l 1,14,-1
 0 600 l 1,15,-1
 0 840 l 1,12,-1
480 480 m 25,16,-1
 360 480 l 1,17,-1
 360 0 l 1,18,-1
 240 0 l 1,19,-1
 240 480 l 1,20,-1
 120 480 l 1,21,-1
 120 600 l 1,22,-1
 240 600 l 1,23,-1
 240 840 l 1,24,-1
 360 840 l 1,25,-1
 360 600 l 1,26,-1
 480 600 l 1,27,-1
 480 480 l 25,16,-1
480 480 m 1049,28,-1
EndSplineSet
Validated: 5
EndChar

StartChar: NameMe.226
Encoding: 226 1047 226
Width: 720
VWidth: 960
Flags: W
LayerCount: 2
Fore
SplineSet
0 600 m 1,0,-1
 0 720 l 1,1,-1
 120 720 l 1,2,-1
 120 600 l 1,3,-1
 0 600 l 1,0,-1
360 120 m 1,4,-1
 480 120 l 1,5,-1
 480 0 l 1,6,-1
 360 0 l 1,7,-1
 240 0 l 1,8,-1
 120 0 l 1,9,-1
 120 120 l 1,10,-1
 240 120 l 1,11,-1
 360 120 l 1,4,-1
600 240 m 21,12,-1
 600 120 l 1,13,-1
 480 120 l 1,14,-1
 480 240 l 9,15,-1
 480 480 l 25,16,-1
 240 480 l 1,17,-1
 240 600 l 9,18,-1
 480 600 l 25,19,-1
 480 480 l 25,20,-1
 600 480 l 25,21,-1
 600 240 l 21,12,-1
120 120 m 1,22,-1
 0 120 l 1,23,-1
 0 240 l 1,24,-1
 120 240 l 1,25,-1
 120 120 l 1,22,-1
480 600 m 17,26,-1
 480 720 l 1,27,-1
 600 720 l 1,28,-1
 600 600 l 9,29,-1
 480 600 l 17,26,-1
480 720 m 1,30,-1
 360 720 l 1,31,-1
 240 720 l 1,32,-1
 120 720 l 1,33,-1
 120 840 l 1,34,-1
 240 840 l 1,35,-1
 360 840 l 1,36,-1
 480 840 l 1,37,-1
 480 720 l 1,30,-1
EndSplineSet
Validated: 5
EndChar

StartChar: NameMe.227
Encoding: 227 1048 227
Width: 720
VWidth: 960
Flags: W
LayerCount: 2
Fore
SplineSet
240 600 m 1,0,-1
 360 600 l 1,1,-1
 360 480 l 1,2,-1
 240 480 l 1,3,-1
 240 600 l 1,0,-1
480 840 m 17,4,-1
 600 840 l 1,5,-1
 600 720 l 1,6,-1
 600 600 l 1,7,-1
 600 480 l 1,8,-1
 600 360 l 1,9,-1
 600 240 l 1,10,-1
 600 120 l 1,11,-1
 600 0 l 1,12,-1
 480 0 l 1,13,-1
 480 120 l 1,14,-1
 480 240 l 1,15,-1
 480 600 l 9,16,-1
 360 600 l 25,17,-1
 360 720 l 25,18,-1
 480 720 l 25,19,-1
 480 840 l 17,4,-1
120 360 m 21,20,-1
 120 120 l 1,21,-1
 120 0 l 1,22,-1
 0 0 l 1,23,-1
 0 120 l 1,24,-1
 0 240 l 1,25,-1
 0 360 l 1,26,-1
 0 480 l 1,27,-1
 0 600 l 1,28,-1
 0 720 l 1,29,-1
 0 840 l 1,30,-1
 120 840 l 1,31,-1
 120 480 l 9,32,-1
 240 480 l 25,33,-1
 240 360 l 25,34,-1
 120 360 l 21,20,-1
EndSplineSet
Validated: 5
EndChar

StartChar: NameMe.228
Encoding: 228 1049 228
Width: 720
VWidth: 960
Flags: W
LayerCount: 2
Fore
SplineSet
360 960 m 5,0,-1
 360 1080 l 5,1,-1
 480 1080 l 5,2,-1
 480 960 l 5,3,-1
 360 960 l 5,0,-1
480 1080 m 5,4,-1
 480 1200 l 5,5,-1
 600 1200 l 5,6,-1
 600 1080 l 5,7,-1
 480 1080 l 5,4,-1
240 960 m 5,8,-1
 240 1080 l 5,9,-1
 360 1080 l 5,10,-1
 360 960 l 5,11,-1
 240 960 l 5,8,-1
240 1080 m 5,12,-1
 120 1080 l 5,13,-1
 120 1200 l 5,14,-1
 240 1200 l 5,15,-1
 240 1080 l 5,12,-1
240 600 m 1,16,-1
 360 600 l 1,17,-1
 360 480 l 1,18,-1
 240 480 l 1,19,-1
 240 600 l 1,16,-1
480 840 m 17,20,-1
 600 840 l 1,21,-1
 600 720 l 1,22,-1
 600 600 l 1,23,-1
 600 480 l 1,24,-1
 600 360 l 1,25,-1
 600 240 l 1,26,-1
 600 120 l 1,27,-1
 600 0 l 1,28,-1
 480 0 l 1,29,-1
 480 120 l 1,30,-1
 480 240 l 1,31,-1
 480 600 l 9,32,-1
 360 600 l 25,33,-1
 360 720 l 25,34,-1
 480 720 l 25,35,-1
 480 840 l 17,20,-1
120 360 m 17,36,-1
 120 120 l 1,37,-1
 120 0 l 1,38,-1
 0 0 l 1,39,-1
 0 120 l 1,40,-1
 0 240 l 1,41,-1
 0 360 l 1,42,-1
 0 480 l 1,43,-1
 0 600 l 1,44,-1
 0 720 l 1,45,-1
 0 840 l 1,46,-1
 120 840 l 1,47,-1
 120 480 l 9,48,-1
 240 480 l 25,49,-1
 240 360 l 25,50,-1
 120 360 l 17,36,-1
EndSplineSet
Validated: 5
EndChar

StartChar: NameMe.229
Encoding: 229 1050 229
Width: 720
VWidth: 960
Flags: W
LayerCount: 2
Fore
SplineSet
480 0 m 1,0,-1
 480 120 l 1,1,-1
 480 240 l 1,2,-1
 480 360 l 1,3,-1
 600 360 l 1,4,-1
 600 240 l 1,5,-1
 600 120 l 1,6,-1
 600 0 l 1,7,-1
 480 0 l 1,0,-1
0 0 m 1,8,-1
 0 120 l 1,9,-1
 0 240 l 1,10,-1
 0 360 l 1,11,-1
 0 480 l 1,12,-1
 0 600 l 1,13,-1
 0 720 l 1,14,-1
 0 840 l 1,15,-1
 120 840 l 1,16,-1
 120 720 l 1,17,-1
 120 600 l 1,18,-1
 240 600 l 1,19,-1
 360 600 l 1,20,-1
 360 480 l 1,21,-1
 480 480 l 1,22,-1
 480 360 l 1,23,-1
 360 360 l 1,24,-1
 360 480 l 1,25,-1
 240 480 l 1,26,-1
 120 480 l 1,27,-1
 120 360 l 1,28,-1
 120 240 l 1,29,-1
 120 120 l 1,30,-1
 120 0 l 1,31,-1
 0 0 l 1,8,-1
360 600 m 1,32,-1
 360 720 l 1,33,-1
 480 720 l 1,34,-1
 480 600 l 1,35,-1
 360 600 l 1,32,-1
480 720 m 1,36,-1
 480 840 l 1,37,-1
 600 840 l 1,38,-1
 600 720 l 1,39,-1
 480 720 l 1,36,-1
EndSplineSet
Validated: 5
EndChar

StartChar: NameMe.230
Encoding: 230 1051 230
Width: 720
VWidth: 960
Flags: W
LayerCount: 2
Fore
SplineSet
0 120 m 1,0,-1
 120 120 l 1,1,-1
 120 0 l 1,2,-1
 0 0 l 1,3,-1
 0 120 l 1,0,-1
120 240 m 21,4,-1
 120 360 l 1,5,-1
 120 480 l 1,6,-1
 120 600 l 1,7,-1
 120 720 l 1,8,-1
 120 840 l 1,9,-1
 360 840 l 1,10,-1
 480 840 l 1,11,-1
 600 840 l 1,12,-1
 600 0 l 1,13,-1
 480 0 l 1,14,-1
 480 720 l 1,15,-1
 360 720 l 1,16,-1
 240 720 l 1,17,-1
 240 480 l 1,18,-1
 240 360 l 1,19,-1
 240 240 l 1,20,-1
 240 120 l 9,21,-1
 120 120 l 25,22,-1
 120 240 l 21,4,-1
EndSplineSet
Validated: 5
EndChar

StartChar: NameMe.231
Encoding: 231 1052 231
Width: 720
VWidth: 960
Flags: W
LayerCount: 2
Fore
SplineSet
480 0 m 1,0,-1
 480 120 l 1,1,-1
 480 240 l 1,2,-1
 480 360 l 1,3,-1
 480 480 l 1,4,-1
 480 600 l 1,5,-1
 360 600 l 1,6,-1
 360 480 l 1,7,-1
 240 480 l 1,8,-1
 240 600 l 1,9,-1
 360 600 l 1,10,-1
 360 720 l 1,11,-1
 480 720 l 1,12,-1
 480 840 l 1,13,-1
 600 840 l 1,14,-1
 600 720 l 1,15,-1
 600 600 l 1,16,-1
 600 480 l 1,17,-1
 600 360 l 1,18,-1
 600 240 l 1,19,-1
 600 120 l 1,20,-1
 600 0 l 1,21,-1
 480 0 l 1,0,-1
0 0 m 1,22,-1
 0 120 l 1,23,-1
 0 240 l 1,24,-1
 0 360 l 1,25,-1
 0 480 l 1,26,-1
 0 600 l 1,27,-1
 0 720 l 1,28,-1
 0 840 l 1,29,-1
 120 840 l 1,30,-1
 120 720 l 1,31,-1
 240 720 l 1,32,-1
 240 600 l 1,33,-1
 120 600 l 1,34,-1
 120 480 l 1,35,-1
 120 360 l 1,36,-1
 120 240 l 1,37,-1
 120 120 l 1,38,-1
 120 0 l 1,39,-1
 0 0 l 1,22,-1
EndSplineSet
Validated: 5
EndChar

StartChar: NameMe.232
Encoding: 232 1053 232
Width: 720
VWidth: 960
Flags: W
LayerCount: 2
Fore
SplineSet
480 0 m 1,0,-1
 480 120 l 1,1,-1
 480 240 l 1,2,-1
 480 360 l 1,3,-1
 480 480 l 1,4,-1
 360 480 l 1,5,-1
 240 480 l 1,6,-1
 120 480 l 1,7,-1
 120 360 l 1,8,-1
 120 240 l 1,9,-1
 120 120 l 1,10,-1
 120 0 l 1,11,-1
 0 0 l 1,12,-1
 0 120 l 1,13,-1
 0 240 l 1,14,-1
 0 360 l 1,15,-1
 0 480 l 1,16,-1
 0 600 l 1,17,-1
 0 720 l 1,18,-1
 0 840 l 1,19,-1
 120 840 l 1,20,-1
 120 720 l 1,21,-1
 120 600 l 1,22,-1
 240 600 l 1,23,-1
 360 600 l 1,24,-1
 480 600 l 1,25,-1
 480 720 l 1,26,-1
 480 840 l 1,27,-1
 600 840 l 1,28,-1
 600 720 l 1,29,-1
 600 600 l 1,30,-1
 600 480 l 1,31,-1
 600 360 l 1,32,-1
 600 240 l 1,33,-1
 600 120 l 1,34,-1
 600 0 l 1,35,-1
 480 0 l 1,0,-1
EndSplineSet
Validated: 1
EndChar

StartChar: NameMe.233
Encoding: 233 1054 233
Width: 720
VWidth: 960
Flags: W
LayerCount: 2
Fore
SplineSet
360 120 m 1,0,-1
 480 120 l 1,1,-1
 480 0 l 1,2,-1
 360 0 l 1,3,-1
 240 0 l 1,4,-1
 120 0 l 1,5,-1
 120 120 l 1,6,-1
 240 120 l 1,7,-1
 360 120 l 1,0,-1
480 120 m 1,8,-1
 480 240 l 1,9,-1
 480 360 l 1,10,-1
 480 480 l 1,11,-1
 480 600 l 1,12,-1
 480 720 l 1,13,-1
 600 720 l 1,14,-1
 600 600 l 1,15,-1
 600 480 l 1,16,-1
 600 360 l 1,17,-1
 600 240 l 1,18,-1
 600 120 l 1,19,-1
 480 120 l 1,8,-1
120 120 m 1,20,-1
 0 120 l 1,21,-1
 0 240 l 1,22,-1
 0 360 l 1,23,-1
 0 480 l 1,24,-1
 0 600 l 1,25,-1
 0 720 l 1,26,-1
 120 720 l 1,27,-1
 120 600 l 1,28,-1
 120 480 l 1,29,-1
 120 360 l 1,30,-1
 120 240 l 1,31,-1
 120 120 l 1,20,-1
480 720 m 1,32,-1
 360 720 l 1,33,-1
 240 720 l 1,34,-1
 120 720 l 1,35,-1
 120 840 l 1,36,-1
 240 840 l 1,37,-1
 360 840 l 1,38,-1
 480 840 l 1,39,-1
 480 720 l 1,32,-1
EndSplineSet
Validated: 5
EndChar

